<svg width="900" height="672" viewBox="0 0 900 672" fill="none" xmlns="http://www.w3.org/2000/svg">
<g opacity="0.02">
<path d="M746.777 467.305C751.106 463.575 757.639 464.066 761.371 468.401C765.102 472.737 764.619 479.275 760.29 483.006C755.962 486.736 749.429 486.245 745.697 481.91C741.966 477.574 742.449 471.036 746.777 467.305Z" fill="#F0F3FA"/>
<path d="M880.924 283.319C885.252 279.589 891.785 280.079 895.517 284.415C899.248 288.751 898.765 295.289 894.437 299.019C890.109 302.75 883.575 302.259 879.843 297.924C876.112 293.588 876.595 287.049 880.924 283.319Z" fill="#F0F3FA"/>
<path d="M449.974 150.78L483.274 189.471M449.974 150.78C445.646 154.511 439.112 154.02 435.381 149.685C431.649 145.349 432.133 138.81 436.461 135.08C440.789 131.35 447.322 131.84 451.054 136.176C454.785 140.511 454.302 147.05 449.974 150.78ZM483.274 189.471L543.095 195.536L600.19 146.326M483.274 189.471L489.704 151.56M600.19 146.326C596.459 141.991 596.942 135.452 601.271 131.722C605.599 127.991 612.132 128.482 615.864 132.818C619.595 137.153 619.112 143.692 614.784 147.422C610.455 151.152 603.922 150.662 600.19 146.326ZM626.468 335.042L691.814 338.875L819.223 486.907L868.697 491.146L907.5 536.531M759.325 481.884L791.178 518.892L788.131 574.259L897.122 689.801M511.231 293.32C507.499 288.985 500.966 288.494 496.638 292.224C492.309 295.955 491.826 302.493 495.557 306.829C499.289 311.164 505.823 311.655 510.151 307.925C514.479 304.194 514.962 297.656 511.231 293.32ZM511.231 293.32L615.347 203.584L690.957 208.738L825.605 365.181L878.612 371.259L963.552 469.947M683.825 42.9891C688.153 39.2588 688.637 32.7201 684.905 28.3846C681.173 24.0491 674.64 23.5584 670.312 27.2887C665.984 31.019 665.5 37.5577 669.232 41.8932C672.963 46.2288 679.497 46.7194 683.825 42.9891ZM683.825 42.9891L745.599 114.762L742.301 166.439L848.958 290.359L887.68 291.169M667.643 -64.1723C671.971 -67.9026 672.454 -74.4412 668.723 -78.7767C664.991 -83.1123 658.458 -83.6029 654.13 -79.8726C649.801 -76.1423 649.318 -69.6037 653.049 -65.2681C656.781 -60.9326 663.315 -60.442 667.643 -64.1723ZM667.643 -64.1723L753.065 35.0765L750.461 77.3643L781.348 113.251M781.348 113.251C785.676 109.521 792.21 110.011 795.942 114.347C799.673 118.682 799.189 125.221 794.861 128.951C790.533 132.682 784 132.191 780.268 127.855C776.537 123.52 777.02 116.981 781.348 113.251ZM614.907 -59.7407C619.235 -63.471 625.769 -62.9803 629.5 -58.6448C633.232 -54.3092 632.748 -47.7706 628.42 -44.0403C624.092 -40.31 617.558 -40.8006 613.827 -45.1362C610.095 -49.4717 610.579 -56.0103 614.907 -59.7407ZM614.907 -59.7407L583.055 -96.7487C561.51 -98.7762 559.71 -98.7174 538.165 -100.745M498.395 234.582L459.9 229.15L385.095 142.237L387.545 102.035L467.591 33.045L535.874 39.5227M741.298 513.049L650.567 407.632L613.058 403.083M741.298 513.049L733.543 603.727L825.605 707.5M741.298 513.049L736.789 565.769L669.858 536.531L548.241 395.227L554.897 335.042M639.944 266.394L680.074 270.859L792.522 401.508L865.565 405.945L938.922 491.175M513.289 -159.681L572.222 -155.78L610.831 -110.922L675.941 -105.508L819.276 61.028L813.104 144.482L1038 405.781M989.301 447.754L897.122 340.656L836.182 335.555L690.916 166.776L696.801 122.636L543.814 -55.1141L481.908 -61.3363L386.189 21.1628M151.2 179.644L99.1156 224.535L95.9654 269.019M151.2 179.644C154.932 183.98 161.467 184.469 165.797 180.737C170.128 177.004 170.613 170.464 166.882 166.129C163.15 161.793 156.615 161.304 152.284 165.036C147.954 168.768 147.469 175.309 151.2 179.644ZM174.496 134.173L207.796 172.863L204.907 232.977L147.782 282.212M174.496 134.173C178.826 130.44 179.311 123.9 175.58 119.565C171.848 115.229 165.313 114.74 160.982 118.472C156.652 122.204 156.167 128.745 159.898 133.08C163.63 137.416 170.165 137.905 174.496 134.173ZM147.782 282.212C144.05 277.876 137.515 277.387 133.185 281.12C128.854 284.852 128.369 291.392 132.1 295.728C135.832 300.063 142.367 300.552 146.698 296.82C151.028 293.088 151.513 286.548 147.782 282.212ZM330.428 336.156L324.511 401.409L451.92 549.441L448.763 599.043L548.218 707.5M455.852 489.405L487.704 526.413L542.888 531.592L696.053 698.507M306.301 215.908C302.569 211.573 303.054 205.032 307.385 201.3C311.715 197.568 318.251 198.057 321.982 202.392C325.714 206.728 325.228 213.268 320.898 217C316.568 220.733 310.032 220.244 306.301 215.908ZM306.301 215.908L202.131 305.69L195.996 381.299L330.644 537.742L328.78 591.113L413.719 689.801M33.2094 349.706C28.8791 353.439 22.3437 352.95 18.6122 348.614C14.8806 344.278 15.366 337.738 19.6963 334.006C24.0266 330.274 30.562 330.763 34.2936 335.098C38.0251 339.434 37.5397 345.974 33.2094 349.706ZM33.2094 349.706L94.9836 421.479L146.556 425.864L253.213 549.784L249.85 578M-70.3181 317.827C-74.6484 321.559 -81.1838 321.07 -84.9154 316.734C-88.6469 312.399 -88.1615 305.859 -83.8312 302.126C-79.5009 298.394 -72.9655 298.883 -69.234 303.219C-65.5024 307.554 -65.9878 314.094 -70.3181 317.827ZM-70.3181 317.827L15.1039 417.075L57.2929 420.757L88.1799 456.644M88.1799 456.644C83.8496 460.376 83.3643 466.916 87.0958 471.252C90.8274 475.587 97.3627 476.076 101.693 472.344C106.023 468.612 106.509 462.072 102.777 457.736C99.0457 453.401 92.5102 452.912 88.1799 456.644ZM-58.1049 266.28C-62.4352 270.012 -62.9206 276.552 -59.189 280.888C-55.4575 285.223 -48.9221 285.712 -44.5918 281.98C-40.2615 278.248 -39.7761 271.708 -43.5076 267.372C-47.2392 263.037 -53.7746 262.547 -58.1049 266.28ZM-58.1049 266.28L-89.9571 229.272C-88.7615 207.645 -88.4361 205.871 -87.2404 184.244M250.143 194.508L250.491 155.598L175.686 68.6854L135.582 65.1596L55.4953 134.185L51.757 202.737M489.336 476.173L398.605 370.756L399.679 332.953M489.336 476.173L580.125 481.918L751 689.801M489.336 476.173L542.12 479.513L523.159 408.931L401.541 267.627L341.058 265.308M260.567 339.335L259.02 379.721L371.468 510.37L365.005 583.332L455.852 689.801M-141.805 150.897L-146.702 209.811L-108.093 254.67L-112.412 319.923L30.9235 486.459L114.336 492.701L339.233 754M387.957 712.005L295.778 604.906L299.787 543.827L154.522 375.048L110.015 374.34L-42.9724 196.59L-39.9288 134.389L55.8397 51.8474M489.704 151.56C487.078 151.352 484.529 150.147 482.673 147.991C478.942 143.655 479.425 137.117 483.753 133.387C488.081 129.656 494.615 130.147 498.346 134.482C502.078 138.818 501.594 145.357 497.266 149.087C495.091 150.962 492.358 151.771 489.704 151.56ZM746.777 467.305C751.106 463.575 757.639 464.066 761.371 468.401C765.102 472.737 764.619 479.275 760.29 483.006C755.962 486.736 749.429 486.245 745.697 481.91C741.966 477.574 742.449 471.036 746.777 467.305ZM596.016 394.095C600.344 390.364 606.878 390.855 610.609 395.191C614.341 399.526 613.857 406.065 609.529 409.795C605.201 413.525 598.667 413.035 594.936 408.699C591.204 404.364 591.688 397.825 596.016 394.095ZM549.298 317.158C553.626 313.428 560.16 313.919 563.891 318.254C567.623 322.59 567.139 329.128 562.811 332.859C558.483 336.589 551.949 336.098 548.218 331.763C544.486 327.427 544.97 320.889 549.298 317.158ZM622.878 257.647C627.206 253.917 633.74 254.408 637.471 258.743C641.203 263.079 640.719 269.618 636.391 273.348C632.063 277.078 625.529 276.588 621.798 272.252C618.066 267.917 618.55 261.378 622.878 257.647ZM880.924 283.319C885.252 279.589 891.785 280.079 895.517 284.415C899.248 288.751 898.765 295.289 894.437 299.019C890.109 302.75 883.575 302.259 879.843 297.924C876.112 293.588 876.596 287.049 880.924 283.319ZM521.129 -109.791C525.457 -113.521 531.991 -113.03 535.723 -108.695C539.454 -104.359 538.971 -97.8206 534.642 -94.0903C530.314 -90.36 523.781 -90.8506 520.049 -95.1861C516.318 -99.5217 516.801 -106.06 521.129 -109.791ZM539.418 32.6694C535.09 36.3998 534.606 42.9384 538.337 47.2739C542.069 51.6094 548.603 52.1001 552.931 48.3698C557.259 44.6395 557.742 38.1008 554.011 33.7653C550.279 29.4298 543.746 28.9391 539.418 32.6694ZM501.981 227.065C497.653 230.795 497.169 237.334 500.901 241.669C504.632 246.005 511.166 246.496 515.494 242.765C519.822 239.035 520.306 232.496 516.574 228.161C512.842 223.825 506.309 223.335 501.981 227.065ZM598.411 85.3522C594.083 89.0825 593.599 95.6212 597.331 99.9567C601.062 104.292 607.596 104.783 611.924 101.053C616.252 97.3223 616.736 90.7836 613.004 86.4481C609.273 82.1126 602.739 81.6219 598.411 85.3522ZM609.447 325.871C613.775 322.141 620.309 322.631 624.04 326.967C627.772 331.303 627.288 337.841 622.96 341.571C618.632 345.302 612.098 344.811 608.367 340.476C604.635 336.14 605.119 329.601 609.447 325.871ZM504.025 -147.789C511.444 -154.184 512.273 -165.393 505.876 -172.825C499.479 -180.258 488.279 -181.099 480.859 -174.704C473.44 -168.309 472.611 -157.1 479.008 -149.668C485.405 -142.235 496.605 -141.394 504.025 -147.789ZM383.854 45.6384C391.274 39.2436 392.103 28.0345 385.706 20.6021C379.309 13.1698 368.109 12.3287 360.689 18.7235C353.27 25.1183 352.441 36.3274 358.838 43.7598C365.235 51.1921 376.435 52.0332 383.854 45.6384ZM443.304 474.826C438.974 478.559 438.488 485.099 442.22 489.434C445.951 493.77 452.487 494.259 456.817 490.527C461.147 486.794 461.633 480.254 457.901 475.919C454.17 471.583 447.634 471.094 443.304 474.826ZM393.325 314.752C388.995 318.484 388.51 325.025 392.241 329.36C395.973 333.696 402.508 334.185 406.839 330.452C411.169 326.72 411.654 320.18 407.923 315.845C404.191 311.509 397.656 311.02 393.325 314.752ZM324.211 257.119C319.881 260.851 319.395 267.391 323.127 271.727C326.859 276.062 333.394 276.551 337.724 272.819C342.055 269.087 342.54 262.547 338.808 258.211C335.077 253.876 328.542 253.387 324.211 257.119ZM254.455 321.147C250.125 324.879 249.64 331.42 253.371 335.755C257.103 340.091 263.638 340.58 267.968 336.847C272.299 333.115 272.784 326.575 269.053 322.24C265.321 317.904 258.786 317.415 254.455 321.147ZM241.506 580.385C237.176 584.117 236.691 590.657 240.422 594.993C244.154 599.328 250.689 599.817 255.019 596.085C259.35 592.353 259.835 585.813 256.103 581.477C252.372 577.142 245.837 576.653 241.506 580.385ZM-93.652 166.042C-97.9823 169.774 -98.4677 176.314 -94.7362 180.65C-91.0047 184.985 -84.4693 185.474 -80.139 181.742C-75.8087 178.01 -75.3233 171.47 -79.0548 167.134C-82.7863 162.799 -89.3217 162.31 -93.652 166.042ZM44.4561 205.231C48.7864 201.499 55.3218 201.988 59.0534 206.323C62.7849 210.659 62.2995 217.199 57.9692 220.931C53.6389 224.664 47.1035 224.174 43.3719 219.839C39.6404 215.503 40.1258 208.963 44.4561 205.231ZM242.18 196.945C246.51 193.213 253.046 193.702 256.777 198.037C260.509 202.373 260.023 208.913 255.693 212.645C251.363 216.378 244.827 215.889 241.096 211.553C237.364 207.217 237.85 200.677 242.18 196.945ZM87.7721 271.426C92.1024 267.694 98.6378 268.183 102.369 272.518C106.101 276.854 105.615 283.394 101.285 287.126C96.9549 290.858 90.4195 290.369 86.688 286.034C82.9564 281.698 83.4418 275.158 87.7721 271.426ZM323.89 317.95C319.56 321.682 319.075 328.222 322.806 332.558C326.538 336.893 333.073 337.382 337.403 333.65C341.734 329.918 342.219 323.378 338.488 319.042C334.756 314.707 328.221 314.217 323.89 317.95ZM-128.674 143.486C-136.097 149.884 -147.301 149.045 -153.698 141.613C-160.095 134.181 -159.262 122.969 -151.839 116.571C-144.416 110.173 -133.212 111.011 -126.815 118.444C-120.418 125.876 -121.25 137.088 -128.674 143.486ZM80.381 53.1593C72.9576 59.5574 61.754 58.719 55.3571 51.2867C48.9602 43.8543 49.7923 32.6425 57.2157 26.2444C64.639 19.8463 75.8426 20.6848 82.2395 28.1171C88.6364 35.5495 87.8043 46.7612 80.381 53.1593Z" stroke="#F0F3FA" stroke-width="4"/>
</g>
</svg>
