<svg width="200" height="40" viewBox="0 0 200 40" fill="none" xmlns="http://www.w3.org/2000/svg">
<path d="M26.8282 16.4839C26.8282 16.4083 26.9038 16.4083 26.9038 16.3327C26.9038 16.4083 26.8282 16.4839 26.8282 16.4839ZM52.2347 7.93951H31.0626C30.0797 7.86389 29.2479 8.31758 28.9454 9.30057L26.8282 16.4839L28.3405 8.24197C28.643 7.18336 29.4747 6.80529 30.4577 6.80529H32.5749L33.5579 2.34405C33.936 0.982987 33.5579 0 32.0456 0H21.5352C22.2158 0 22.367 0.831758 22.1401 1.5879L19.7961 11.8715H16.3178L18.435 2.34405C18.8131 0.982987 18.435 0 16.9228 0H6.33674C7.01727 0 7.1685 0.831758 6.94166 1.5879L0.136363 31.6824C-0.241709 33.0435 0.136363 34.0265 1.64865 34.0265H12.3103C11.6297 34.0265 11.4785 33.1947 11.7054 32.4386L14.5787 19.6597H18.057L15.3349 31.6824C14.9568 33.0435 15.3349 34.0265 16.8471 34.0265H27.5088C26.8282 34.0265 26.677 33.1947 26.9038 32.4386L30.6846 15.7278H34.0872L29.1723 37.656C28.7942 39.017 29.1723 40 30.6846 40H41.3462C40.6657 40 40.5144 39.1682 40.7413 38.4121L45.8831 15.7278H49.815C50.798 15.8034 51.6297 15.3497 51.9322 14.3667L53.9738 7.25898C53.7469 7.78828 52.5371 7.93951 52.2347 7.93951Z" fill="#2C5EB9"/>
<path d="M66.6017 20.8691C65.6943 21.4741 65.3919 22.3058 65.165 23.2132L62.821 33.4967C62.5941 34.4041 62.5941 35.2359 63.199 35.8408H57.528C58.4353 35.2359 58.7378 34.4041 58.889 33.4967L59.9476 28.8843H56.0157L54.9571 33.4967C54.7302 34.4041 54.6546 35.2359 55.3351 35.8408H49.6641C50.5714 35.2359 50.8739 34.4041 51.0251 33.4967L53.3692 23.2132C53.596 22.3058 53.596 21.4741 52.9911 20.8691H58.6622C57.7548 21.4741 57.4523 22.3058 57.3011 23.2132L56.4694 26.7671H60.4013L61.2331 23.2132C61.4599 22.3058 61.4599 21.4741 60.855 20.8691H66.6017Z" fill="#2C5EB9"/>
<path d="M73.4822 33.9506C74.9945 33.9506 77.3386 32.892 78.1703 29.0356C78.8508 25.9354 78.3215 22.7596 75.675 22.7596C73.7847 22.7596 71.5162 24.1207 70.6845 27.9014C69.7771 32.1358 71.5162 33.9506 73.4822 33.9506ZM76.4312 20.4912C81.2705 20.4912 83.5389 23.8182 82.5559 28.2795C81.573 32.6651 77.7166 36.2946 72.6505 36.2946C67.2062 36.2946 65.6939 32.2871 66.5257 28.5063C67.3575 24.4232 71.0626 20.4912 76.4312 20.4912Z" fill="#2C5EB9"/>
<path d="M92.0801 20.8696C94.7266 20.8696 96.0877 22.6087 95.5584 24.9527C94.8023 28.2798 91.4752 29.7921 88.4507 29.414C90.0386 28.7335 90.9459 27.5992 91.324 25.9357C91.7777 23.8185 90.8703 23.0624 89.8873 23.0624H89.6605L87.3164 33.4215C87.0896 34.3289 87.0896 35.1607 87.6945 35.7656H82.0234C82.9308 35.1607 83.2333 34.3289 83.4601 33.4215L85.8042 23.138C86.031 22.2306 86.1066 21.3989 85.5017 20.7939H92.0801V20.8696Z" fill="#2C5EB9"/>
<path d="M108.27 23.9699C107.438 23.2894 106.38 22.7601 105.094 22.7601C101.087 22.7601 100.104 27.0701 99.9524 27.7506C98.7426 33.1948 101.616 33.8754 103.355 33.8754C104.641 33.8754 106.758 33.1948 108.346 32.4387L106.682 35.4633C105.623 35.8413 104.187 36.2194 101.994 36.2194C96.6254 36.2194 94.735 32.5143 95.718 28.2799C96.7766 23.743 100.709 20.416 105.321 20.416C106.606 20.416 107.816 20.5672 108.799 20.8697L108.27 23.9699Z" fill="#2C5EB9"/>
<path d="M117.186 20.8691C116.278 21.4741 115.976 22.3058 115.749 23.2132L114.085 30.6234L121.118 20.9448H125.428C124.52 21.5497 124.218 22.3814 124.067 23.2888L121.722 33.5724C121.496 34.4797 121.496 35.3115 122.101 35.9164H116.429C117.337 35.3115 117.639 34.4797 117.791 33.5724L119.454 26.2378L112.422 35.9164H108.188C109.095 35.3115 109.397 34.4797 109.549 33.5724L111.893 23.2888C112.044 22.3814 112.119 21.5497 111.515 20.9448H117.186V20.8691Z" fill="#2C5EB9"/>
<path d="M143.045 24.1962C142.893 23.3644 142.062 23.3644 141.457 23.3644H140.096L137.827 33.5724C137.6 34.4797 137.6 35.3115 138.205 35.9164H132.534C133.442 35.3115 133.744 34.4797 133.895 33.5724L136.164 23.3644H134.803C133.82 23.3644 132.912 23.7425 132.156 24.3474L133.744 20.8691C133.895 20.9448 134.047 20.9448 134.273 20.9448H144.028C144.255 20.9448 144.406 20.9448 144.557 20.8691L143.045 24.1962Z" fill="#2C5EB9"/>
<path d="M152.802 20.8696C155.448 20.8696 156.809 22.6087 156.28 24.9527C155.524 28.2798 152.197 29.7921 149.097 29.414C150.684 28.7335 151.592 27.5992 151.97 25.9357C152.424 23.8185 151.516 23.0624 150.458 23.0624H150.231L147.887 33.4215C147.66 34.3289 147.584 35.1607 148.265 35.7656H142.594C143.501 35.1607 143.804 34.3289 143.955 33.4215L146.299 23.138C146.526 22.2306 146.601 21.3989 145.921 20.7939H152.802V20.8696Z" fill="#2C5EB9"/>
<path d="M162.632 29.1867L162.178 24.6499L159.607 29.1867H162.632ZM165.808 20.8691L167.32 33.1943C167.547 35.009 168.152 35.6139 168.454 35.8408H161.876C162.556 35.5383 163.01 34.9334 163.161 34.3285C163.237 34.1017 163.237 33.5724 163.161 33.4211L162.934 31.3039H158.624L157.414 33.4211C157.263 33.7236 157.036 34.1017 156.961 34.4797C156.885 34.7822 156.809 35.3115 157.339 35.8408H152.953C153.936 35.009 154.465 34.4041 155.07 33.1943L160.666 23.2132C160.893 22.9107 161.044 22.5327 161.119 22.079C161.195 21.7009 161.119 21.3228 160.59 20.8691H165.808Z" fill="#2C5EB9"/>
<path d="M186.151 20.8691C185.244 21.4741 184.941 22.3058 184.79 23.2132L182.446 33.4967C182.219 34.4041 182.144 35.2359 182.824 35.8408H177.153C178.06 35.2359 178.363 34.4041 178.514 33.4967L179.573 28.8843H175.641L174.582 33.4967C174.355 34.4041 174.355 35.2359 174.96 35.8408H169.289C170.196 35.2359 170.499 34.4041 170.65 33.4967L172.994 23.2132C173.221 22.3058 173.297 21.4741 172.616 20.8691H178.287C177.455 21.4741 177.077 22.3058 176.926 23.2132L176.094 26.7671H180.026L180.858 23.2132C181.085 22.3058 181.161 21.4741 180.48 20.8691H186.151Z" fill="#2C5EB9"/>
<path d="M198.629 23.9699C197.798 23.2894 196.663 22.7601 195.454 22.7601C191.446 22.7601 190.463 27.0701 190.312 27.7506C189.102 33.1948 191.975 33.8754 193.714 33.8754C195 33.8754 197.117 33.1948 198.705 32.4387L197.041 35.4633C195.983 35.8413 194.546 36.2194 192.353 36.2194C186.985 36.2194 185.094 32.5143 186.077 28.2799C187.136 23.743 191.068 20.416 195.68 20.416C196.966 20.416 198.1 20.5672 199.159 20.8697L198.629 23.9699Z" fill="#2C5EB9"/>
<path d="M131.706 27.3719H127.018C126.413 27.3719 126.186 27.5232 126.035 27.9012L125.43 30.094C125.43 30.094 125.581 29.9428 126.261 29.9428H130.95C131.554 29.9428 131.781 29.7916 131.933 29.4135L132.537 27.2207C132.537 27.2963 132.386 27.3719 131.706 27.3719Z" fill="#2C5EB9"/>
</svg>
