<svg width="100" height="100" viewBox="0 0 100 100" fill="none" xmlns="http://www.w3.org/2000/svg">
<path d="M39.875 16.6667C39.875 15.1939 41.0503 14 42.5 14H50.375C51.8247 14 53 15.1939 53 16.6667V24.6667C53 26.1394 51.8247 27.3333 50.375 27.3333H42.5C41.0503 27.3333 39.875 26.1394 39.875 24.6667V21.4276V16.6667Z" fill="#2C5EB9"/>
<path d="M18.5958 31.1434C17.5707 30.102 17.5707 28.4136 18.5958 27.3722L24.1642 21.7153C25.1894 20.6739 26.8514 20.6739 27.8766 21.7153L31.1923 25.0837L32.8967 26.8152C33.9219 27.8566 33.9219 29.545 32.8967 30.5864L27.3283 36.2433C26.3031 37.2847 24.6411 37.2847 23.616 36.2433L21.9112 34.5115L18.5958 31.1434Z" fill="#2C5EB9"/>
<path d="M22.8149 64.5679C23.84 63.5265 25.502 63.5265 26.5272 64.5679L32.0956 70.2248C33.1208 71.2662 33.1208 72.9546 32.0956 73.996L31.1907 74.9153L27.8757 78.2829C26.8506 79.3243 25.1885 79.3243 24.1634 78.2829L18.5949 72.6261C17.5698 71.5847 17.5698 69.8962 18.5949 68.8548L21.9103 65.4869L22.8149 64.5679Z" fill="#2C5EB9"/>
<path d="M13.625 56.6667C12.1753 56.6667 11 55.4728 11 54V46C11 44.5272 12.1753 43.3333 13.625 43.3333H18.3115H20.1875C21.6372 43.3333 22.8125 44.5272 22.8125 46V54C22.8125 55.4728 21.6372 56.6667 20.1875 56.6667H18.3115H13.625Z" fill="#2C5EB9"/>
<path d="M39.875 75.3333C39.875 73.8606 41.0503 72.6667 42.5 72.6667H50.375C51.8247 72.6667 53 73.8606 53 75.3333V83.3333C53 84.8061 51.8247 86 50.375 86H42.5C41.0503 86 39.875 84.8061 39.875 83.3333V78.5724V75.3333Z" fill="#2C5EB9"/>
<path d="M31.1907 74.9153C33.8309 76.5862 36.756 77.8361 39.875 78.5724V75.3333C39.875 73.8606 41.0503 72.6667 42.5 72.6667H46.2808C34.306 72.6667 24.5012 62.9949 24.1492 50.8353L24.125 50C24.125 49.4367 24.1258 48.8851 24.1273 48.3452C24.1612 36.3971 33.7215 27.3333 45.483 27.3333H42.5C41.0503 27.3333 39.875 26.1394 39.875 24.6667V21.4276C36.7566 22.1638 33.832 23.4133 31.1923 25.0837L32.8967 26.8152C33.9219 27.8566 33.9219 29.545 32.8967 30.5864L27.3283 36.2433C26.3031 37.2847 24.6411 37.2847 23.616 36.2433L21.9112 34.5115C20.2666 37.1935 19.0363 40.1649 18.3115 43.3333H20.1875C21.6372 43.3333 22.8125 44.5272 22.8125 46V54C22.8125 55.4728 21.6372 56.6667 20.1875 56.6667H18.3115C19.0362 59.8344 20.2661 62.8053 21.9103 65.4869L22.8149 64.5679C23.84 63.5265 25.502 63.5265 26.5272 64.5679L32.0956 70.2248C33.1208 71.2662 33.1208 72.9546 32.0956 73.996L31.1907 74.9153Z" fill="#2C5EB9"/>
<path d="M47 68.25C47.6904 68.25 48.25 67.6904 48.25 67C48.25 66.3096 47.6904 65.75 47 65.75V68.25ZM47 34.25C47.6904 34.25 48.25 33.6904 48.25 33C48.25 32.3096 47.6904 31.75 47 31.75V34.25ZM53 31.75C52.3096 31.75 51.75 32.3096 51.75 33C51.75 33.6904 52.3096 34.25 53 34.25V31.75ZM65 33V34.25H65.5178L65.8839 33.8839L65 33ZM53 65.75C52.3096 65.75 51.75 66.3096 51.75 67C51.75 67.6904 52.3096 68.25 53 68.25V65.75ZM65 67L65.8839 66.1161L65.5178 65.75H65V67ZM43 48.75C42.3096 48.75 41.75 49.3096 41.75 50C41.75 50.6904 42.3096 51.25 43 51.25V48.75ZM47 65.75C38.3015 65.75 31.25 58.6985 31.25 50H28.75C28.75 60.0792 36.9208 68.25 47 68.25V65.75ZM31.25 50C31.25 41.3015 38.3015 34.25 47 34.25V31.75C36.9208 31.75 28.75 39.9208 28.75 50H31.25ZM53 34.25H65V31.75H53V34.25ZM65.8839 33.8839L72.8839 26.8839L71.1161 25.1161L64.1161 32.1161L65.8839 33.8839ZM53 68.25H65V65.75H53V68.25ZM64.1161 67.8839L71.1161 74.8839L72.8839 73.1161L65.8839 66.1161L64.1161 67.8839ZM46 58.75C41.1675 58.75 37.25 54.8325 37.25 50H34.75C34.75 56.2132 39.7868 61.25 46 61.25V58.75ZM37.25 50C37.25 45.1675 41.1675 41.25 46 41.25V38.75C39.7868 38.75 34.75 43.7868 34.75 50H37.25ZM46 61.25H78.5V58.75H46V61.25ZM78 38.75H46V41.25H78V38.75ZM43 51.25H60V48.75H43V51.25Z" fill="#B4C5E6"/>
<circle cx="65" cy="50" r="4.75" stroke="#2C5EB9" stroke-width="2.5"/>
<circle cx="83" cy="40" r="4.75" stroke="#2C5EB9" stroke-width="2.5"/>
<circle cx="75" cy="22" r="4.75" stroke="#2C5EB9" stroke-width="2.5"/>
<circle cx="75" cy="78" r="4.75" stroke="#2C5EB9" stroke-width="2.5"/>
<circle cx="83" cy="60" r="4.75" stroke="#2C5EB9" stroke-width="2.5"/>
</svg>
