<svg width="100" height="100" viewBox="0 0 100 100" fill="none" xmlns="http://www.w3.org/2000/svg">
<path fill-rule="evenodd" clip-rule="evenodd" d="M45.1158 22.4752L51.3909 25.768C51.5086 25.8298 51.6373 25.8679 51.7697 25.8803L57.8648 26.4488C58.2512 26.4849 58.5836 26.7374 58.7221 27.1L61.0945 33.3147C61.167 33.5046 61.2946 33.6684 61.4609 33.7852L66.4987 37.3228C66.837 37.5604 66.9983 37.9789 66.9068 38.382L65.5378 44.417C65.5042 44.5653 65.5042 44.7194 65.5378 44.8678L66.9068 50.9027C66.9983 51.3059 66.837 51.7243 66.4987 51.9619L61.4609 55.4995C61.2946 55.6163 61.167 55.7801 61.0945 55.97L58.7264 62.1734C58.5857 62.5419 58.245 62.7961 57.8518 62.826L50.2684 63.4026C50.0911 63.416 49.9205 63.4756 49.7734 63.5755L45.2145 66.6696C44.8691 66.9041 44.4156 66.9041 44.0702 66.6696L39.5113 63.5755C39.3642 63.4756 39.1936 63.416 39.0163 63.4026L31.433 62.826C31.0397 62.7961 30.699 62.5419 30.5583 62.1734L28.1902 55.97C28.1177 55.7801 27.9901 55.6163 27.8238 55.4995L22.786 51.9619C22.4477 51.7243 22.2864 51.3059 22.3779 50.9027L23.7469 44.8678C23.7805 44.7194 23.7805 44.5653 23.7469 44.417L22.3779 38.382C22.2864 37.9789 22.4477 37.5604 22.786 37.3228L27.8238 33.7852C27.9901 33.6684 28.1177 33.5046 28.1902 33.3147L30.5626 27.1C30.7011 26.7374 31.0335 26.4849 31.4199 26.4488L37.515 25.8803C37.6474 25.8679 37.7761 25.8298 37.8939 25.768L44.1689 22.4752C44.4654 22.3196 44.8193 22.3196 45.1158 22.4752ZM44.6424 56.8691C51.395 56.8691 56.8691 51.395 56.8691 44.6424C56.8691 37.8897 51.395 32.4156 44.6424 32.4156C37.8897 32.4156 32.4156 37.8897 32.4156 44.6424C32.4156 51.395 37.8897 56.8691 44.6424 56.8691Z" fill="#B4C5E6"/>
<path d="M88.8063 88.8057C90.3979 87.2141 90.3979 84.6336 88.8063 83.042L71.8512 66.0869C70.1626 68.2265 68.2271 70.1621 66.0876 71.8507L83.0426 88.8057C84.6342 90.3973 87.2147 90.3973 88.8063 88.8057Z" fill="#B4C5E6"/>
<path fill-rule="evenodd" clip-rule="evenodd" d="M10 44.6424C10 63.7748 25.5099 79.2847 44.6424 79.2847C52.7401 79.2847 60.189 76.5063 66.0876 71.8507C68.2271 70.1621 70.1626 68.2265 71.8512 66.0869C76.5065 60.1884 79.2847 52.7398 79.2847 44.6424C79.2847 25.5099 63.7748 10 44.6424 10C25.5099 10 10 25.5099 10 44.6424ZM44.6424 73.1714C60.3985 73.1714 73.1714 60.3985 73.1714 44.6424C73.1714 28.8862 60.3985 16.1134 44.6424 16.1134C28.8862 16.1134 16.1134 28.8862 16.1134 44.6424C16.1134 60.3985 28.8862 73.1714 44.6424 73.1714Z" fill="#B4C5E6"/>
<path d="M39.9223 43.249C39.4342 42.7609 38.6427 42.7609 38.1546 43.249C37.6664 43.7372 37.6664 44.5286 38.1546 45.0168L39.9223 43.249ZM43.4739 48.5684L44.3578 47.6845L43.4739 48.5684ZM43.7674 48.563L42.8514 47.7124L43.7674 48.563ZM51.1623 42.4362C51.632 41.9304 51.6027 41.1394 51.0968 40.6697C50.5909 40.1999 49.8 40.2292 49.3303 40.7351L51.1623 42.4362ZM37.515 25.8803L37.3989 24.6357L37.515 25.8803ZM37.8939 25.768L37.313 24.6612L37.8939 25.768ZM27.8238 33.7852L28.5422 34.8082L27.8238 33.7852ZM28.1902 33.3147L27.0224 32.8689L28.1902 33.3147ZM23.7469 44.8678L24.9659 45.1443H24.9659L23.7469 44.8678ZM23.7469 44.417L24.9659 44.1404L23.7469 44.417ZM28.1902 55.97L27.0224 56.4158L28.1902 55.97ZM27.8238 55.4995L27.1055 56.5225L27.8238 55.4995ZM39.5113 63.5755L40.2133 62.5412L39.5113 63.5755ZM39.0163 63.4026L39.1111 62.1562L39.0163 63.4026ZM50.2684 63.4026L50.1736 62.1562L50.2684 63.4026ZM49.7734 63.5755L50.4754 64.6097L49.7734 63.5755ZM61.4609 55.4995L62.1792 56.5225L61.4609 55.4995ZM61.0945 55.97L59.9267 55.5242L61.0945 55.97ZM65.5378 44.417L66.7569 44.6935L65.5378 44.417ZM65.5378 44.8678L66.7569 44.5912L65.5378 44.8678ZM61.0945 33.3147L59.9267 33.7605L61.0945 33.3147ZM61.4609 33.7852L62.1792 32.7622L61.4609 33.7852ZM51.3909 25.768L50.81 26.8749L51.3909 25.768ZM51.7697 25.8803L51.8858 24.6357L51.7697 25.8803ZM30.5626 27.1L31.7304 27.5458L30.5626 27.1ZM31.4199 26.4488L31.536 27.6934L31.4199 26.4488ZM22.3779 38.382L21.1589 38.6586L22.3779 38.382ZM22.786 37.3228L22.0677 36.2998L22.786 37.3228ZM22.786 51.9619L23.5044 50.9389L22.786 51.9619ZM22.3779 50.9027L21.1589 50.6262H21.1589L22.3779 50.9027ZM31.433 62.826L31.3382 64.0724L31.433 62.826ZM30.5583 62.1734L31.7261 61.7276L30.5583 62.1734ZM45.2145 66.6696L44.5126 65.6354L45.2145 66.6696ZM44.0702 66.6696L43.3682 67.7039L44.0702 66.6696ZM58.7264 62.1734L59.8942 62.6192L58.7264 62.1734ZM57.8518 62.826L57.9465 64.0724L57.8518 62.826ZM66.9068 50.9027L65.6878 51.1792L66.9068 50.9027ZM66.4987 51.9619L65.7803 50.9389L66.4987 51.9619ZM66.4987 37.3228L65.7803 38.3458L66.4987 37.3228ZM66.9068 38.382L65.6878 38.1055L66.9068 38.382ZM57.8648 26.4488L57.7487 27.6934L57.8648 26.4488ZM58.7221 27.1L59.8899 26.6542L58.7221 27.1ZM45.1158 22.4752L45.6966 21.3683L45.1158 22.4752ZM44.1689 22.4752L44.7497 23.582L44.1689 22.4752ZM83.0426 88.8057L82.1587 89.6896L83.0426 88.8057ZM88.8063 83.042L89.6902 82.1581L88.8063 83.042ZM38.1546 45.0168L42.59 49.4523L44.3578 47.6845L39.9223 43.249L38.1546 45.0168ZM44.6833 49.4135L51.1623 42.4362L49.3303 40.7351L42.8514 47.7124L44.6833 49.4135ZM42.59 49.4523C43.1727 50.0349 44.1227 50.0174 44.6833 49.4135L42.8514 47.7124C43.2549 47.2779 43.9385 47.2652 44.3578 47.6845L42.59 49.4523ZM55.6191 44.6424C55.6191 50.7046 50.7046 55.6191 44.6424 55.6191V58.1191C52.0853 58.1191 58.1191 52.0853 58.1191 44.6424H55.6191ZM44.6424 55.6191C38.5801 55.6191 33.6656 50.7046 33.6656 44.6424H31.1656C31.1656 52.0853 37.1994 58.1191 44.6424 58.1191V55.6191ZM33.6656 44.6424C33.6656 38.5801 38.5801 33.6656 44.6424 33.6656V31.1656C37.1994 31.1656 31.1656 37.1994 31.1656 44.6424H33.6656ZM44.6424 33.6656C50.7046 33.6656 55.6191 38.5801 55.6191 44.6424H58.1191C58.1191 37.1994 52.0853 31.1656 44.6424 31.1656V33.6656ZM44.535 23.582L50.81 26.8749L51.9717 24.6612L45.6966 21.3683L44.535 23.582ZM51.6536 27.1249L57.7487 27.6934L57.9809 25.2042L51.8858 24.6357L51.6536 27.1249ZM57.5543 27.5458L59.9267 33.7605L62.2623 32.8689L59.8899 26.6542L57.5543 27.5458ZM60.7425 34.8082L65.7803 38.3458L67.217 36.2998L62.1792 32.7622L60.7425 34.8082ZM65.6878 38.1055L64.3188 44.1404L66.7569 44.6935L68.1258 38.6586L65.6878 38.1055ZM64.3188 45.1443L65.6878 51.1792L68.1258 50.6262L66.7569 44.5912L64.3188 45.1443ZM65.7803 50.9389L60.7425 54.4766L62.1792 56.5225L67.217 52.9849L65.7803 50.9389ZM59.9267 55.5242L57.5586 61.7276L59.8942 62.6192L62.2623 56.4158L59.9267 55.5242ZM57.757 61.5796L50.1736 62.1562L50.3631 64.649L57.9465 64.0724L57.757 61.5796ZM49.0715 62.5412L44.5126 65.6354L45.9165 67.7039L50.4754 64.6097L49.0715 62.5412ZM44.7721 65.6354L40.2133 62.5412L38.8093 64.6097L43.3682 67.7039L44.7721 65.6354ZM39.1111 62.1562L31.5277 61.5796L31.3382 64.0724L38.9216 64.649L39.1111 62.1562ZM31.7261 61.7276L29.358 55.5242L27.0224 56.4158L29.3905 62.6192L31.7261 61.7276ZM28.5422 54.4766L23.5044 50.9389L22.0677 52.9849L27.1055 56.5225L28.5422 54.4766ZM23.5969 51.1792L24.9659 45.1443L22.5278 44.5912L21.1589 50.6262L23.5969 51.1792ZM24.9659 44.1404L23.5969 38.1055L21.1589 38.6586L22.5278 44.6935L24.9659 44.1404ZM23.5044 38.3458L28.5422 34.8082L27.1055 32.7622L22.0677 36.2998L23.5044 38.3458ZM29.358 33.7605L31.7304 27.5458L29.3948 26.6542L27.0224 32.8689L29.358 33.7605ZM31.536 27.6934L37.6311 27.1249L37.3989 24.6357L31.3038 25.2042L31.536 27.6934ZM38.4747 26.8749L44.7497 23.582L43.5881 21.3683L37.313 24.6612L38.4747 26.8749ZM37.6311 27.1249C37.9259 27.0974 38.2125 27.0125 38.4747 26.8749L37.313 24.6612C37.3397 24.6472 37.3689 24.6385 37.3989 24.6357L37.6311 27.1249ZM28.5422 34.8082C28.9125 34.5481 29.1966 34.1833 29.358 33.7605L27.0224 32.8689C27.0388 32.8259 27.0678 32.7887 27.1055 32.7622L28.5422 34.8082ZM24.9659 45.1443C25.0408 44.8139 25.0408 44.4709 24.9659 44.1404L22.5278 44.6935C22.5202 44.6598 22.5202 44.6249 22.5278 44.5912L24.9659 45.1443ZM29.358 55.5242C29.1966 55.1015 28.9125 54.7366 28.5422 54.4766L27.1055 56.5225C27.0678 56.496 27.0388 56.4588 27.0224 56.4158L29.358 55.5242ZM40.2133 62.5412C39.8857 62.3189 39.5058 62.1862 39.1111 62.1562L38.9216 64.649C38.8814 64.6459 38.8426 64.6324 38.8093 64.6097L40.2133 62.5412ZM50.1736 62.1562C49.7789 62.1862 49.3989 62.3189 49.0715 62.5412L50.4754 64.6097C50.4421 64.6324 50.4034 64.6459 50.3631 64.649L50.1736 62.1562ZM60.7425 54.4766C60.3722 54.7366 60.0881 55.1014 59.9267 55.5242L62.2623 56.4158C62.2459 56.4589 62.2169 56.496 62.1792 56.5225L60.7425 54.4766ZM64.3188 44.1404C64.2439 44.4709 64.2439 44.8139 64.3188 45.1443L66.7569 44.5912C66.7645 44.6249 66.7645 44.6598 66.7569 44.6935L64.3188 44.1404ZM59.9267 33.7605C60.0881 34.1833 60.3722 34.5481 60.7425 34.8082L62.1792 32.7622C62.2169 32.7887 62.2459 32.8259 62.2623 32.8689L59.9267 33.7605ZM50.81 26.8749C51.0722 27.0125 51.3588 27.0974 51.6536 27.1249L51.8858 24.6357C51.9158 24.6385 51.945 24.6472 51.9717 24.6612L50.81 26.8749ZM31.7304 27.5458C31.699 27.628 31.6237 27.6853 31.536 27.6934L31.3038 25.2042C30.4433 25.2845 29.7031 25.8467 29.3948 26.6542L31.7304 27.5458ZM23.5969 38.1055C23.6177 38.197 23.5811 38.2919 23.5044 38.3458L22.0677 36.2998C21.3143 36.8289 20.9552 37.7608 21.1589 38.6586L23.5969 38.1055ZM23.5044 50.9389C23.5811 50.9928 23.6177 51.0877 23.5969 51.1792L21.1589 50.6262C20.9552 51.524 21.3143 52.4558 22.0677 52.9849L23.5044 50.9389ZM31.5277 61.5796C31.6169 61.5864 31.6942 61.644 31.7261 61.7276L29.3905 62.6192C29.7037 63.4397 30.4624 64.0058 31.3382 64.0724L31.5277 61.5796ZM44.5126 65.6354C44.5909 65.5822 44.6938 65.5822 44.7721 65.6354L43.3682 67.7039C44.1374 68.226 45.1473 68.226 45.9165 67.7039L44.5126 65.6354ZM57.5586 61.7276C57.5905 61.644 57.6678 61.5864 57.757 61.5796L57.9465 64.0724C58.8223 64.0058 59.581 63.4397 59.8942 62.6192L57.5586 61.7276ZM65.6878 51.1792C65.667 51.0878 65.7036 50.9928 65.7803 50.9389L67.217 52.9849C67.9705 52.4558 68.3295 51.524 68.1258 50.6262L65.6878 51.1792ZM65.7803 38.3458C65.7036 38.2919 65.667 38.197 65.6878 38.1055L68.1258 38.6586C68.3295 37.7607 67.9704 36.8289 67.217 36.2998L65.7803 38.3458ZM57.7487 27.6934C57.6611 27.6853 57.5857 27.628 57.5543 27.5458L59.8899 26.6542C59.5816 25.8467 58.8414 25.2845 57.9809 25.2042L57.7487 27.6934ZM45.6966 21.3683C45.0365 21.0219 44.2482 21.0219 43.5881 21.3683L44.7497 23.582C44.6825 23.6173 44.6022 23.6173 44.535 23.582L45.6966 21.3683ZM71.9214 44.6424C71.9214 59.7081 59.7081 71.9214 44.6424 71.9214V74.4214C61.0888 74.4214 74.4214 61.0888 74.4214 44.6424H71.9214ZM44.6424 71.9214C29.5766 71.9214 17.3634 59.7081 17.3634 44.6424H14.8634C14.8634 61.0888 28.1959 74.4214 44.6424 74.4214V71.9214ZM17.3634 44.6424C17.3634 29.5766 29.5766 17.3634 44.6424 17.3634V14.8634C28.1959 14.8634 14.8634 28.1959 14.8634 44.6424H17.3634ZM44.6424 17.3634C59.7081 17.3634 71.9214 29.5766 71.9214 44.6424H74.4214C74.4214 28.1959 61.0888 14.8634 44.6424 14.8634V17.3634ZM44.6424 78.0347C26.2003 78.0347 11.25 63.0844 11.25 44.6424H8.75C8.75 64.4652 24.8196 80.5347 44.6424 80.5347V78.0347ZM11.25 44.6424C11.25 26.2003 26.2003 11.25 44.6424 11.25V8.75C24.8196 8.75 8.75 24.8196 8.75 44.6424H11.25ZM44.6424 11.25C63.0844 11.25 78.0347 26.2003 78.0347 44.6424H80.5347C80.5347 24.8196 64.4652 8.75 44.6424 8.75V11.25ZM89.6902 89.6896C91.7699 87.6098 91.7699 84.2378 89.6902 82.1581L87.9224 83.9258C89.0259 85.0293 89.0259 86.8183 87.9224 87.9218L89.6902 89.6896ZM82.1587 89.6896C84.2384 91.7693 87.6104 91.7693 89.6902 89.6896L87.9224 87.9218C86.819 89.0253 85.0299 89.0253 83.9264 87.9218L82.1587 89.6896ZM72.8325 66.8613C77.6556 60.7501 80.5347 53.0307 80.5347 44.6424H78.0347C78.0347 52.4489 75.3574 59.6267 70.87 65.3125L72.8325 66.8613ZM44.6424 80.5347C53.0311 80.5347 60.7507 77.6553 66.862 72.8319L65.3132 70.8695C59.6272 75.3572 52.4492 78.0347 44.6424 78.0347V80.5347ZM66.862 72.8319C69.0783 71.0827 71.0833 69.0776 72.8325 66.8613L70.87 65.3125C69.242 67.3753 67.3759 69.2415 65.3132 70.8695L66.862 72.8319ZM64.6935 72.2244L65.2037 72.7346L66.9715 70.9668L66.4613 70.4566L64.6935 72.2244ZM65.2037 72.7346L82.1587 89.6896L83.9264 87.9218L66.9715 70.9668L65.2037 72.7346ZM89.6902 82.1581L72.7351 65.203L70.9674 66.9708L87.9224 83.9258L89.6902 82.1581ZM72.7351 65.203L72.225 64.6929L70.4573 66.4607L70.9674 66.9708L72.7351 65.203Z" fill="#2C5EB9"/>
</svg>
