<svg width="100" height="100" viewBox="0 0 100 100" fill="none" xmlns="http://www.w3.org/2000/svg">
<path d="M49.5 86V49.5L41.9216 62.2885C41.6769 62.7014 41.1735 62.8822 40.722 62.7194L19 54.8852V73.8083C19 74.2245 19.2578 74.5972 19.6472 74.744L49.5 86Z" fill="#B4C5E6"/>
<path d="M49.5 49.5V86L79.3528 74.744C79.7422 74.5972 80 74.2245 80 73.8083V54.8852L58.278 62.7194C57.8265 62.8822 57.3231 62.7014 57.0784 62.2885L49.5 49.5Z" fill="#B4C5E6"/>
<path d="M49.5 14V40.5M49.5 40.5L59.5 30.5M49.5 40.5L39.5 30.5M49.5 49.5V86M49.5 49.5L57.0784 62.2885C57.3231 62.7014 57.8265 62.8822 58.278 62.7194L80 54.8852M49.5 49.5L80 39M49.5 49.5L41.9216 62.2885C41.6769 62.7014 41.1735 62.8822 40.722 62.7194L19 54.8852M49.5 49.5L19 39M49.5 86L79.3528 74.744C79.7422 74.5972 80 74.2245 80 73.8083V54.8852M49.5 86L19.6472 74.744C19.2578 74.5972 19 74.2245 19 73.8083V54.8852M80 39L87.3554 50.9525C87.6878 51.4928 87.4397 52.2021 86.843 52.4173L80 54.8852M80 39L67 34M19 39L11.6446 50.9525C11.3122 51.4928 11.5603 52.2021 12.157 52.4173L19 54.8852M19 39L32 34" stroke="#2C5EB9" stroke-width="2.5" stroke-linecap="round"/>
</svg>
