<svg width="100" height="100" viewBox="0 0 100 100" fill="none" xmlns="http://www.w3.org/2000/svg">
<path d="M68.1176 78.4118L91.1486 65.705C91.6738 65.4152 92 64.8628 92 64.2629V43L83.0441 47.9412V55.2041C83.0441 55.804 82.718 56.3564 82.1927 56.6462L78.2949 58.7967C77.746 59.0996 77.0735 58.7025 77.0735 58.0757V51.2353L68.1176 56.1765V78.4118Z" fill="#B4C5E6"/>
<path d="M92 43L68.9259 29.4738C68.4248 29.18 67.8059 29.172 67.2973 29.4526L58.2353 34.4523L83.0441 47.9412L92 43Z" fill="#B4C5E6"/>
<path d="M44.2353 42.1765L68.1176 56.1765L77.0735 51.2353L52.4706 37.6329L44.2353 42.1765Z" fill="#B4C5E6"/>
<path d="M68.1176 56.1765L44.2353 42.1765V62.4552C44.2353 62.7948 44.4077 63.1113 44.6931 63.2954L68.1176 78.4118V56.1765Z" fill="#B4C5E6"/>
<path d="M70 26V22.65C70 18.425 66.575 15 62.35 15H15.65C11.425 15 8 18.425 8 22.65V78.35C8 82.575 11.425 86 15.65 86H65.5C67.9853 86 70 83.9853 70 81.5V81.5M68.1176 78.4118L91.1486 65.705C91.6738 65.4152 92 64.8628 92 64.2629V43M68.1176 78.4118V56.1765M68.1176 78.4118L44.6931 63.2954C44.4077 63.1113 44.2353 62.7948 44.2353 62.4552V42.1765M92 43L68.9259 29.4738C68.4248 29.18 67.8059 29.172 67.2973 29.4526L58.2353 34.4523M92 43L83.0441 47.9412M44.2353 42.1765L68.1176 56.1765M44.2353 42.1765L52.4706 37.6329M68.1176 56.1765L77.0735 51.2353M77.0735 51.2353V58.0757C77.0735 58.7025 77.746 59.0996 78.2949 58.7967L82.1927 56.6462C82.718 56.3564 83.0441 55.804 83.0441 55.2041V47.9412M77.0735 51.2353L52.4706 37.6329M77.0735 51.2353L83.0441 47.9412M83.0441 47.9412L58.2353 34.4523M58.2353 34.4523L52.4706 37.6329M30.0588 30.7647H38.8824C38.8824 30.7647 43.0411 30.7647 45.7059 30.7647M30.0588 50.8824H39.1176M30.0586 70.8828H45.7059M24.4706 67.7059V74.2941C24.4706 75.2038 23.7332 75.9412 22.8235 75.9412H17.0588C16.1492 75.9412 15.4118 75.2038 15.4118 74.2941V67.7059C15.4118 66.7962 16.1492 66.0588 17.0588 66.0588H22.8235C23.7332 66.0588 24.4706 66.7962 24.4706 67.7059ZM24.4706 47.5882V54.1765C24.4706 55.0861 23.7332 55.8235 22.8235 55.8235H17.0588C16.1492 55.8235 15.4118 55.0861 15.4118 54.1765V47.5882C15.4118 46.6786 16.1492 45.9412 17.0588 45.9412H22.8235C23.7332 45.9412 24.4706 46.6786 24.4706 47.5882ZM24.4706 27.4706V34.0588C24.4706 34.9685 23.7332 35.7059 22.8235 35.7059H17.0588C16.1492 35.7059 15.4118 34.9685 15.4118 34.0588V27.4706C15.4118 26.5609 16.1492 25.8235 17.0588 25.8235H22.8235C23.7332 25.8235 24.4706 26.5609 24.4706 27.4706Z" stroke="#2C5EB9" stroke-width="2.5" stroke-linecap="round"/>
</svg>
