<svg width="100" height="100" viewBox="0 0 100 100" fill="none" xmlns="http://www.w3.org/2000/svg">
<path d="M27.1429 28.8985V56.1974C27.1429 59.6805 29.2159 66.9392 31.7409 69.035M44.7801 78.5104C48.5276 81.6394 51.4724 81.6394 55.2199 78.5104L68.2591 69.035C70.784 66.9392 72.8571 59.6805 72.8571 56.1974V28.8985C72.8571 25.2678 70.3588 24.8311 67.3023 23.5618L50.0953 19.1429M39.2746 50.6614L45.3469 56.7337L61.565 40.5156M50.1335 10L25.7767 15.7665C21.4977 17.4119 18 17.978 18 22.6463V58.0336C18 62.5488 20.9023 71.9582 24.4372 74.675L42.6922 86.958C47.9387 91.014 52.0613 91.014 57.3078 86.958L75.5628 74.675C79.0977 71.9582 82 62.5488 82 58.0336V22.6463C82 17.9397 78.5023 17.3736 74.2233 15.7282L50.1335 10Z" stroke="#2C5EB9" stroke-width="3.42857" stroke-linecap="round" stroke-linejoin="round"/>
</svg>
