<svg width="100" height="100" viewBox="0 0 100 100" fill="none" xmlns="http://www.w3.org/2000/svg">
<path fill-rule="evenodd" clip-rule="evenodd" d="M71.8472 50C71.8472 62.0659 62.0659 71.8472 50 71.8472C37.9341 71.8472 28.1528 62.0659 28.1528 50C28.1528 37.9341 37.9341 28.1528 50 28.1528C62.0659 28.1528 71.8472 37.9341 71.8472 50ZM49.8814 66.8819C59.2299 66.8819 66.7685 59.1642 66.631 49.8168C66.4953 40.591 58.9786 33.1181 49.7518 33.1181C49.5941 33.1181 49.4361 33.1181 49.2778 33.1181C40.3789 33.1181 33.1455 39.8687 33.1198 48.7675C33.1187 49.1697 33.1181 49.5804 33.1181 50L33.1364 50.6221C33.4027 59.6785 40.8212 66.8819 49.8814 66.8819Z" fill="#B4C5E6"/>
<path d="M59.7096 66.7308C58.934 65.9552 58.934 64.6976 59.7096 63.922L63.9228 59.7088C64.6984 58.9332 65.9559 58.9332 66.7316 59.7088L71.0673 64.0446C71.8429 64.8202 71.8429 66.0778 71.0673 66.8534L66.8541 71.0666C66.0785 71.8422 64.821 71.8422 64.0454 71.0666L59.7096 66.7308Z" fill="#B4C5E6"/>
<path d="M64.0442 28.9336C64.8198 28.158 66.0774 28.158 66.853 28.9336L71.0662 33.1468C71.8418 33.9224 71.8418 35.1799 71.0662 35.9556L68.016 39.0057C67.2404 39.7813 65.9829 39.7813 65.2072 39.0057L60.9941 34.7925C60.2184 34.0169 60.2184 32.7594 60.9941 31.9837L64.0442 28.9336Z" fill="#B4C5E6"/>
<path d="M69.8611 54.9653C68.7642 54.9653 67.875 54.0761 67.875 52.9792V47.0208C67.875 45.9239 68.7642 45.0347 69.8611 45.0347H74.8264C75.9233 45.0347 76.8125 45.9239 76.8125 47.0208V52.9792C76.8125 54.0761 75.9233 54.9653 74.8264 54.9653H69.8611Z" fill="#B4C5E6"/>
<path d="M45.0347 25.1736C45.0347 24.0767 45.9239 23.1875 47.0208 23.1875H52.9792C54.0761 23.1875 54.9653 24.0767 54.9653 25.1736V31.1319C54.9653 32.2288 54.0761 33.1181 52.9792 33.1181H47.0208C45.9239 33.1181 45.0347 32.2288 45.0347 31.1319V25.1736Z" fill="#B4C5E6"/>
<path d="M28.9346 35.9558C28.1589 35.1802 28.1589 33.9226 28.9346 33.147L33.1477 28.9338C33.9234 28.1582 35.1809 28.1582 35.9565 28.9338L39.7549 32.7322C40.5305 33.5078 40.5305 34.7653 39.7549 35.5409L35.5417 39.7541C34.7661 40.5297 33.5085 40.5297 32.7329 39.7541L28.9346 35.9558Z" fill="#B4C5E6"/>
<path d="M32.1268 60.8501C32.9024 60.0744 34.16 60.0744 34.9356 60.8501L39.1488 65.0632C39.9244 65.8389 39.9244 67.0964 39.1488 67.872L35.9559 71.0649C35.1803 71.8405 33.9227 71.8405 33.1471 71.0649L28.9339 66.8517C28.1583 66.0761 28.1583 64.8186 28.9339 64.0429L32.1268 60.8501Z" fill="#B4C5E6"/>
<path d="M25.1736 54.9653C24.0767 54.9653 23.1875 54.0761 23.1875 52.9792V47.0208C23.1875 45.9239 24.0767 45.0347 25.1736 45.0347H30.1389C31.2358 45.0347 32.125 45.9239 32.125 47.0208V52.9792C32.125 54.0761 31.2358 54.9653 30.1389 54.9653H25.1736Z" fill="#B4C5E6"/>
<path d="M45.0347 68.8681C45.0347 67.7712 45.9239 66.8819 47.0208 66.8819H52.9792C54.0761 66.8819 54.9653 67.7712 54.9653 68.8681V74.8264C54.9653 75.9233 54.0761 76.8125 52.9792 76.8125H47.0208C45.9239 76.8125 45.0347 75.9233 45.0347 74.8264V68.8681Z" fill="#B4C5E6"/>
<path d="M61.3742 49.9992C61.3742 56.2814 56.2814 61.3742 49.9992 61.3742C43.717 61.3742 38.6242 56.2814 38.6242 49.9992C38.6242 43.717 43.717 38.6242 49.9992 38.6242C56.2814 38.6242 61.3742 43.717 61.3742 49.9992Z" fill="#2C5EB9"/>
<path d="M90.8281 50C90.8281 48.9904 90.0096 48.1719 89 48.1719C87.9904 48.1719 87.1719 48.9904 87.1719 50H90.8281ZM15.329 67.316V65.4879C14.3194 65.4879 13.5009 66.3064 13.5009 67.316H15.329ZM9.17188 50C9.17188 51.0096 9.99035 51.8281 11 51.8281C12.0096 51.8281 12.8281 51.0096 12.8281 50H9.17188ZM89 32.684V34.5121C90.0096 34.5121 90.8281 33.6936 90.8281 32.684H89ZM90.8281 22.4974C90.8281 21.4878 90.0096 20.6693 89 20.6693C87.9904 20.6693 87.1719 21.4878 87.1719 22.4974H90.8281ZM80.9974 30.8559C79.9878 30.8559 79.1693 31.6744 79.1693 32.684C79.1693 33.6936 79.9878 34.5121 80.9974 34.5121V30.8559ZM23.6436 69.1441C24.6532 69.1441 25.4717 68.3256 25.4717 67.316C25.4717 66.3064 24.6532 65.4879 23.6436 65.4879V69.1441ZM13.5009 77.5026C13.5009 78.5122 14.3194 79.3307 15.329 79.3307C16.3386 79.3307 17.1571 78.5122 17.1571 77.5026H13.5009ZM59.5461 49.9992C59.5461 55.2718 55.2718 59.5461 49.9992 59.5461V63.2023C57.2911 63.2023 63.2023 57.2911 63.2023 49.9992H59.5461ZM49.9992 59.5461C44.7266 59.5461 40.4523 55.2718 40.4523 49.9992H36.7961C36.7961 57.2911 42.7073 63.2023 49.9992 63.2023V59.5461ZM40.4523 49.9992C40.4523 44.7266 44.7266 40.4523 49.9992 40.4523V36.7961C42.7073 36.7961 36.7961 42.7073 36.7961 49.9992H40.4523ZM49.9992 40.4523C55.2718 40.4523 59.5461 44.7266 59.5461 49.9992H63.2023C63.2023 42.7073 57.2911 36.7961 49.9992 36.7961V40.4523ZM87.1719 50C87.1719 70.5184 70.5184 87.1719 50 87.1719V90.8281C72.5376 90.8281 90.8281 72.5376 90.8281 50H87.1719ZM50 87.1719C39.8709 87.1719 31.6237 82.0682 25.8197 76.8039C22.9294 74.1823 20.6858 71.5567 19.1663 69.5874C18.4076 68.604 17.8322 67.788 17.4496 67.2228C17.2584 66.9404 17.1155 66.7209 17.0222 66.5749C16.9755 66.502 16.9413 66.4474 16.9196 66.4125C16.9088 66.3951 16.9011 66.3826 16.8965 66.3752C16.8942 66.3715 16.8928 66.369 16.8921 66.3679C16.8917 66.3673 16.8916 66.3671 16.8916 66.3672C16.8916 66.3672 16.8918 66.3675 16.8918 66.3676C16.8921 66.3679 16.8924 66.3684 15.329 67.316C13.7656 68.2636 13.766 68.2642 13.7665 68.2649C13.7667 68.2653 13.7672 68.2661 13.7676 68.2668C13.7684 68.2682 13.7695 68.2699 13.7707 68.272C13.7733 68.2761 13.7766 68.2815 13.7807 68.2883C13.789 68.3017 13.8004 68.3203 13.8151 68.3439C13.8445 68.3911 13.8867 68.4583 13.9415 68.5441C14.0513 68.7158 14.2118 68.9622 14.422 69.2726C14.8422 69.8933 15.4618 70.7713 16.2716 71.8209C17.8892 73.9173 20.2769 76.7127 23.3633 79.5121C29.5128 85.0898 38.6011 90.8281 50 90.8281V87.1719ZM12.8281 50C12.8281 29.4769 29.3304 12.8281 50 12.8281V9.17188C27.3016 9.17188 9.17188 27.4671 9.17188 50H12.8281ZM50 12.8281C62.4637 12.8281 71.8136 18.0151 78.0838 23.2458C81.22 25.8621 83.572 28.4791 85.136 30.4369C85.9172 31.4148 86.4995 32.2254 86.8827 32.785C87.0742 33.0647 87.2157 33.2815 87.3073 33.4247C87.353 33.4964 87.3863 33.5496 87.407 33.5832C87.4174 33.5999 87.4246 33.6118 87.4287 33.6185C87.4308 33.6219 87.4321 33.624 87.4325 33.6248C87.4328 33.6252 87.4328 33.6253 87.4327 33.625C87.4326 33.6249 87.4324 33.6245 87.4323 33.6244C87.432 33.6239 87.4316 33.6233 89 32.684C90.5684 31.7447 90.5679 31.7439 90.5674 31.7431C90.5672 31.7427 90.5666 31.7418 90.5661 31.741C90.5652 31.7394 90.564 31.7375 90.5627 31.7353C90.56 31.7309 90.5565 31.7251 90.5522 31.718C90.5437 31.7039 90.5319 31.6847 90.5169 31.6604C90.4869 31.6119 90.444 31.5434 90.3883 31.4562C90.2769 31.2819 90.1141 31.0327 89.8996 30.7195C89.4709 30.0933 88.8354 29.2098 87.9926 28.1548C86.3087 26.0469 83.7881 23.2429 80.4259 20.4382C73.6994 14.8269 63.5493 9.17188 50 9.17188V12.8281ZM89 32.684C90.8281 32.684 90.8281 32.684 90.8281 32.684C90.8281 32.684 90.8281 32.6839 90.8281 32.6839C90.8281 32.6838 90.8281 32.6838 90.8281 32.6837C90.8281 32.6837 90.8281 32.6836 90.8281 32.6835C90.8281 32.6834 90.8281 32.6834 90.8281 32.6833C90.8281 32.6832 90.8281 32.6831 90.8281 32.6829C90.8281 32.6828 90.8281 32.6827 90.8281 32.6826C90.8281 32.6824 90.8281 32.6823 90.8281 32.6821C90.8281 32.6819 90.8281 32.6818 90.8281 32.6816C90.8281 32.6814 90.8281 32.6812 90.8281 32.681C90.8281 32.6808 90.8281 32.6806 90.8281 32.6804C90.8281 32.6802 90.8281 32.68 90.8281 32.6797C90.8281 32.6795 90.8281 32.6792 90.8281 32.679C90.8281 32.6787 90.8281 32.6785 90.8281 32.6782C90.8281 32.6779 90.8281 32.6776 90.8281 32.6773C90.8281 32.677 90.8281 32.6767 90.8281 32.6764C90.8281 32.6761 90.8281 32.6757 90.8281 32.6754C90.8281 32.6751 90.8281 32.6747 90.8281 32.6744C90.8281 32.674 90.8281 32.6736 90.8281 32.6733C90.8281 32.6729 90.8281 32.6725 90.8281 32.6721C90.8281 32.6717 90.8281 32.6713 90.8281 32.6709C90.8281 32.6704 90.8281 32.67 90.8281 32.6696C90.8281 32.6691 90.8281 32.6687 90.8281 32.6682C90.8281 32.6677 90.8281 32.6673 90.8281 32.6668C90.8281 32.6663 90.8281 32.6658 90.8281 32.6653C90.8281 32.6648 90.8281 32.6643 90.8281 32.6638C90.8281 32.6633 90.8281 32.6627 90.8281 32.6622C90.8281 32.6616 90.8281 32.6611 90.8281 32.6605C90.8281 32.66 90.8281 32.6594 90.8281 32.6588C90.8281 32.6582 90.8281 32.6576 90.8281 32.657C90.8281 32.6564 90.8281 32.6558 90.8281 32.6552C90.8281 32.6545 90.8281 32.6539 90.8281 32.6533C90.8281 32.6526 90.8281 32.652 90.8281 32.6513C90.8281 32.6506 90.8281 32.6499 90.8281 32.6493C90.8281 32.6486 90.8281 32.6479 90.8281 32.6472C90.8281 32.6465 90.8281 32.6457 90.8281 32.645C90.8281 32.6443 90.8281 32.6435 90.8281 32.6428C90.8281 32.642 90.8281 32.6413 90.8281 32.6405C90.8281 32.6397 90.8281 32.6389 90.8281 32.6381C90.8281 32.6374 90.8281 32.6366 90.8281 32.6357C90.8281 32.6349 90.8281 32.6341 90.8281 32.6333C90.8281 32.6324 90.8281 32.6316 90.8281 32.6307C90.8281 32.6299 90.8281 32.629 90.8281 32.6281C90.8281 32.6272 90.8281 32.6264 90.8281 32.6255C90.8281 32.6246 90.8281 32.6237 90.8281 32.6227C90.8281 32.6218 90.8281 32.6209 90.8281 32.6199C90.8281 32.619 90.8281 32.618 90.8281 32.6171C90.8281 32.6161 90.8281 32.6151 90.8281 32.6142C90.8281 32.6132 90.8281 32.6122 90.8281 32.6112C90.8281 32.6102 90.8281 32.6092 90.8281 32.6081C90.8281 32.6071 90.8281 32.6061 90.8281 32.605C90.8281 32.604 90.8281 32.6029 90.8281 32.6018C90.8281 32.6008 90.8281 32.5997 90.8281 32.5986C90.8281 32.5975 90.8281 32.5964 90.8281 32.5953C90.8281 32.5942 90.8281 32.5931 90.8281 32.5919C90.8281 32.5908 90.8281 32.5896 90.8281 32.5885C90.8281 32.5873 90.8281 32.5862 90.8281 32.585C90.8281 32.5838 90.8281 32.5826 90.8281 32.5814C90.8281 32.5802 90.8281 32.579 90.8281 32.5778C90.8281 32.5766 90.8281 32.5753 90.8281 32.5741C90.8281 32.5728 90.8281 32.5716 90.8281 32.5703C90.8281 32.5691 90.8281 32.5678 90.8281 32.5665C90.8281 32.5652 90.8281 32.5639 90.8281 32.5626C90.8281 32.5613 90.8281 32.56 90.8281 32.5586C90.8281 32.5573 90.8281 32.556 90.8281 32.5546C90.8281 32.5533 90.8281 32.5519 90.8281 32.5505C90.8281 32.5491 90.8281 32.5478 90.8281 32.5464C90.8281 32.545 90.8281 32.5436 90.8281 32.5421C90.8281 32.5407 90.8281 32.5393 90.8281 32.5378C90.8281 32.5364 90.8281 32.535 90.8281 32.5335C90.8281 32.532 90.8281 32.5306 90.8281 32.5291C90.8281 32.5276 90.8281 32.5261 90.8281 32.5246C90.8281 32.5231 90.8281 32.5215 90.8281 32.52C90.8281 32.5185 90.8281 32.5169 90.8281 32.5154C90.8281 32.5138 90.8281 32.5123 90.8281 32.5107C90.8281 32.5091 90.8281 32.5075 90.8281 32.5059C90.8281 32.5043 90.8281 32.5027 90.8281 32.5011C90.8281 32.4995 90.8281 32.4979 90.8281 32.4962C90.8281 32.4946 90.8281 32.4929 90.8281 32.4913C90.8281 32.4896 90.8281 32.4879 90.8281 32.4862C90.8281 32.4846 90.8281 32.4829 90.8281 32.4811C90.8281 32.4794 90.8281 32.4777 90.8281 32.476C90.8281 32.4742 90.8281 32.4725 90.8281 32.4707C90.8281 32.469 90.8281 32.4672 90.8281 32.4654C90.8281 32.4637 90.8281 32.4619 90.8281 32.4601C90.8281 32.4583 90.8281 32.4565 90.8281 32.4546C90.8281 32.4528 90.8281 32.451 90.8281 32.4491C90.8281 32.4473 90.8281 32.4454 90.8281 32.4436C90.8281 32.4417 90.8281 32.4398 90.8281 32.4379C90.8281 32.436 90.8281 32.4341 90.8281 32.4322C90.8281 32.4303 90.8281 32.4284 90.8281 32.4264C90.8281 32.4245 90.8281 32.4225 90.8281 32.4206C90.8281 32.4186 90.8281 32.4167 90.8281 32.4147C90.8281 32.4127 90.8281 32.4107 90.8281 32.4087C90.8281 32.4067 90.8281 32.4047 90.8281 32.4026C90.8281 32.4006 90.8281 32.3986 90.8281 32.3965C90.8281 32.3945 90.8281 32.3924 90.8281 32.3903C90.8281 32.3882 90.8281 32.3861 90.8281 32.384C90.8281 32.3819 90.8281 32.3798 90.8281 32.3777C90.8281 32.3756 90.8281 32.3735 90.8281 32.3713C90.8281 32.3692 90.8281 32.367 90.8281 32.3648C90.8281 32.3627 90.8281 32.3605 90.8281 32.3583C90.8281 32.3561 90.8281 32.3539 90.8281 32.3517C90.8281 32.3495 90.8281 32.3472 90.8281 32.345C90.8281 32.3428 90.8281 32.3405 90.8281 32.3382C90.8281 32.336 90.8281 32.3337 90.8281 32.3314C90.8281 32.3291 90.8281 32.3268 90.8281 32.3245C90.8281 32.3222 90.8281 32.3199 90.8281 32.3176C90.8281 32.3152 90.8281 32.3129 90.8281 32.3105C90.8281 32.3082 90.8281 32.3058 90.8281 32.3034C90.8281 32.301 90.8281 32.2986 90.8281 32.2962C90.8281 32.2938 90.8281 32.2914 90.8281 32.289C90.8281 32.2866 90.8281 32.2841 90.8281 32.2817C90.8281 32.2792 90.8281 32.2768 90.8281 32.2743C90.8281 32.2718 90.8281 32.2693 90.8281 32.2668C90.8281 32.2643 90.8281 32.2618 90.8281 32.2593C90.8281 32.2568 90.8281 32.2542 90.8281 32.2517C90.8281 32.2491 90.8281 32.2466 90.8281 32.244C90.8281 32.2414 90.8281 32.2388 90.8281 32.2362C90.8281 32.2337 90.8281 32.231 90.8281 32.2284C90.8281 32.2258 90.8281 32.2232 90.8281 32.2205C90.8281 32.2179 90.8281 32.2152 90.8281 32.2126C90.8281 32.2099 90.8281 32.2072 90.8281 32.2045C90.8281 32.2018 90.8281 32.1991 90.8281 32.1964C90.8281 32.1937 90.8281 32.191 90.8281 32.1882C90.8281 32.1855 90.8281 32.1827 90.8281 32.18C90.8281 32.1772 90.8281 32.1744 90.8281 32.1716C90.8281 32.1689 90.8281 32.1661 90.8281 32.1632C90.8281 32.1604 90.8281 32.1576 90.8281 32.1548C90.8281 32.1519 90.8281 32.1491 90.8281 32.1462C90.8281 32.1434 90.8281 32.1405 90.8281 32.1376C90.8281 32.1347 90.8281 32.1318 90.8281 32.1289C90.8281 32.126 90.8281 32.1231 90.8281 32.1201C90.8281 32.1172 90.8281 32.1142 90.8281 32.1113C90.8281 32.1083 90.8281 32.1054 90.8281 32.1024C90.8281 32.0994 90.8281 32.0964 90.8281 32.0934C90.8281 32.0904 90.8281 32.0874 90.8281 32.0843C90.8281 32.0813 90.8281 32.0782 90.8281 32.0752C90.8281 32.0721 90.8281 32.0691 90.8281 32.066C90.8281 32.0629 90.8281 32.0598 90.8281 32.0567C90.8281 32.0536 90.8281 32.0505 90.8281 32.0473C90.8281 32.0442 90.8281 32.041 90.8281 32.0379C90.8281 32.0347 90.8281 32.0316 90.8281 32.0284C90.8281 32.0252 90.8281 32.022 90.8281 32.0188C90.8281 32.0156 90.8281 32.0124 90.8281 32.0091C90.8281 32.0059 90.8281 32.0027 90.8281 31.9994C90.8281 31.9962 90.8281 31.9929 90.8281 31.9896C90.8281 31.9863 90.8281 31.983 90.8281 31.9797C90.8281 31.9764 90.8281 31.9731 90.8281 31.9698C90.8281 31.9664 90.8281 31.9631 90.8281 31.9597C90.8281 31.9564 90.8281 31.953 90.8281 31.9496C90.8281 31.9462 90.8281 31.9428 90.8281 31.9394C90.8281 31.936 90.8281 31.9326 90.8281 31.9292C90.8281 31.9257 90.8281 31.9223 90.8281 31.9188C90.8281 31.9154 90.8281 31.9119 90.8281 31.9084C90.8281 31.9049 90.8281 31.9014 90.8281 31.8979C90.8281 31.8944 90.8281 31.8909 90.8281 31.8874C90.8281 31.8838 90.8281 31.8803 90.8281 31.8767C90.8281 31.8732 90.8281 31.8696 90.8281 31.866C90.8281 31.8624 90.8281 31.8588 90.8281 31.8552C90.8281 31.8516 90.8281 31.848 90.8281 31.8444C90.8281 31.8407 90.8281 31.8371 90.8281 31.8334C90.8281 31.8297 90.8281 31.8261 90.8281 31.8224C90.8281 31.8187 90.8281 31.815 90.8281 31.8113C90.8281 31.8076 90.8281 31.8038 90.8281 31.8001C90.8281 31.7964 90.8281 31.7926 90.8281 31.7889C90.8281 31.7851 90.8281 31.7813 90.8281 31.7775C90.8281 31.7737 90.8281 31.7699 90.8281 31.7661C90.8281 31.7623 90.8281 31.7585 90.8281 31.7546C90.8281 31.7508 90.8281 31.7469 90.8281 31.7431C90.8281 31.7392 90.8281 31.7353 90.8281 31.7314C90.8281 31.7275 90.8281 31.7236 90.8281 31.7197C90.8281 31.7158 90.8281 31.7119 90.8281 31.7079C90.8281 31.704 90.8281 31.7 90.8281 31.696C90.8281 31.6921 90.8281 31.6881 90.8281 31.6841C90.8281 31.6801 90.8281 31.6761 90.8281 31.672C90.8281 31.668 90.8281 31.664 90.8281 31.6599C90.8281 31.6559 90.8281 31.6518 90.8281 31.6477C90.8281 31.6437 90.8281 31.6396 90.8281 31.6355C90.8281 31.6314 90.8281 31.6273 90.8281 31.6231C90.8281 31.619 90.8281 31.6149 90.8281 31.6107C90.8281 31.6066 90.8281 31.6024 90.8281 31.5982C90.8281 31.594 90.8281 31.5898 90.8281 31.5856C90.8281 31.5814 90.8281 31.5772 90.8281 31.573C90.8281 31.5687 90.8281 31.5645 90.8281 31.5602C90.8281 31.556 90.8281 31.5517 90.8281 31.5474C90.8281 31.5431 90.8281 31.5388 90.8281 31.5345C90.8281 31.5302 90.8281 31.5259 90.8281 31.5215C90.8281 31.5172 90.8281 31.5128 90.8281 31.5085C90.8281 31.5041 90.8281 31.4997 90.8281 31.4953C90.8281 31.4909 90.8281 31.4865 90.8281 31.4821C90.8281 31.4777 90.8281 31.4733 90.8281 31.4688C90.8281 31.4644 90.8281 31.4599 90.8281 31.4555C90.8281 31.451 90.8281 31.4465 90.8281 31.442C90.8281 31.4375 90.8281 31.433 90.8281 31.4285C90.8281 31.4239 90.8281 31.4194 90.8281 31.4148C90.8281 31.4103 90.8281 31.4057 90.8281 31.4011C90.8281 31.3966 90.8281 31.392 90.8281 31.3874C90.8281 31.3828 90.8281 31.3781 90.8281 31.3735C90.8281 31.3689 90.8281 31.3642 90.8281 31.3596C90.8281 31.3549 90.8281 31.3502 90.8281 31.3455C90.8281 31.3408 90.8281 31.3361 90.8281 31.3314C90.8281 31.3267 90.8281 31.322 90.8281 31.3172C90.8281 31.3125 90.8281 31.3078 90.8281 31.303C90.8281 31.2982 90.8281 31.2934 90.8281 31.2886C90.8281 31.2838 90.8281 31.279 90.8281 31.2742C90.8281 31.2694 90.8281 31.2645 90.8281 31.2597C90.8281 31.2548 90.8281 31.25 90.8281 31.2451C90.8281 31.2402 90.8281 31.2353 90.8281 31.2304C90.8281 31.2255 90.8281 31.2206 90.8281 31.2157C90.8281 31.2107 90.8281 31.2058 90.8281 31.2008C90.8281 31.1959 90.8281 31.1909 90.8281 31.1859C90.8281 31.1809 90.8281 31.1759 90.8281 31.1709C90.8281 31.1659 90.8281 31.1609 90.8281 31.1558C90.8281 31.1508 90.8281 31.1457 90.8281 31.1407C90.8281 31.1356 90.8281 31.1305 90.8281 31.1254C90.8281 31.1203 90.8281 31.1152 90.8281 31.1101C90.8281 31.105 90.8281 31.0998 90.8281 31.0947C90.8281 31.0895 90.8281 31.0844 90.8281 31.0792C90.8281 31.074 90.8281 31.0688 90.8281 31.0636C90.8281 31.0584 90.8281 31.0532 90.8281 31.0479C90.8281 31.0427 90.8281 31.0374 90.8281 31.0322C90.8281 31.0269 90.8281 31.0216 90.8281 31.0163C90.8281 31.0111 90.8281 31.0058 90.8281 31.0004C90.8281 30.9951 90.8281 30.9898 90.8281 30.9844C90.8281 30.9791 90.8281 30.9737 90.8281 30.9684C90.8281 30.963 90.8281 30.9576 90.8281 30.9522C90.8281 30.9468 90.8281 30.9414 90.8281 30.9359C90.8281 30.9305 90.8281 30.9251 90.8281 30.9196C90.8281 30.9141 90.8281 30.9087 90.8281 30.9032C90.8281 30.8977 90.8281 30.8922 90.8281 30.8867C90.8281 30.8812 90.8281 30.8756 90.8281 30.8701C90.8281 30.8646 90.8281 30.859 90.8281 30.8534C90.8281 30.8479 90.8281 30.8423 90.8281 30.8367C90.8281 30.8311 90.8281 30.8255 90.8281 30.8198C90.8281 30.8142 90.8281 30.8086 90.8281 30.8029C90.8281 30.7973 90.8281 30.7916 90.8281 30.7859C90.8281 30.7802 90.8281 30.7745 90.8281 30.7688C90.8281 30.7631 90.8281 30.7574 90.8281 30.7516C90.8281 30.7459 90.8281 30.7401 90.8281 30.7344C90.8281 30.7286 90.8281 30.7228 90.8281 30.717C90.8281 30.7112 90.8281 30.7054 90.8281 30.6996C90.8281 30.6937 90.8281 30.6879 90.8281 30.682C90.8281 30.6762 90.8281 30.6703 90.8281 30.6644C90.8281 30.6586 90.8281 30.6527 90.8281 30.6467C90.8281 30.6408 90.8281 30.6349 90.8281 30.629C90.8281 30.623 90.8281 30.6171 90.8281 30.6111C90.8281 30.6051 90.8281 30.5991 90.8281 30.5932C90.8281 30.5872 90.8281 30.5811 90.8281 30.5751C90.8281 30.5691 90.8281 30.563 90.8281 30.557C90.8281 30.5509 90.8281 30.5449 90.8281 30.5388C90.8281 30.5327 90.8281 30.5266 90.8281 30.5205C90.8281 30.5144 90.8281 30.5082 90.8281 30.5021C90.8281 30.496 90.8281 30.4898 90.8281 30.4836C90.8281 30.4775 90.8281 30.4713 90.8281 30.4651C90.8281 30.4589 90.8281 30.4527 90.8281 30.4464C90.8281 30.4402 90.8281 30.434 90.8281 30.4277C90.8281 30.4214 90.8281 30.4152 90.8281 30.4089C90.8281 30.4026 90.8281 30.3963 90.8281 30.39C90.8281 30.3836 90.8281 30.3773 90.8281 30.371C90.8281 30.3646 90.8281 30.3583 90.8281 30.3519C90.8281 30.3455 90.8281 30.3391 90.8281 30.3327C90.8281 30.3263 90.8281 30.3199 90.8281 30.3135C90.8281 30.307 90.8281 30.3006 90.8281 30.2941C90.8281 30.2877 90.8281 30.2812 90.8281 30.2747C90.8281 30.2682 90.8281 30.2617 90.8281 30.2552C90.8281 30.2486 90.8281 30.2421 90.8281 30.2356C90.8281 30.229 90.8281 30.2224 90.8281 30.2159C90.8281 30.2093 90.8281 30.2027 90.8281 30.1961C90.8281 30.1895 90.8281 30.1828 90.8281 30.1762C90.8281 30.1696 90.8281 30.1629 90.8281 30.1562C90.8281 30.1496 90.8281 30.1429 90.8281 30.1362C90.8281 30.1295 90.8281 30.1228 90.8281 30.116C90.8281 30.1093 90.8281 30.1026 90.8281 30.0958C90.8281 30.0891 90.8281 30.0823 90.8281 30.0755C90.8281 30.0687 90.8281 30.0619 90.8281 30.0551C90.8281 30.0483 90.8281 30.0414 90.8281 30.0346C90.8281 30.0277 90.8281 30.0209 90.8281 30.014C90.8281 30.0071 90.8281 30.0002 90.8281 29.9933C90.8281 29.9864 90.8281 29.9795 90.8281 29.9726C90.8281 29.9656 90.8281 29.9587 90.8281 29.9517C90.8281 29.9447 90.8281 29.9377 90.8281 29.9307C90.8281 29.9237 90.8281 29.9167 90.8281 29.9097C90.8281 29.9027 90.8281 29.8956 90.8281 29.8886C90.8281 29.8815 90.8281 29.8745 90.8281 29.8674C90.8281 29.8603 90.8281 29.8532 90.8281 29.8461C90.8281 29.8389 90.8281 29.8318 90.8281 29.8247C90.8281 29.8175 90.8281 29.8104 90.8281 29.8032C90.8281 29.796 90.8281 29.7888 90.8281 29.7816C90.8281 29.7744 90.8281 29.7672 90.8281 29.7599C90.8281 29.7527 90.8281 29.7454 90.8281 29.7382C90.8281 29.7309 90.8281 29.7236 90.8281 29.7163C90.8281 29.709 90.8281 29.7017 90.8281 29.6944C90.8281 29.687 90.8281 29.6797 90.8281 29.6723C90.8281 29.665 90.8281 29.6576 90.8281 29.6502C90.8281 29.6428 90.8281 29.6354 90.8281 29.628C90.8281 29.6206 90.8281 29.6131 90.8281 29.6057C90.8281 29.5982 90.8281 29.5908 90.8281 29.5833C90.8281 29.5758 90.8281 29.5683 90.8281 29.5608C90.8281 29.5533 90.8281 29.5458 90.8281 29.5382C90.8281 29.5307 90.8281 29.5231 90.8281 29.5155C90.8281 29.508 90.8281 29.5004 90.8281 29.4928C90.8281 29.4852 90.8281 29.4775 90.8281 29.4699C90.8281 29.4623 90.8281 29.4546 90.8281 29.447C90.8281 29.4393 90.8281 29.4316 90.8281 29.4239C90.8281 29.4162 90.8281 29.4085 90.8281 29.4008C90.8281 29.393 90.8281 29.3853 90.8281 29.3775C90.8281 29.3698 90.8281 29.362 90.8281 29.3542C90.8281 29.3464 90.8281 29.3386 90.8281 29.3308C90.8281 29.323 90.8281 29.3151 90.8281 29.3073C90.8281 29.2994 90.8281 29.2916 90.8281 29.2837C90.8281 29.2758 90.8281 29.2679 90.8281 29.26C90.8281 29.2521 90.8281 29.2441 90.8281 29.2362C90.8281 29.2283 90.8281 29.2203 90.8281 29.2123C90.8281 29.2043 90.8281 29.1964 90.8281 29.1883C90.8281 29.1803 90.8281 29.1723 90.8281 29.1643C90.8281 29.1562 90.8281 29.1482 90.8281 29.1401C90.8281 29.132 90.8281 29.124 90.8281 29.1159C90.8281 29.1078 90.8281 29.0996 90.8281 29.0915C90.8281 29.0834 90.8281 29.0752 90.8281 29.0671C90.8281 29.0589 90.8281 29.0507 90.8281 29.0425C90.8281 29.0343 90.8281 29.0261 90.8281 29.0179C90.8281 29.0097 90.8281 29.0014 90.8281 28.9932C90.8281 28.9849 90.8281 28.9766 90.8281 28.9683C90.8281 28.96 90.8281 28.9517 90.8281 28.9434C90.8281 28.9351 90.8281 28.9268 90.8281 28.9184C90.8281 28.9101 90.8281 28.9017 90.8281 28.8933C90.8281 28.8849 90.8281 28.8765 90.8281 28.8681C90.8281 28.8597 90.8281 28.8512 90.8281 28.8428C90.8281 28.8344 90.8281 28.8259 90.8281 28.8174C90.8281 28.8089 90.8281 28.8004 90.8281 28.7919C90.8281 28.7834 90.8281 28.7749 90.8281 28.7663C90.8281 28.7578 90.8281 28.7492 90.8281 28.7407C90.8281 28.7321 90.8281 28.7235 90.8281 28.7149C90.8281 28.7063 90.8281 28.6977 90.8281 28.689C90.8281 28.6804 90.8281 28.6717 90.8281 28.663C90.8281 28.6544 90.8281 28.6457 90.8281 28.637C90.8281 28.6283 90.8281 28.6196 90.8281 28.6108C90.8281 28.6021 90.8281 28.5933 90.8281 28.5846C90.8281 28.5758 90.8281 28.567 90.8281 28.5582C90.8281 28.5494 90.8281 28.5406 90.8281 28.5318C90.8281 28.5229 90.8281 28.5141 90.8281 28.5052C90.8281 28.4964 90.8281 28.4875 90.8281 28.4786C90.8281 28.4697 90.8281 28.4608 90.8281 28.4519C90.8281 28.4429 90.8281 28.434 90.8281 28.425C90.8281 28.4161 90.8281 28.4071 90.8281 28.3981C90.8281 28.3891 90.8281 28.3801 90.8281 28.3711C90.8281 28.362 90.8281 28.353 90.8281 28.3439C90.8281 28.3349 90.8281 28.3258 90.8281 28.3167C90.8281 28.3076 90.8281 28.2985 90.8281 28.2894C90.8281 28.2803 90.8281 28.2711 90.8281 28.262C90.8281 28.2528 90.8281 28.2436 90.8281 28.2345C90.8281 28.2253 90.8281 28.2161 90.8281 28.2068C90.8281 28.1976 90.8281 28.1884 90.8281 28.1791C90.8281 28.1699 90.8281 28.1606 90.8281 28.1513C90.8281 28.142 90.8281 28.1327 90.8281 28.1234C90.8281 28.1141 90.8281 28.1048 90.8281 28.0954C90.8281 28.0861 90.8281 28.0767 90.8281 28.0673C90.8281 28.0579 90.8281 28.0485 90.8281 28.0391C90.8281 28.0297 90.8281 28.0203 90.8281 28.0108C90.8281 28.0014 90.8281 27.9919 90.8281 27.9824C90.8281 27.9729 90.8281 27.9634 90.8281 27.9539C90.8281 27.9444 90.8281 27.9349 90.8281 27.9253C90.8281 27.9158 90.8281 27.9062 90.8281 27.8966C90.8281 27.887 90.8281 27.8774 90.8281 27.8678C90.8281 27.8582 90.8281 27.8486 90.8281 27.8389C90.8281 27.8293 90.8281 27.8196 90.8281 27.8099C90.8281 27.8003 90.8281 27.7906 90.8281 27.7808C90.8281 27.7711 90.8281 27.7614 90.8281 27.7517C90.8281 27.7419 90.8281 27.7321 90.8281 27.7224C90.8281 27.7126 90.8281 27.7028 90.8281 27.693C90.8281 27.6832 90.8281 27.6733 90.8281 27.6635C90.8281 27.6536 90.8281 27.6438 90.8281 27.6339C90.8281 27.624 90.8281 27.6141 90.8281 27.6042C90.8281 27.5943 90.8281 27.5844 90.8281 27.5744C90.8281 27.5645 90.8281 27.5545 90.8281 27.5445C90.8281 27.5345 90.8281 27.5245 90.8281 27.5145C90.8281 27.5045 90.8281 27.4945 90.8281 27.4844C90.8281 27.4744 90.8281 27.4643 90.8281 27.4542C90.8281 27.4442 90.8281 27.4341 90.8281 27.4239C90.8281 27.4138 90.8281 27.4037 90.8281 27.3935C90.8281 27.3834 90.8281 27.3732 90.8281 27.3631C90.8281 27.3529 90.8281 27.3427 90.8281 27.3325C90.8281 27.3222 90.8281 27.312 90.8281 27.3018C90.8281 27.2915 90.8281 27.2812 90.8281 27.271C90.8281 27.2607 90.8281 27.2504 90.8281 27.2401C90.8281 27.2297 90.8281 27.2194 90.8281 27.2091C90.8281 27.1987 90.8281 27.1883 90.8281 27.1779C90.8281 27.1676 90.8281 27.1572 90.8281 27.1467C90.8281 27.1363 90.8281 27.1259 90.8281 27.1154C90.8281 27.105 90.8281 27.0945 90.8281 27.084C90.8281 27.0735 90.8281 27.063 90.8281 27.0525C90.8281 27.042 90.8281 27.0315 90.8281 27.0209C90.8281 27.0103 90.8281 26.9998 90.8281 26.9892C90.8281 26.9786 90.8281 26.968 90.8281 26.9574C90.8281 26.9467 90.8281 26.9361 90.8281 26.9254C90.8281 26.9148 90.8281 26.9041 90.8281 26.8934C90.8281 26.8827 90.8281 26.872 90.8281 26.8613C90.8281 26.8506 90.8281 26.8398 90.8281 26.8291C90.8281 26.8183 90.8281 26.8075 90.8281 26.7967C90.8281 26.7859 90.8281 26.7751 90.8281 26.7643C90.8281 26.7535 90.8281 26.7426 90.8281 26.7318C90.8281 26.7209 90.8281 26.71 90.8281 26.6991C90.8281 26.6882 90.8281 26.6773 90.8281 26.6664C90.8281 26.6554 90.8281 26.6445 90.8281 26.6335C90.8281 26.6226 90.8281 26.6116 90.8281 26.6006C90.8281 26.5896 90.8281 26.5785 90.8281 26.5675C90.8281 26.5565 90.8281 26.5454 90.8281 26.5344C90.8281 26.5233 90.8281 26.5122 90.8281 26.5011C90.8281 26.49 90.8281 26.4789 90.8281 26.4677C90.8281 26.4566 90.8281 26.4454 90.8281 26.4342C90.8281 26.4231 90.8281 26.4119 90.8281 26.4007C90.8281 26.3895 90.8281 26.3782 90.8281 26.367C90.8281 26.3557 90.8281 26.3445 90.8281 26.3332C90.8281 26.3219 90.8281 26.3106 90.8281 26.2993C90.8281 26.288 90.8281 26.2767 90.8281 26.2653C90.8281 26.254 90.8281 26.2426 90.8281 26.2312C90.8281 26.2198 90.8281 26.2084 90.8281 26.197C90.8281 26.1856 90.8281 26.1742 90.8281 26.1627C90.8281 26.1513 90.8281 26.1398 90.8281 26.1283C90.8281 26.1168 90.8281 26.1053 90.8281 26.0938C90.8281 26.0822 90.8281 26.0707 90.8281 26.0591C90.8281 26.0476 90.8281 26.036 90.8281 26.0244C90.8281 26.0128 90.8281 26.0012 90.8281 25.9896C90.8281 25.978 90.8281 25.9663 90.8281 25.9546C90.8281 25.943 90.8281 25.9313 90.8281 25.9196C90.8281 25.9079 90.8281 25.8962 90.8281 25.8844C90.8281 25.8727 90.8281 25.8609 90.8281 25.8492C90.8281 25.8374 90.8281 25.8256 90.8281 25.8138C90.8281 25.802 90.8281 25.7902 90.8281 25.7783C90.8281 25.7665 90.8281 25.7546 90.8281 25.7428C90.8281 25.7309 90.8281 25.719 90.8281 25.7071C90.8281 25.6952 90.8281 25.6832 90.8281 25.6713C90.8281 25.6593 90.8281 25.6474 90.8281 25.6354C90.8281 25.6234 90.8281 25.6114 90.8281 25.5994C90.8281 25.5874 90.8281 25.5753 90.8281 25.5633C90.8281 25.5512 90.8281 25.5391 90.8281 25.527C90.8281 25.515 90.8281 25.5028 90.8281 25.4907C90.8281 25.4786 90.8281 25.4664 90.8281 25.4543C90.8281 25.4421 90.8281 25.4299 90.8281 25.4177C90.8281 25.4055 90.8281 25.3933 90.8281 25.3811C90.8281 25.3689 90.8281 25.3566 90.8281 25.3443C90.8281 25.3321 90.8281 25.3198 90.8281 25.3075C90.8281 25.2952 90.8281 25.2828 90.8281 25.2705C90.8281 25.2582 90.8281 25.2458 90.8281 25.2334C90.8281 25.221 90.8281 25.2087 90.8281 25.1962C90.8281 25.1838 90.8281 25.1714 90.8281 25.1589C90.8281 25.1465 90.8281 25.134 90.8281 25.1215C90.8281 25.1091 90.8281 25.0965 90.8281 25.084C90.8281 25.0715 90.8281 25.059 90.8281 25.0464C90.8281 25.0338 90.8281 25.0213 90.8281 25.0087C90.8281 24.9961 90.8281 24.9835 90.8281 24.9708C90.8281 24.9582 90.8281 24.9456 90.8281 24.9329C90.8281 24.9202 90.8281 24.9075 90.8281 24.8948C90.8281 24.8821 90.8281 24.8694 90.8281 24.8567C90.8281 24.8439 90.8281 24.8312 90.8281 24.8184C90.8281 24.8056 90.8281 24.7928 90.8281 24.78C90.8281 24.7672 90.8281 24.7544 90.8281 24.7415C90.8281 24.7287 90.8281 24.7158 90.8281 24.7029C90.8281 24.69 90.8281 24.6771 90.8281 24.6642C90.8281 24.6513 90.8281 24.6383 90.8281 24.6254C90.8281 24.6124 90.8281 24.5994 90.8281 24.5865C90.8281 24.5735 90.8281 24.5604 90.8281 24.5474C90.8281 24.5344 90.8281 24.5213 90.8281 24.5083C90.8281 24.4952 90.8281 24.4821 90.8281 24.469C90.8281 24.4559 90.8281 24.4428 90.8281 24.4296C90.8281 24.4165 90.8281 24.4033 90.8281 24.3901C90.8281 24.377 90.8281 24.3638 90.8281 24.3505C90.8281 24.3373 90.8281 24.3241 90.8281 24.3108C90.8281 24.2976 90.8281 24.2843 90.8281 24.271C90.8281 24.2577 90.8281 24.2444 90.8281 24.2311C90.8281 24.2178 90.8281 24.2044 90.8281 24.1911C90.8281 24.1777 90.8281 24.1643 90.8281 24.1509C90.8281 24.1375 90.8281 24.1241 90.8281 24.1107C90.8281 24.0972 90.8281 24.0838 90.8281 24.0703C90.8281 24.0568 90.8281 24.0433 90.8281 24.0298C90.8281 24.0163 90.8281 24.0028 90.8281 23.9892C90.8281 23.9757 90.8281 23.9621 90.8281 23.9485C90.8281 23.9349 90.8281 23.9213 90.8281 23.9077C90.8281 23.8941 90.8281 23.8804 90.8281 23.8668C90.8281 23.8531 90.8281 23.8394 90.8281 23.8257C90.8281 23.812 90.8281 23.7983 90.8281 23.7846C90.8281 23.7709 90.8281 23.7571 90.8281 23.7433C90.8281 23.7296 90.8281 23.7158 90.8281 23.702C90.8281 23.6881 90.8281 23.6743 90.8281 23.6605C90.8281 23.6466 90.8281 23.6328 90.8281 23.6189C90.8281 23.605 90.8281 23.5911 90.8281 23.5772C90.8281 23.5632 90.8281 23.5493 90.8281 23.5353C90.8281 23.5214 90.8281 23.5074 90.8281 23.4934C90.8281 23.4794 90.8281 23.4654 90.8281 23.4513C90.8281 23.4373 90.8281 23.4232 90.8281 23.4092C90.8281 23.3951 90.8281 23.381 90.8281 23.3669C90.8281 23.3528 90.8281 23.3387 90.8281 23.3245C90.8281 23.3104 90.8281 23.2962 90.8281 23.282C90.8281 23.2678 90.8281 23.2536 90.8281 23.2394C90.8281 23.2252 90.8281 23.2109 90.8281 23.1967C90.8281 23.1824 90.8281 23.1681 90.8281 23.1538C90.8281 23.1395 90.8281 23.1252 90.8281 23.1109C90.8281 23.0965 90.8281 23.0822 90.8281 23.0678C90.8281 23.0534 90.8281 23.039 90.8281 23.0246C90.8281 23.0102 90.8281 22.9957 90.8281 22.9813C90.8281 22.9668 90.8281 22.9524 90.8281 22.9379C90.8281 22.9234 90.8281 22.9089 90.8281 22.8944C90.8281 22.8798 90.8281 22.8653 90.8281 22.8507C90.8281 22.8361 90.8281 22.8216 90.8281 22.807C90.8281 22.7923 90.8281 22.7777 90.8281 22.7631C90.8281 22.7484 90.8281 22.7338 90.8281 22.7191C90.8281 22.7044 90.8281 22.6897 90.8281 22.675C90.8281 22.6603 90.8281 22.6455 90.8281 22.6308C90.8281 22.616 90.8281 22.6012 90.8281 22.5864C90.8281 22.5716 90.8281 22.5568 90.8281 22.542C90.8281 22.5272 90.8281 22.5123 90.8281 22.4974H87.1719C87.1719 22.5123 87.1719 22.5272 87.1719 22.542C87.1719 22.5568 87.1719 22.5716 87.1719 22.5864C87.1719 22.6012 87.1719 22.616 87.1719 22.6308C87.1719 22.6455 87.1719 22.6603 87.1719 22.675C87.1719 22.6897 87.1719 22.7044 87.1719 22.7191C87.1719 22.7338 87.1719 22.7484 87.1719 22.7631C87.1719 22.7777 87.1719 22.7923 87.1719 22.807C87.1719 22.8216 87.1719 22.8361 87.1719 22.8507C87.1719 22.8653 87.1719 22.8798 87.1719 22.8944C87.1719 22.9089 87.1719 22.9234 87.1719 22.9379C87.1719 22.9524 87.1719 22.9668 87.1719 22.9813C87.1719 22.9957 87.1719 23.0102 87.1719 23.0246C87.1719 23.039 87.1719 23.0534 87.1719 23.0678C87.1719 23.0822 87.1719 23.0965 87.1719 23.1109C87.1719 23.1252 87.1719 23.1395 87.1719 23.1538C87.1719 23.1681 87.1719 23.1824 87.1719 23.1967C87.1719 23.2109 87.1719 23.2252 87.1719 23.2394C87.1719 23.2536 87.1719 23.2678 87.1719 23.282C87.1719 23.2962 87.1719 23.3104 87.1719 23.3245C87.1719 23.3387 87.1719 23.3528 87.1719 23.3669C87.1719 23.381 87.1719 23.3951 87.1719 23.4092C87.1719 23.4232 87.1719 23.4373 87.1719 23.4513C87.1719 23.4654 87.1719 23.4794 87.1719 23.4934C87.1719 23.5074 87.1719 23.5214 87.1719 23.5353C87.1719 23.5493 87.1719 23.5632 87.1719 23.5772C87.1719 23.5911 87.1719 23.605 87.1719 23.6189C87.1719 23.6328 87.1719 23.6466 87.1719 23.6605C87.1719 23.6743 87.1719 23.6881 87.1719 23.702C87.1719 23.7158 87.1719 23.7296 87.1719 23.7433C87.1719 23.7571 87.1719 23.7709 87.1719 23.7846C87.1719 23.7983 87.1719 23.812 87.1719 23.8257C87.1719 23.8394 87.1719 23.8531 87.1719 23.8668C87.1719 23.8804 87.1719 23.8941 87.1719 23.9077C87.1719 23.9213 87.1719 23.9349 87.1719 23.9485C87.1719 23.9621 87.1719 23.9757 87.1719 23.9892C87.1719 24.0028 87.1719 24.0163 87.1719 24.0298C87.1719 24.0433 87.1719 24.0568 87.1719 24.0703C87.1719 24.0838 87.1719 24.0972 87.1719 24.1107C87.1719 24.1241 87.1719 24.1375 87.1719 24.1509C87.1719 24.1643 87.1719 24.1777 87.1719 24.1911C87.1719 24.2044 87.1719 24.2178 87.1719 24.2311C87.1719 24.2444 87.1719 24.2577 87.1719 24.271C87.1719 24.2843 87.1719 24.2976 87.1719 24.3108C87.1719 24.3241 87.1719 24.3373 87.1719 24.3505C87.1719 24.3638 87.1719 24.377 87.1719 24.3901C87.1719 24.4033 87.1719 24.4165 87.1719 24.4296C87.1719 24.4428 87.1719 24.4559 87.1719 24.469C87.1719 24.4821 87.1719 24.4952 87.1719 24.5083C87.1719 24.5213 87.1719 24.5344 87.1719 24.5474C87.1719 24.5604 87.1719 24.5735 87.1719 24.5865C87.1719 24.5994 87.1719 24.6124 87.1719 24.6254C87.1719 24.6383 87.1719 24.6513 87.1719 24.6642C87.1719 24.6771 87.1719 24.69 87.1719 24.7029C87.1719 24.7158 87.1719 24.7287 87.1719 24.7415C87.1719 24.7544 87.1719 24.7672 87.1719 24.78C87.1719 24.7928 87.1719 24.8056 87.1719 24.8184C87.1719 24.8312 87.1719 24.8439 87.1719 24.8567C87.1719 24.8694 87.1719 24.8821 87.1719 24.8948C87.1719 24.9075 87.1719 24.9202 87.1719 24.9329C87.1719 24.9456 87.1719 24.9582 87.1719 24.9708C87.1719 24.9835 87.1719 24.9961 87.1719 25.0087C87.1719 25.0213 87.1719 25.0338 87.1719 25.0464C87.1719 25.059 87.1719 25.0715 87.1719 25.084C87.1719 25.0965 87.1719 25.1091 87.1719 25.1215C87.1719 25.134 87.1719 25.1465 87.1719 25.1589C87.1719 25.1714 87.1719 25.1838 87.1719 25.1962C87.1719 25.2087 87.1719 25.221 87.1719 25.2334C87.1719 25.2458 87.1719 25.2582 87.1719 25.2705C87.1719 25.2828 87.1719 25.2952 87.1719 25.3075C87.1719 25.3198 87.1719 25.3321 87.1719 25.3443C87.1719 25.3566 87.1719 25.3689 87.1719 25.3811C87.1719 25.3933 87.1719 25.4055 87.1719 25.4177C87.1719 25.4299 87.1719 25.4421 87.1719 25.4543C87.1719 25.4664 87.1719 25.4786 87.1719 25.4907C87.1719 25.5028 87.1719 25.515 87.1719 25.527C87.1719 25.5391 87.1719 25.5512 87.1719 25.5633C87.1719 25.5753 87.1719 25.5874 87.1719 25.5994C87.1719 25.6114 87.1719 25.6234 87.1719 25.6354C87.1719 25.6474 87.1719 25.6593 87.1719 25.6713C87.1719 25.6832 87.1719 25.6952 87.1719 25.7071C87.1719 25.719 87.1719 25.7309 87.1719 25.7428C87.1719 25.7546 87.1719 25.7665 87.1719 25.7783C87.1719 25.7902 87.1719 25.802 87.1719 25.8138C87.1719 25.8256 87.1719 25.8374 87.1719 25.8492C87.1719 25.8609 87.1719 25.8727 87.1719 25.8844C87.1719 25.8962 87.1719 25.9079 87.1719 25.9196C87.1719 25.9313 87.1719 25.943 87.1719 25.9546C87.1719 25.9663 87.1719 25.978 87.1719 25.9896C87.1719 26.0012 87.1719 26.0128 87.1719 26.0244C87.1719 26.036 87.1719 26.0476 87.1719 26.0591C87.1719 26.0707 87.1719 26.0822 87.1719 26.0938C87.1719 26.1053 87.1719 26.1168 87.1719 26.1283C87.1719 26.1398 87.1719 26.1513 87.1719 26.1627C87.1719 26.1742 87.1719 26.1856 87.1719 26.197C87.1719 26.2084 87.1719 26.2198 87.1719 26.2312C87.1719 26.2426 87.1719 26.254 87.1719 26.2653C87.1719 26.2767 87.1719 26.288 87.1719 26.2993C87.1719 26.3106 87.1719 26.3219 87.1719 26.3332C87.1719 26.3445 87.1719 26.3557 87.1719 26.367C87.1719 26.3782 87.1719 26.3895 87.1719 26.4007C87.1719 26.4119 87.1719 26.4231 87.1719 26.4342C87.1719 26.4454 87.1719 26.4566 87.1719 26.4677C87.1719 26.4789 87.1719 26.49 87.1719 26.5011C87.1719 26.5122 87.1719 26.5233 87.1719 26.5344C87.1719 26.5454 87.1719 26.5565 87.1719 26.5675C87.1719 26.5785 87.1719 26.5896 87.1719 26.6006C87.1719 26.6116 87.1719 26.6226 87.1719 26.6335C87.1719 26.6445 87.1719 26.6554 87.1719 26.6664C87.1719 26.6773 87.1719 26.6882 87.1719 26.6991C87.1719 26.71 87.1719 26.7209 87.1719 26.7318C87.1719 26.7426 87.1719 26.7535 87.1719 26.7643C87.1719 26.7751 87.1719 26.7859 87.1719 26.7967C87.1719 26.8075 87.1719 26.8183 87.1719 26.8291C87.1719 26.8398 87.1719 26.8506 87.1719 26.8613C87.1719 26.872 87.1719 26.8827 87.1719 26.8934C87.1719 26.9041 87.1719 26.9148 87.1719 26.9254C87.1719 26.9361 87.1719 26.9467 87.1719 26.9574C87.1719 26.968 87.1719 26.9786 87.1719 26.9892C87.1719 26.9998 87.1719 27.0103 87.1719 27.0209C87.1719 27.0315 87.1719 27.042 87.1719 27.0525C87.1719 27.063 87.1719 27.0735 87.1719 27.084C87.1719 27.0945 87.1719 27.105 87.1719 27.1154C87.1719 27.1259 87.1719 27.1363 87.1719 27.1467C87.1719 27.1572 87.1719 27.1676 87.1719 27.1779C87.1719 27.1883 87.1719 27.1987 87.1719 27.2091C87.1719 27.2194 87.1719 27.2297 87.1719 27.2401C87.1719 27.2504 87.1719 27.2607 87.1719 27.271C87.1719 27.2812 87.1719 27.2915 87.1719 27.3018C87.1719 27.312 87.1719 27.3222 87.1719 27.3325C87.1719 27.3427 87.1719 27.3529 87.1719 27.3631C87.1719 27.3732 87.1719 27.3834 87.1719 27.3935C87.1719 27.4037 87.1719 27.4138 87.1719 27.4239C87.1719 27.4341 87.1719 27.4442 87.1719 27.4542C87.1719 27.4643 87.1719 27.4744 87.1719 27.4844C87.1719 27.4945 87.1719 27.5045 87.1719 27.5145C87.1719 27.5245 87.1719 27.5345 87.1719 27.5445C87.1719 27.5545 87.1719 27.5645 87.1719 27.5744C87.1719 27.5844 87.1719 27.5943 87.1719 27.6042C87.1719 27.6141 87.1719 27.624 87.1719 27.6339C87.1719 27.6438 87.1719 27.6536 87.1719 27.6635C87.1719 27.6733 87.1719 27.6832 87.1719 27.693C87.1719 27.7028 87.1719 27.7126 87.1719 27.7224C87.1719 27.7321 87.1719 27.7419 87.1719 27.7517C87.1719 27.7614 87.1719 27.7711 87.1719 27.7808C87.1719 27.7906 87.1719 27.8003 87.1719 27.8099C87.1719 27.8196 87.1719 27.8293 87.1719 27.8389C87.1719 27.8486 87.1719 27.8582 87.1719 27.8678C87.1719 27.8774 87.1719 27.887 87.1719 27.8966C87.1719 27.9062 87.1719 27.9158 87.1719 27.9253C87.1719 27.9349 87.1719 27.9444 87.1719 27.9539C87.1719 27.9634 87.1719 27.9729 87.1719 27.9824C87.1719 27.9919 87.1719 28.0014 87.1719 28.0108C87.1719 28.0203 87.1719 28.0297 87.1719 28.0391C87.1719 28.0485 87.1719 28.0579 87.1719 28.0673C87.1719 28.0767 87.1719 28.0861 87.1719 28.0954C87.1719 28.1048 87.1719 28.1141 87.1719 28.1234C87.1719 28.1327 87.1719 28.142 87.1719 28.1513C87.1719 28.1606 87.1719 28.1699 87.1719 28.1791C87.1719 28.1884 87.1719 28.1976 87.1719 28.2068C87.1719 28.2161 87.1719 28.2253 87.1719 28.2345C87.1719 28.2436 87.1719 28.2528 87.1719 28.262C87.1719 28.2711 87.1719 28.2803 87.1719 28.2894C87.1719 28.2985 87.1719 28.3076 87.1719 28.3167C87.1719 28.3258 87.1719 28.3349 87.1719 28.3439C87.1719 28.353 87.1719 28.362 87.1719 28.3711C87.1719 28.3801 87.1719 28.3891 87.1719 28.3981C87.1719 28.4071 87.1719 28.4161 87.1719 28.425C87.1719 28.434 87.1719 28.4429 87.1719 28.4519C87.1719 28.4608 87.1719 28.4697 87.1719 28.4786C87.1719 28.4875 87.1719 28.4964 87.1719 28.5052C87.1719 28.5141 87.1719 28.5229 87.1719 28.5318C87.1719 28.5406 87.1719 28.5494 87.1719 28.5582C87.1719 28.567 87.1719 28.5758 87.1719 28.5846C87.1719 28.5933 87.1719 28.6021 87.1719 28.6108C87.1719 28.6196 87.1719 28.6283 87.1719 28.637C87.1719 28.6457 87.1719 28.6544 87.1719 28.663C87.1719 28.6717 87.1719 28.6804 87.1719 28.689C87.1719 28.6977 87.1719 28.7063 87.1719 28.7149C87.1719 28.7235 87.1719 28.7321 87.1719 28.7407C87.1719 28.7492 87.1719 28.7578 87.1719 28.7663C87.1719 28.7749 87.1719 28.7834 87.1719 28.7919C87.1719 28.8004 87.1719 28.8089 87.1719 28.8174C87.1719 28.8259 87.1719 28.8344 87.1719 28.8428C87.1719 28.8512 87.1719 28.8597 87.1719 28.8681C87.1719 28.8765 87.1719 28.8849 87.1719 28.8933C87.1719 28.9017 87.1719 28.9101 87.1719 28.9184C87.1719 28.9268 87.1719 28.9351 87.1719 28.9434C87.1719 28.9517 87.1719 28.96 87.1719 28.9683C87.1719 28.9766 87.1719 28.9849 87.1719 28.9932C87.1719 29.0014 87.1719 29.0097 87.1719 29.0179C87.1719 29.0261 87.1719 29.0343 87.1719 29.0425C87.1719 29.0507 87.1719 29.0589 87.1719 29.0671C87.1719 29.0752 87.1719 29.0834 87.1719 29.0915C87.1719 29.0996 87.1719 29.1078 87.1719 29.1159C87.1719 29.124 87.1719 29.132 87.1719 29.1401C87.1719 29.1482 87.1719 29.1562 87.1719 29.1643C87.1719 29.1723 87.1719 29.1803 87.1719 29.1883C87.1719 29.1964 87.1719 29.2043 87.1719 29.2123C87.1719 29.2203 87.1719 29.2283 87.1719 29.2362C87.1719 29.2441 87.1719 29.2521 87.1719 29.26C87.1719 29.2679 87.1719 29.2758 87.1719 29.2837C87.1719 29.2916 87.1719 29.2994 87.1719 29.3073C87.1719 29.3151 87.1719 29.323 87.1719 29.3308C87.1719 29.3386 87.1719 29.3464 87.1719 29.3542C87.1719 29.362 87.1719 29.3698 87.1719 29.3775C87.1719 29.3853 87.1719 29.393 87.1719 29.4008C87.1719 29.4085 87.1719 29.4162 87.1719 29.4239C87.1719 29.4316 87.1719 29.4393 87.1719 29.447C87.1719 29.4546 87.1719 29.4623 87.1719 29.4699C87.1719 29.4775 87.1719 29.4852 87.1719 29.4928C87.1719 29.5004 87.1719 29.508 87.1719 29.5155C87.1719 29.5231 87.1719 29.5307 87.1719 29.5382C87.1719 29.5458 87.1719 29.5533 87.1719 29.5608C87.1719 29.5683 87.1719 29.5758 87.1719 29.5833C87.1719 29.5908 87.1719 29.5982 87.1719 29.6057C87.1719 29.6131 87.1719 29.6206 87.1719 29.628C87.1719 29.6354 87.1719 29.6428 87.1719 29.6502C87.1719 29.6576 87.1719 29.665 87.1719 29.6723C87.1719 29.6797 87.1719 29.687 87.1719 29.6944C87.1719 29.7017 87.1719 29.709 87.1719 29.7163C87.1719 29.7236 87.1719 29.7309 87.1719 29.7382C87.1719 29.7454 87.1719 29.7527 87.1719 29.7599C87.1719 29.7672 87.1719 29.7744 87.1719 29.7816C87.1719 29.7888 87.1719 29.796 87.1719 29.8032C87.1719 29.8104 87.1719 29.8175 87.1719 29.8247C87.1719 29.8318 87.1719 29.8389 87.1719 29.8461C87.1719 29.8532 87.1719 29.8603 87.1719 29.8674C87.1719 29.8745 87.1719 29.8815 87.1719 29.8886C87.1719 29.8956 87.1719 29.9027 87.1719 29.9097C87.1719 29.9167 87.1719 29.9237 87.1719 29.9307C87.1719 29.9377 87.1719 29.9447 87.1719 29.9517C87.1719 29.9587 87.1719 29.9656 87.1719 29.9726C87.1719 29.9795 87.1719 29.9864 87.1719 29.9933C87.1719 30.0002 87.1719 30.0071 87.1719 30.014C87.1719 30.0209 87.1719 30.0277 87.1719 30.0346C87.1719 30.0414 87.1719 30.0483 87.1719 30.0551C87.1719 30.0619 87.1719 30.0687 87.1719 30.0755C87.1719 30.0823 87.1719 30.0891 87.1719 30.0958C87.1719 30.1026 87.1719 30.1093 87.1719 30.116C87.1719 30.1228 87.1719 30.1295 87.1719 30.1362C87.1719 30.1429 87.1719 30.1496 87.1719 30.1562C87.1719 30.1629 87.1719 30.1696 87.1719 30.1762C87.1719 30.1828 87.1719 30.1895 87.1719 30.1961C87.1719 30.2027 87.1719 30.2093 87.1719 30.2159C87.1719 30.2224 87.1719 30.229 87.1719 30.2356C87.1719 30.2421 87.1719 30.2486 87.1719 30.2552C87.1719 30.2617 87.1719 30.2682 87.1719 30.2747C87.1719 30.2812 87.1719 30.2877 87.1719 30.2941C87.1719 30.3006 87.1719 30.307 87.1719 30.3135C87.1719 30.3199 87.1719 30.3263 87.1719 30.3327C87.1719 30.3391 87.1719 30.3455 87.1719 30.3519C87.1719 30.3583 87.1719 30.3646 87.1719 30.371C87.1719 30.3773 87.1719 30.3836 87.1719 30.39C87.1719 30.3963 87.1719 30.4026 87.1719 30.4089C87.1719 30.4152 87.1719 30.4214 87.1719 30.4277C87.1719 30.434 87.1719 30.4402 87.1719 30.4464C87.1719 30.4527 87.1719 30.4589 87.1719 30.4651C87.1719 30.4713 87.1719 30.4775 87.1719 30.4836C87.1719 30.4898 87.1719 30.496 87.1719 30.5021C87.1719 30.5082 87.1719 30.5144 87.1719 30.5205C87.1719 30.5266 87.1719 30.5327 87.1719 30.5388C87.1719 30.5449 87.1719 30.5509 87.1719 30.557C87.1719 30.563 87.1719 30.5691 87.1719 30.5751C87.1719 30.5811 87.1719 30.5872 87.1719 30.5932C87.1719 30.5991 87.1719 30.6051 87.1719 30.6111C87.1719 30.6171 87.1719 30.623 87.1719 30.629C87.1719 30.6349 87.1719 30.6408 87.1719 30.6467C87.1719 30.6527 87.1719 30.6586 87.1719 30.6644C87.1719 30.6703 87.1719 30.6762 87.1719 30.682C87.1719 30.6879 87.1719 30.6937 87.1719 30.6996C87.1719 30.7054 87.1719 30.7112 87.1719 30.717C87.1719 30.7228 87.1719 30.7286 87.1719 30.7344C87.1719 30.7401 87.1719 30.7459 87.1719 30.7516C87.1719 30.7574 87.1719 30.7631 87.1719 30.7688C87.1719 30.7745 87.1719 30.7802 87.1719 30.7859C87.1719 30.7916 87.1719 30.7973 87.1719 30.8029C87.1719 30.8086 87.1719 30.8142 87.1719 30.8198C87.1719 30.8255 87.1719 30.8311 87.1719 30.8367C87.1719 30.8423 87.1719 30.8479 87.1719 30.8534C87.1719 30.859 87.1719 30.8646 87.1719 30.8701C87.1719 30.8756 87.1719 30.8812 87.1719 30.8867C87.1719 30.8922 87.1719 30.8977 87.1719 30.9032C87.1719 30.9087 87.1719 30.9141 87.1719 30.9196C87.1719 30.9251 87.1719 30.9305 87.1719 30.9359C87.1719 30.9414 87.1719 30.9468 87.1719 30.9522C87.1719 30.9576 87.1719 30.963 87.1719 30.9684C87.1719 30.9737 87.1719 30.9791 87.1719 30.9844C87.1719 30.9898 87.1719 30.9951 87.1719 31.0004C87.1719 31.0058 87.1719 31.0111 87.1719 31.0163C87.1719 31.0216 87.1719 31.0269 87.1719 31.0322C87.1719 31.0374 87.1719 31.0427 87.1719 31.0479C87.1719 31.0532 87.1719 31.0584 87.1719 31.0636C87.1719 31.0688 87.1719 31.074 87.1719 31.0792C87.1719 31.0844 87.1719 31.0895 87.1719 31.0947C87.1719 31.0998 87.1719 31.105 87.1719 31.1101C87.1719 31.1152 87.1719 31.1203 87.1719 31.1254C87.1719 31.1305 87.1719 31.1356 87.1719 31.1407C87.1719 31.1457 87.1719 31.1508 87.1719 31.1558C87.1719 31.1609 87.1719 31.1659 87.1719 31.1709C87.1719 31.1759 87.1719 31.1809 87.1719 31.1859C87.1719 31.1909 87.1719 31.1959 87.1719 31.2008C87.1719 31.2058 87.1719 31.2107 87.1719 31.2157C87.1719 31.2206 87.1719 31.2255 87.1719 31.2304C87.1719 31.2353 87.1719 31.2402 87.1719 31.2451C87.1719 31.25 87.1719 31.2548 87.1719 31.2597C87.1719 31.2645 87.1719 31.2694 87.1719 31.2742C87.1719 31.279 87.1719 31.2838 87.1719 31.2886C87.1719 31.2934 87.1719 31.2982 87.1719 31.303C87.1719 31.3078 87.1719 31.3125 87.1719 31.3172C87.1719 31.322 87.1719 31.3267 87.1719 31.3314C87.1719 31.3361 87.1719 31.3408 87.1719 31.3455C87.1719 31.3502 87.1719 31.3549 87.1719 31.3596C87.1719 31.3642 87.1719 31.3689 87.1719 31.3735C87.1719 31.3781 87.1719 31.3828 87.1719 31.3874C87.1719 31.392 87.1719 31.3966 87.1719 31.4011C87.1719 31.4057 87.1719 31.4103 87.1719 31.4148C87.1719 31.4194 87.1719 31.4239 87.1719 31.4285C87.1719 31.433 87.1719 31.4375 87.1719 31.442C87.1719 31.4465 87.1719 31.451 87.1719 31.4555C87.1719 31.4599 87.1719 31.4644 87.1719 31.4688C87.1719 31.4733 87.1719 31.4777 87.1719 31.4821C87.1719 31.4865 87.1719 31.4909 87.1719 31.4953C87.1719 31.4997 87.1719 31.5041 87.1719 31.5085C87.1719 31.5128 87.1719 31.5172 87.1719 31.5215C87.1719 31.5259 87.1719 31.5302 87.1719 31.5345C87.1719 31.5388 87.1719 31.5431 87.1719 31.5474C87.1719 31.5517 87.1719 31.556 87.1719 31.5602C87.1719 31.5645 87.1719 31.5687 87.1719 31.573C87.1719 31.5772 87.1719 31.5814 87.1719 31.5856C87.1719 31.5898 87.1719 31.594 87.1719 31.5982C87.1719 31.6024 87.1719 31.6066 87.1719 31.6107C87.1719 31.6149 87.1719 31.619 87.1719 31.6231C87.1719 31.6273 87.1719 31.6314 87.1719 31.6355C87.1719 31.6396 87.1719 31.6437 87.1719 31.6477C87.1719 31.6518 87.1719 31.6559 87.1719 31.6599C87.1719 31.664 87.1719 31.668 87.1719 31.672C87.1719 31.6761 87.1719 31.6801 87.1719 31.6841C87.1719 31.6881 87.1719 31.6921 87.1719 31.696C87.1719 31.7 87.1719 31.704 87.1719 31.7079C87.1719 31.7119 87.1719 31.7158 87.1719 31.7197C87.1719 31.7236 87.1719 31.7275 87.1719 31.7314C87.1719 31.7353 87.1719 31.7392 87.1719 31.7431C87.1719 31.7469 87.1719 31.7508 87.1719 31.7546C87.1719 31.7585 87.1719 31.7623 87.1719 31.7661C87.1719 31.7699 87.1719 31.7737 87.1719 31.7775C87.1719 31.7813 87.1719 31.7851 87.1719 31.7889C87.1719 31.7926 87.1719 31.7964 87.1719 31.8001C87.1719 31.8038 87.1719 31.8076 87.1719 31.8113C87.1719 31.815 87.1719 31.8187 87.1719 31.8224C87.1719 31.8261 87.1719 31.8297 87.1719 31.8334C87.1719 31.8371 87.1719 31.8407 87.1719 31.8444C87.1719 31.848 87.1719 31.8516 87.1719 31.8552C87.1719 31.8588 87.1719 31.8624 87.1719 31.866C87.1719 31.8696 87.1719 31.8732 87.1719 31.8767C87.1719 31.8803 87.1719 31.8838 87.1719 31.8874C87.1719 31.8909 87.1719 31.8944 87.1719 31.8979C87.1719 31.9014 87.1719 31.9049 87.1719 31.9084C87.1719 31.9119 87.1719 31.9154 87.1719 31.9188C87.1719 31.9223 87.1719 31.9257 87.1719 31.9292C87.1719 31.9326 87.1719 31.936 87.1719 31.9394C87.1719 31.9428 87.1719 31.9462 87.1719 31.9496C87.1719 31.953 87.1719 31.9564 87.1719 31.9597C87.1719 31.9631 87.1719 31.9664 87.1719 31.9698C87.1719 31.9731 87.1719 31.9764 87.1719 31.9797C87.1719 31.983 87.1719 31.9863 87.1719 31.9896C87.1719 31.9929 87.1719 31.9962 87.1719 31.9994C87.1719 32.0027 87.1719 32.0059 87.1719 32.0091C87.1719 32.0124 87.1719 32.0156 87.1719 32.0188C87.1719 32.022 87.1719 32.0252 87.1719 32.0284C87.1719 32.0316 87.1719 32.0347 87.1719 32.0379C87.1719 32.041 87.1719 32.0442 87.1719 32.0473C87.1719 32.0505 87.1719 32.0536 87.1719 32.0567C87.1719 32.0598 87.1719 32.0629 87.1719 32.066C87.1719 32.0691 87.1719 32.0721 87.1719 32.0752C87.1719 32.0782 87.1719 32.0813 87.1719 32.0843C87.1719 32.0874 87.1719 32.0904 87.1719 32.0934C87.1719 32.0964 87.1719 32.0994 87.1719 32.1024C87.1719 32.1054 87.1719 32.1083 87.1719 32.1113C87.1719 32.1142 87.1719 32.1172 87.1719 32.1201C87.1719 32.1231 87.1719 32.126 87.1719 32.1289C87.1719 32.1318 87.1719 32.1347 87.1719 32.1376C87.1719 32.1405 87.1719 32.1434 87.1719 32.1462C87.1719 32.1491 87.1719 32.1519 87.1719 32.1548C87.1719 32.1576 87.1719 32.1604 87.1719 32.1632C87.1719 32.1661 87.1719 32.1689 87.1719 32.1716C87.1719 32.1744 87.1719 32.1772 87.1719 32.18C87.1719 32.1827 87.1719 32.1855 87.1719 32.1882C87.1719 32.191 87.1719 32.1937 87.1719 32.1964C87.1719 32.1991 87.1719 32.2018 87.1719 32.2045C87.1719 32.2072 87.1719 32.2099 87.1719 32.2126C87.1719 32.2152 87.1719 32.2179 87.1719 32.2205C87.1719 32.2232 87.1719 32.2258 87.1719 32.2284C87.1719 32.231 87.1719 32.2337 87.1719 32.2362C87.1719 32.2388 87.1719 32.2414 87.1719 32.244C87.1719 32.2466 87.1719 32.2491 87.1719 32.2517C87.1719 32.2542 87.1719 32.2568 87.1719 32.2593C87.1719 32.2618 87.1719 32.2643 87.1719 32.2668C87.1719 32.2693 87.1719 32.2718 87.1719 32.2743C87.1719 32.2768 87.1719 32.2792 87.1719 32.2817C87.1719 32.2841 87.1719 32.2866 87.1719 32.289C87.1719 32.2914 87.1719 32.2938 87.1719 32.2962C87.1719 32.2986 87.1719 32.301 87.1719 32.3034C87.1719 32.3058 87.1719 32.3082 87.1719 32.3105C87.1719 32.3129 87.1719 32.3152 87.1719 32.3176C87.1719 32.3199 87.1719 32.3222 87.1719 32.3245C87.1719 32.3268 87.1719 32.3291 87.1719 32.3314C87.1719 32.3337 87.1719 32.336 87.1719 32.3382C87.1719 32.3405 87.1719 32.3428 87.1719 32.345C87.1719 32.3472 87.1719 32.3495 87.1719 32.3517C87.1719 32.3539 87.1719 32.3561 87.1719 32.3583C87.1719 32.3605 87.1719 32.3627 87.1719 32.3648C87.1719 32.367 87.1719 32.3692 87.1719 32.3713C87.1719 32.3735 87.1719 32.3756 87.1719 32.3777C87.1719 32.3798 87.1719 32.3819 87.1719 32.384C87.1719 32.3861 87.1719 32.3882 87.1719 32.3903C87.1719 32.3924 87.1719 32.3945 87.1719 32.3965C87.1719 32.3986 87.1719 32.4006 87.1719 32.4026C87.1719 32.4047 87.1719 32.4067 87.1719 32.4087C87.1719 32.4107 87.1719 32.4127 87.1719 32.4147C87.1719 32.4167 87.1719 32.4186 87.1719 32.4206C87.1719 32.4225 87.1719 32.4245 87.1719 32.4264C87.1719 32.4284 87.1719 32.4303 87.1719 32.4322C87.1719 32.4341 87.1719 32.436 87.1719 32.4379C87.1719 32.4398 87.1719 32.4417 87.1719 32.4436C87.1719 32.4454 87.1719 32.4473 87.1719 32.4491C87.1719 32.451 87.1719 32.4528 87.1719 32.4546C87.1719 32.4565 87.1719 32.4583 87.1719 32.4601C87.1719 32.4619 87.1719 32.4637 87.1719 32.4654C87.1719 32.4672 87.1719 32.469 87.1719 32.4707C87.1719 32.4725 87.1719 32.4742 87.1719 32.476C87.1719 32.4777 87.1719 32.4794 87.1719 32.4811C87.1719 32.4829 87.1719 32.4846 87.1719 32.4862C87.1719 32.4879 87.1719 32.4896 87.1719 32.4913C87.1719 32.4929 87.1719 32.4946 87.1719 32.4962C87.1719 32.4979 87.1719 32.4995 87.1719 32.5011C87.1719 32.5027 87.1719 32.5043 87.1719 32.5059C87.1719 32.5075 87.1719 32.5091 87.1719 32.5107C87.1719 32.5123 87.1719 32.5138 87.1719 32.5154C87.1719 32.5169 87.1719 32.5185 87.1719 32.52C87.1719 32.5215 87.1719 32.5231 87.1719 32.5246C87.1719 32.5261 87.1719 32.5276 87.1719 32.5291C87.1719 32.5306 87.1719 32.532 87.1719 32.5335C87.1719 32.535 87.1719 32.5364 87.1719 32.5378C87.1719 32.5393 87.1719 32.5407 87.1719 32.5421C87.1719 32.5436 87.1719 32.545 87.1719 32.5464C87.1719 32.5478 87.1719 32.5491 87.1719 32.5505C87.1719 32.5519 87.1719 32.5533 87.1719 32.5546C87.1719 32.556 87.1719 32.5573 87.1719 32.5586C87.1719 32.56 87.1719 32.5613 87.1719 32.5626C87.1719 32.5639 87.1719 32.5652 87.1719 32.5665C87.1719 32.5678 87.1719 32.5691 87.1719 32.5703C87.1719 32.5716 87.1719 32.5728 87.1719 32.5741C87.1719 32.5753 87.1719 32.5766 87.1719 32.5778C87.1719 32.579 87.1719 32.5802 87.1719 32.5814C87.1719 32.5826 87.1719 32.5838 87.1719 32.585C87.1719 32.5862 87.1719 32.5873 87.1719 32.5885C87.1719 32.5896 87.1719 32.5908 87.1719 32.5919C87.1719 32.5931 87.1719 32.5942 87.1719 32.5953C87.1719 32.5964 87.1719 32.5975 87.1719 32.5986C87.1719 32.5997 87.1719 32.6008 87.1719 32.6018C87.1719 32.6029 87.1719 32.604 87.1719 32.605C87.1719 32.6061 87.1719 32.6071 87.1719 32.6081C87.1719 32.6092 87.1719 32.6102 87.1719 32.6112C87.1719 32.6122 87.1719 32.6132 87.1719 32.6142C87.1719 32.6151 87.1719 32.6161 87.1719 32.6171C87.1719 32.618 87.1719 32.619 87.1719 32.6199C87.1719 32.6209 87.1719 32.6218 87.1719 32.6227C87.1719 32.6237 87.1719 32.6246 87.1719 32.6255C87.1719 32.6264 87.1719 32.6272 87.1719 32.6281C87.1719 32.629 87.1719 32.6299 87.1719 32.6307C87.1719 32.6316 87.1719 32.6324 87.1719 32.6333C87.1719 32.6341 87.1719 32.6349 87.1719 32.6357C87.1719 32.6366 87.1719 32.6374 87.1719 32.6381C87.1719 32.6389 87.1719 32.6397 87.1719 32.6405C87.1719 32.6413 87.1719 32.642 87.1719 32.6428C87.1719 32.6435 87.1719 32.6443 87.1719 32.645C87.1719 32.6457 87.1719 32.6465 87.1719 32.6472C87.1719 32.6479 87.1719 32.6486 87.1719 32.6493C87.1719 32.6499 87.1719 32.6506 87.1719 32.6513C87.1719 32.652 87.1719 32.6526 87.1719 32.6533C87.1719 32.6539 87.1719 32.6545 87.1719 32.6552C87.1719 32.6558 87.1719 32.6564 87.1719 32.657C87.1719 32.6576 87.1719 32.6582 87.1719 32.6588C87.1719 32.6594 87.1719 32.66 87.1719 32.6605C87.1719 32.6611 87.1719 32.6616 87.1719 32.6622C87.1719 32.6627 87.1719 32.6633 87.1719 32.6638C87.1719 32.6643 87.1719 32.6648 87.1719 32.6653C87.1719 32.6658 87.1719 32.6663 87.1719 32.6668C87.1719 32.6673 87.1719 32.6677 87.1719 32.6682C87.1719 32.6687 87.1719 32.6691 87.1719 32.6696C87.1719 32.67 87.1719 32.6704 87.1719 32.6709C87.1719 32.6713 87.1719 32.6717 87.1719 32.6721C87.1719 32.6725 87.1719 32.6729 87.1719 32.6733C87.1719 32.6736 87.1719 32.674 87.1719 32.6744C87.1719 32.6747 87.1719 32.6751 87.1719 32.6754C87.1719 32.6757 87.1719 32.6761 87.1719 32.6764C87.1719 32.6767 87.1719 32.677 87.1719 32.6773C87.1719 32.6776 87.1719 32.6779 87.1719 32.6782C87.1719 32.6785 87.1719 32.6787 87.1719 32.679C87.1719 32.6792 87.1719 32.6795 87.1719 32.6797C87.1719 32.68 87.1719 32.6802 87.1719 32.6804C87.1719 32.6806 87.1719 32.6808 87.1719 32.681C87.1719 32.6812 87.1719 32.6814 87.1719 32.6816C87.1719 32.6818 87.1719 32.6819 87.1719 32.6821C87.1719 32.6823 87.1719 32.6824 87.1719 32.6826C87.1719 32.6827 87.1719 32.6828 87.1719 32.6829C87.1719 32.6831 87.1719 32.6832 87.1719 32.6833C87.1719 32.6834 87.1719 32.6834 87.1719 32.6835C87.1719 32.6836 87.1719 32.6837 87.1719 32.6837C87.1719 32.6838 87.1719 32.6838 87.1719 32.6839C87.1719 32.6839 87.1719 32.684 87.1719 32.684C87.1719 32.684 87.1719 32.684 89 32.684ZM89 30.8559H80.9974V34.5121H89V30.8559ZM15.329 69.1441H23.6436V65.4879H15.329V69.1441ZM13.5009 67.316V77.5026H17.1571V67.316H13.5009Z" fill="#2C5EB9"/>
</svg>
