<svg width="1181" height="391" viewBox="0 0 1181 391" fill="none" xmlns="http://www.w3.org/2000/svg">
<path d="M76 159.5V158.5H75.5858L75.2929 158.793L76 159.5ZM363.5 159.5V160.5H363.922L364.216 160.198L363.5 159.5ZM382 140.5L382.716 141.198L383 140.906V140.5H382ZM56 179.5L55.2929 178.793L55 179.086V179.5H56ZM434 189L433.293 188.293L433 188.586V189H434ZM454 169L453.996 168L453.584 168.002L453.293 168.293L454 169ZM792 167.5L792.004 168.5L792.416 168.498L792.707 168.207L792 167.5ZM802 157.5L802.707 158.207L803 157.914V157.5H802ZM1101 0C1100.45 0 1100 0.447715 1100 1C1100 1.55228 1100.45 2 1101 2V0ZM1160 1L1160.71 0.292893L1160.41 0H1160V1ZM1180 21H1181V20.5858L1180.71 20.2929L1180 21ZM1180 161.5L1180.71 162.207L1181 161.914V161.5H1180ZM832 181.5V180.5H831.586L831.293 180.793L832 181.5ZM812 201.5L811.293 200.793L811 201.086V201.5H812ZM1160 181.5V182.5H1160.41L1160.71 182.207L1160 181.5ZM1 370H0V370.414L0.292893 370.707L1 370ZM21 390L20.2929 390.707L20.5858 391H21V390ZM36 390V391H36.4142L36.7071 390.707L36 390ZM56 370L56.7071 370.707L57 370.414V370H56ZM76 160.5H363.5V158.5H76V160.5ZM364.216 160.198L382.716 141.198L381.284 139.802L362.784 158.802L364.216 160.198ZM383 140.5V32H381V140.5H383ZM57 218V179.5H55V218H57ZM56.7071 180.207L76.7071 160.207L75.2929 158.793L55.2929 178.793L56.7071 180.207ZM435 250V189H433V250H435ZM434.707 189.707L454.707 169.707L453.293 168.293L433.293 188.293L434.707 189.707ZM454.004 170L792.004 168.5L791.996 166.5L453.996 168L454.004 170ZM792.707 168.207L802.707 158.207L801.293 156.793L791.293 166.793L792.707 168.207ZM803 157.5V32H801V157.5H803ZM1101 2H1160V0H1101V2ZM1159.29 1.70711L1179.29 21.7071L1180.71 20.2929L1160.71 0.292893L1159.29 1.70711ZM1179 21V161.5H1181V21H1179ZM831.293 180.793L811.293 200.793L812.707 202.207L832.707 182.207L831.293 180.793ZM811 201.5V227H813V201.5H811ZM1179.29 160.793L1159.29 180.793L1160.71 182.207L1180.71 162.207L1179.29 160.793ZM1160 180.5H832V182.5H1160V180.5ZM0 32V370H2V32H0ZM0.292893 370.707L20.2929 390.707L21.7071 389.293L1.70711 369.293L0.292893 370.707ZM21 391H36V389H21V391ZM36.7071 390.707L56.7071 370.707L55.2929 369.293L35.2929 389.293L36.7071 390.707ZM57 370V236H55V370H57Z" fill="#B4C5E6"/>
</svg>
