<svg width="1280" height="219" viewBox="0 0 1280 219" fill="none" xmlns="http://www.w3.org/2000/svg">
<g opacity="0.02">
<path d="M375.676 148.212C372.931 146.284 369.143 146.945 367.216 149.689C365.289 152.432 365.951 156.22 368.696 158.148C371.441 160.076 375.228 159.415 377.156 156.671C379.083 153.927 378.42 150.14 375.676 148.212Z" fill="#F0F3FA"/>
<path d="M310.009 146.599C307.264 144.671 303.477 145.332 301.55 148.075C299.622 150.819 300.285 154.606 303.03 156.534C305.774 158.462 309.562 157.801 311.489 155.058C313.416 152.314 312.754 148.527 310.009 146.599Z" fill="#F0F3FA"/>
<path d="M297.266 16.818C294.521 14.8899 290.734 15.5511 288.807 18.2947C286.879 21.0384 287.542 24.8256 290.287 26.7537C293.031 28.6818 296.819 28.0207 298.746 25.277C300.673 22.5334 300.011 18.7461 297.266 16.818Z" fill="#F0F3FA"/>
<path d="M317.511 -24.0757C314.766 -26.0038 310.978 -25.3426 309.051 -22.599C307.124 -19.8553 307.786 -16.0681 310.531 -14.14C313.276 -12.2119 317.063 -12.873 318.991 -15.6167C320.918 -18.3604 320.255 -22.1476 317.511 -24.0757Z" fill="#F0F3FA"/>
<path d="M289.822 -43.5264C287.077 -45.4545 283.29 -44.7933 281.362 -42.0497C279.435 -39.306 280.098 -35.5188 282.842 -33.5907C285.587 -31.6626 289.375 -32.3237 291.302 -35.0674C293.229 -37.811 292.567 -41.5982 289.822 -43.5264Z" fill="#F0F3FA"/>
<path d="M374.519 17.0316C371.775 15.1035 367.987 15.7646 366.06 18.5083C364.132 21.2519 364.795 25.0391 367.54 26.9672C370.284 28.8953 374.072 28.2342 375.999 25.4906C377.927 22.7469 377.264 18.9597 374.519 17.0316Z" fill="#F0F3FA"/>
<path d="M382.619 -29.2141C379.874 -31.1422 376.086 -30.4811 374.159 -27.7374C372.232 -24.9938 372.894 -21.2066 375.639 -19.2785C378.384 -17.3504 382.171 -18.0115 384.099 -20.7551C386.026 -23.4988 385.363 -27.286 382.619 -29.2141Z" fill="#F0F3FA"/>
<path d="M425.882 -16.8408C423.137 -18.7689 419.35 -18.1078 417.422 -15.3641C415.495 -12.6205 416.158 -8.83324 418.902 -6.90514C421.647 -4.97703 425.435 -5.63814 427.362 -8.3818C429.289 -11.1255 428.627 -14.9127 425.882 -16.8408Z" fill="#F0F3FA"/>
<path d="M378.98 -67.8068C376.235 -69.735 372.448 -69.0738 370.52 -66.3302C368.593 -63.5865 369.256 -59.7993 372 -57.8712C374.745 -55.9431 378.533 -56.6042 380.46 -59.3479C382.387 -62.0915 381.725 -65.8787 378.98 -67.8068Z" fill="#F0F3FA"/>
<path d="M338.436 -93.1082C335.691 -95.0363 331.904 -94.3752 329.977 -91.6315C328.049 -88.8879 328.712 -85.1007 331.457 -83.1726C334.201 -81.2445 337.989 -81.9056 339.916 -84.6493C341.844 -87.3929 341.181 -91.1801 338.436 -93.1082Z" fill="#F0F3FA"/>
<path d="M389.919 -112.058C387.174 -113.986 383.387 -113.325 381.46 -110.581C379.532 -107.837 380.195 -104.05 382.94 -102.122C385.684 -100.194 389.472 -100.855 391.399 -103.599C393.326 -106.342 392.664 -110.129 389.919 -112.058Z" fill="#F0F3FA"/>
<path d="M367.916 61.1482C365.171 59.2201 361.383 59.8812 359.456 62.6249C357.529 65.3685 358.191 69.1557 360.936 71.0838C363.681 73.0119 367.468 72.3508 369.396 69.6072C371.323 66.8635 370.66 63.0763 367.916 61.1482Z" fill="#F0F3FA"/>
<path d="M405.893 43.3109C403.149 41.3828 399.361 42.0439 397.434 44.7876C395.507 47.5312 396.169 51.3184 398.914 53.2465C401.659 55.1746 405.446 54.5135 407.373 51.7699C409.301 49.0262 408.638 45.239 405.893 43.3109Z" fill="#F0F3FA"/>
<path d="M405.846 75.075C403.102 73.1469 399.314 73.808 397.387 76.5517C395.46 79.2953 396.122 83.0825 398.867 85.0107C401.612 86.9388 405.399 86.2776 407.326 83.534C409.254 80.7903 408.591 77.0031 405.846 75.075Z" fill="#F0F3FA"/>
<path d="M465.243 87.1228C462.499 85.1947 458.711 85.8558 456.784 88.5994C454.857 91.3431 455.519 95.1303 458.264 97.0584C461.009 98.9865 464.796 98.3254 466.723 95.5817C468.651 92.8381 467.988 89.0509 465.243 87.1228Z" fill="#F0F3FA"/>
<path d="M541.338 5.96951C538.593 4.04141 534.805 4.70254 532.878 7.44619C530.951 10.1898 531.613 13.977 534.358 15.9052C537.103 17.8333 540.89 17.1722 542.818 14.4285C544.745 11.6848 544.082 7.89762 541.338 5.96951Z" fill="#F0F3FA"/>
<path d="M494.887 -13.9421C492.142 -15.8702 488.355 -15.2091 486.427 -12.4655C484.5 -9.7218 485.163 -5.9346 487.907 -4.00649C490.652 -2.07839 494.44 -2.7395 496.367 -5.48315C498.294 -8.22681 497.632 -12.014 494.887 -13.9421Z" fill="#F0F3FA"/>
<path d="M592.202 -27.1932C589.457 -29.1213 585.67 -28.4601 583.742 -25.7165C581.815 -22.9728 582.478 -19.1856 585.222 -17.2575C587.967 -15.3294 591.754 -15.9905 593.682 -18.7342C595.609 -21.4778 594.947 -25.265 592.202 -27.1932Z" fill="#F0F3FA"/>
<path d="M589.962 45.4269C587.218 43.4988 583.43 44.1599 581.503 46.9036C579.575 49.6472 580.238 53.4345 582.983 55.3626C585.728 57.2907 589.515 56.6295 591.442 53.8859C593.37 51.1422 592.707 47.355 589.962 45.4269Z" fill="#F0F3FA"/>
<path d="M94.6653 243.342C91.9206 241.414 88.1331 242.075 86.2057 244.818C84.2784 247.562 84.941 251.349 87.6857 253.277C90.4304 255.205 94.2179 254.544 96.1452 251.801C98.0726 249.057 97.41 245.27 94.6653 243.342Z" fill="#F0F3FA"/>
<path d="M146.785 178.204C144.04 176.276 140.253 176.937 138.325 179.681C136.398 182.424 137.061 186.211 139.805 188.14C142.55 190.068 146.338 189.407 148.265 186.663C150.192 183.919 149.53 180.132 146.785 178.204Z" fill="#F0F3FA"/>
<path d="M175.486 185.647C172.742 183.719 168.954 184.38 167.027 187.124C165.099 189.868 165.762 193.655 168.507 195.583C171.252 197.511 175.039 196.85 176.966 194.106C178.894 191.362 178.231 187.575 175.486 185.647Z" fill="#F0F3FA"/>
<path d="M71.0432 165.273C68.2985 163.345 64.511 164.006 62.5837 166.75C60.6563 169.494 61.3189 173.281 64.0636 175.209C66.8084 177.137 70.5958 176.476 72.5232 173.732C74.4505 170.989 73.7879 167.201 71.0432 165.273Z" fill="#F0F3FA"/>
<path d="M-78.1773 195.057C-80.922 193.129 -84.7095 193.79 -86.6369 196.533C-88.5642 199.277 -87.9016 203.064 -85.1569 204.992C-82.4122 206.921 -78.6247 206.259 -76.6974 203.516C-74.77 200.772 -75.4326 196.985 -78.1773 195.057Z" fill="#F0F3FA"/>
<path d="M29.946 33.5928C27.2013 31.6647 23.4139 32.3258 21.4865 35.0695C19.5592 37.8131 20.2218 41.6003 22.9665 43.5284C25.7112 45.4565 29.4987 44.7954 31.426 42.0517C33.3534 39.3081 32.6908 35.5209 29.946 33.5928Z" fill="#F0F3FA"/>
<path d="M33.1669 -29.8586C30.4222 -31.7867 26.6348 -31.1256 24.7074 -28.3819C22.78 -25.6383 23.4426 -21.8511 26.1874 -19.923C28.9321 -17.9948 32.7196 -18.656 34.6469 -21.3996C36.5743 -24.1433 35.9117 -27.9305 33.1669 -29.8586Z" fill="#F0F3FA"/>
<path d="M-29.9076 90.1179C-32.6523 88.1898 -36.4398 88.8509 -38.3672 91.5946C-40.2945 94.3382 -39.6319 98.1254 -36.8872 100.054C-34.1425 101.982 -30.355 101.321 -28.4276 98.5769C-26.5003 95.8332 -27.1629 92.046 -29.9076 90.1179Z" fill="#F0F3FA"/>
<path d="M109.107 -54.9451C106.362 -56.8733 102.575 -56.2121 100.648 -53.4685C98.7202 -50.7248 99.3828 -46.9376 102.128 -45.0095C104.872 -43.0814 108.66 -43.7425 110.587 -46.4862C112.514 -49.2298 111.852 -53.017 109.107 -54.9451Z" fill="#F0F3FA"/>
<path d="M57.2457 -20.3631C54.501 -22.2912 50.7136 -21.6301 48.7862 -18.8864C46.8588 -16.1428 47.5214 -12.3556 50.2662 -10.4275C53.0109 -8.49934 56.7984 -9.16048 58.7257 -11.9041C60.6531 -14.6478 59.9905 -18.435 57.2457 -20.3631Z" fill="#F0F3FA"/>
<path d="M135.075 104.791C137.82 106.719 138.483 110.507 136.555 113.25C134.628 115.994 130.84 116.655 128.096 114.727C125.351 112.799 124.688 109.012 126.616 106.268C128.543 103.524 132.331 102.863 135.075 104.791Z" fill="#F0F3FA"/>
<path d="M106.708 29.222C109.453 31.1501 110.116 34.9373 108.188 37.681C106.261 40.4246 102.474 41.0857 99.7289 39.1576C96.9841 37.2295 96.3215 33.4423 98.2489 30.6987C100.176 27.955 103.964 27.2939 106.708 29.222Z" fill="#F0F3FA"/>
<path d="M139.876 140.493C142.621 142.422 143.283 146.209 141.356 148.952C139.428 151.696 135.641 152.357 132.896 150.429C130.152 148.501 129.489 144.714 131.416 141.97C133.344 139.226 137.131 138.565 139.876 140.493Z" fill="#F0F3FA"/>
<path d="M65.316 83.3444C68.0607 85.2725 68.7233 89.0597 66.796 91.8033C64.8686 94.547 61.0811 95.2081 58.3364 93.28C55.5917 91.3519 54.9291 87.5647 56.8564 84.821C58.7838 82.0774 62.5713 81.4163 65.316 83.3444Z" fill="#F0F3FA"/>
<path d="M82.8542 204.307C80.1095 202.379 76.3221 203.04 74.3947 205.784C72.4673 208.528 73.1299 212.315 75.8746 214.243C78.6194 216.171 82.4069 215.51 84.3342 212.766C86.2616 210.023 85.599 206.236 82.8542 204.307Z" fill="#F0F3FA"/>
<path d="M119.676 -88.8572C121.171 -90.9863 122.984 -91.3027 125.114 -89.8065C127.244 -88.3103 127.561 -86.4976 126.065 -84.3686C124.57 -82.2395 122.757 -81.9231 120.627 -83.4193C118.497 -84.9155 118.18 -86.7281 119.676 -88.8572Z" fill="#F0F3FA"/>
<path d="M201.108 17.1026C202.603 14.9735 204.416 14.6571 206.546 16.1533C208.676 17.6495 208.993 19.4621 207.497 21.5912C206.002 23.7203 204.189 24.0367 202.059 22.5405C199.929 21.0443 199.612 19.2317 201.108 17.1026Z" fill="#F0F3FA"/>
<path d="M560.201 -62.3918C561.697 -64.5208 563.51 -64.8373 565.639 -63.341C567.769 -61.8448 568.086 -60.0322 566.591 -57.9031C565.095 -55.7741 563.282 -55.4576 561.153 -56.9538C559.023 -58.4501 558.705 -60.2627 560.201 -62.3918Z" fill="#F0F3FA"/>
<path d="M422.841 213.142C424.337 211.013 426.15 210.697 428.28 212.193C430.41 213.689 430.727 215.502 429.231 217.631C427.735 219.76 425.923 220.076 423.793 218.58C421.663 217.084 421.346 215.271 422.841 213.142Z" fill="#F0F3FA"/>
<path d="M876.156 121.86C878.901 119.932 882.688 120.593 884.616 123.337C886.543 126.081 885.88 129.868 883.135 131.796C880.391 133.724 876.603 133.063 874.676 130.319C872.749 127.576 873.411 123.788 876.156 121.86Z" fill="#F0F3FA"/>
<path d="M877.529 89.0988C880.274 87.1707 884.061 87.8318 885.989 90.5754C887.916 93.3191 887.253 97.1063 884.509 99.0344C881.764 100.963 877.976 100.301 876.049 97.5577C874.122 94.8141 874.784 91.0269 877.529 89.0988Z" fill="#F0F3FA"/>
<path d="M857.285 48.2051C860.029 46.277 863.817 46.9381 865.744 49.6817C867.671 52.4254 867.009 56.2126 864.264 58.1407C861.519 60.0688 857.732 59.4077 855.805 56.664C853.877 53.9204 854.54 50.1332 857.285 48.2051Z" fill="#F0F3FA"/>
<path d="M884.973 28.7544C887.718 26.8263 891.505 27.4874 893.433 30.2311C895.36 32.9747 894.697 36.7619 891.953 38.69C889.208 40.6182 885.421 39.957 883.493 37.2134C881.566 34.4697 882.228 30.6825 884.973 28.7544Z" fill="#F0F3FA"/>
<path d="M800.276 89.3123C803.021 87.3842 806.808 88.0453 808.735 90.789C810.663 93.5326 810 97.3198 807.255 99.2479C804.511 101.176 800.723 100.515 798.796 97.7713C796.869 95.0276 797.531 91.2404 800.276 89.3123Z" fill="#F0F3FA"/>
<path d="M792.177 43.0666C794.921 41.1385 798.709 41.7997 800.636 44.5433C802.563 47.287 801.901 51.0742 799.156 53.0023C796.411 54.9304 792.624 54.2693 790.697 51.5256C788.769 48.782 789.432 44.9947 792.177 43.0666Z" fill="#F0F3FA"/>
<path d="M748.913 55.44C751.658 53.5118 755.445 54.173 757.373 56.9166C759.3 59.6603 758.637 63.4475 755.893 65.3756C753.148 67.3037 749.36 66.6426 747.433 63.8989C745.506 61.1553 746.168 57.3681 748.913 55.44Z" fill="#F0F3FA"/>
<path d="M836.359 -20.8275C839.104 -22.7556 842.891 -22.0944 844.818 -19.3508C846.746 -16.6071 846.083 -12.8199 843.338 -10.8918C840.594 -8.96371 836.806 -9.62485 834.879 -12.3685C832.952 -15.1122 833.614 -18.8994 836.359 -20.8275Z" fill="#F0F3FA"/>
<path d="M806.88 133.429C809.624 131.501 813.412 132.162 815.339 134.906C817.266 137.649 816.604 141.436 813.859 143.365C811.114 145.293 807.327 144.632 805.4 141.888C803.472 139.144 804.135 135.357 806.88 133.429Z" fill="#F0F3FA"/>
<path d="M768.902 115.592C771.646 113.664 775.434 114.325 777.361 117.068C779.289 119.812 778.626 123.599 775.881 125.527C773.137 127.455 769.349 126.794 767.422 124.051C765.494 121.307 766.157 117.52 768.902 115.592Z" fill="#F0F3FA"/>
<path d="M768.949 147.356C771.693 145.428 775.481 146.089 777.408 148.832C779.336 151.576 778.673 155.363 775.928 157.291C773.184 159.219 769.396 158.558 767.469 155.815C765.541 153.071 766.204 149.284 768.949 147.356Z" fill="#F0F3FA"/>
<path d="M709.552 159.404C712.296 157.475 716.084 158.137 718.011 160.88C719.939 163.624 719.276 167.411 716.531 169.339C713.787 171.267 709.999 170.606 708.072 167.862C706.144 165.119 706.807 161.332 709.552 159.404Z" fill="#F0F3FA"/>
<path d="M633.458 78.2503C636.202 76.3222 639.99 76.9833 641.917 79.727C643.844 82.4706 643.182 86.2579 640.437 88.186C637.692 90.1141 633.905 89.453 631.977 86.7093C630.05 83.9657 630.713 80.1784 633.458 78.2503Z" fill="#F0F3FA"/>
<path d="M679.908 58.3386C682.653 56.4105 686.44 57.0716 688.368 59.8153C690.295 62.5589 689.632 66.3461 686.888 68.2742C684.143 70.2024 680.356 69.5412 678.428 66.7976C676.501 64.0539 677.163 60.2667 679.908 58.3386Z" fill="#F0F3FA"/>
<path d="M582.593 45.0877C585.338 43.1596 589.125 43.8207 591.053 46.5644C592.98 49.308 592.317 53.0952 589.573 55.0233C586.828 56.9514 583.041 56.2903 581.113 53.5467C579.186 50.803 579.848 47.0158 582.593 45.0877Z" fill="#F0F3FA"/>
<path d="M584.833 117.708C587.577 115.78 591.365 116.441 593.292 119.184C595.219 121.928 594.557 125.715 591.812 127.643C589.067 129.572 585.28 128.91 583.353 126.167C581.425 123.423 582.088 119.636 584.833 117.708Z" fill="#F0F3FA"/>
<path d="M1028.01 250.485C1030.75 248.557 1034.54 249.218 1036.47 251.961C1038.4 254.705 1037.73 258.492 1034.99 260.42C1032.24 262.348 1028.46 261.687 1026.53 258.944C1024.6 256.2 1025.27 252.413 1028.01 250.485Z" fill="#F0F3FA"/>
<path d="M999.309 257.928C1002.05 256 1005.84 256.661 1007.77 259.405C1009.7 262.148 1009.03 265.935 1006.29 267.864C1003.54 269.792 999.756 269.131 997.829 266.387C995.901 263.643 996.564 259.856 999.309 257.928Z" fill="#F0F3FA"/>
<path d="M1103.75 237.554C1106.5 235.626 1110.28 236.287 1112.21 239.031C1114.14 241.774 1113.48 245.562 1110.73 247.49C1107.99 249.418 1104.2 248.757 1102.27 246.013C1100.34 243.269 1101.01 239.482 1103.75 237.554Z" fill="#F0F3FA"/>
<path d="M1144.85 105.874C1147.59 103.945 1151.38 104.607 1153.31 107.35C1155.24 110.094 1154.57 113.881 1151.83 115.809C1149.08 117.737 1145.3 117.076 1143.37 114.333C1141.44 111.589 1142.1 107.802 1144.85 105.874Z" fill="#F0F3FA"/>
<path d="M1141.63 42.4222C1144.37 40.4941 1148.16 41.1552 1150.09 43.8989C1152.02 46.6425 1151.35 50.4297 1148.61 52.3578C1145.86 54.2859 1142.08 53.6248 1140.15 50.8811C1138.22 48.1375 1138.88 44.3503 1141.63 42.4222Z" fill="#F0F3FA"/>
<path d="M1204.7 162.399C1207.45 160.471 1211.23 161.132 1213.16 163.875C1215.09 166.619 1214.43 170.406 1211.68 172.334C1208.94 174.262 1205.15 173.601 1203.22 170.858C1201.3 168.114 1201.96 164.327 1204.7 162.399Z" fill="#F0F3FA"/>
<path d="M1065.69 17.3356C1068.43 15.4075 1072.22 16.0686 1074.15 18.8123C1076.07 21.556 1075.41 25.3432 1072.67 27.2713C1069.92 29.1994 1066.14 28.5383 1064.21 25.7946C1062.28 23.051 1062.94 19.2637 1065.69 17.3356Z" fill="#F0F3FA"/>
<path d="M1117.55 51.9177C1120.29 49.9896 1124.08 50.6507 1126.01 53.3943C1127.94 56.138 1127.27 59.9252 1124.53 61.8533C1121.78 63.7814 1118 63.1203 1116.07 60.3766C1114.14 57.633 1114.8 53.8458 1117.55 51.9177Z" fill="#F0F3FA"/>
<path d="M1002 155.347C999.255 157.275 998.593 161.062 1000.52 163.806C1002.45 166.549 1006.23 167.21 1008.98 165.282C1011.72 163.354 1012.39 159.567 1010.46 156.823C1008.53 154.08 1004.74 153.419 1002 155.347Z" fill="#F0F3FA"/>
<path d="M1068.09 101.503C1065.34 103.431 1064.68 107.218 1066.61 109.962C1068.53 112.705 1072.32 113.367 1075.07 111.438C1077.81 109.51 1078.47 105.723 1076.55 102.979C1074.62 100.236 1070.83 99.5747 1068.09 101.503Z" fill="#F0F3FA"/>
<path d="M1034.92 212.774C1032.17 214.702 1031.51 218.49 1033.44 221.233C1035.37 223.977 1039.15 224.638 1041.9 222.71C1044.64 220.782 1045.31 216.995 1043.38 214.251C1041.45 211.507 1037.66 210.846 1034.92 212.774Z" fill="#F0F3FA"/>
<path d="M1098.45 162.843C1095.71 164.771 1095.05 168.559 1096.97 171.302C1098.9 174.046 1102.69 174.707 1105.43 172.779C1108.18 170.851 1108.84 167.064 1106.91 164.32C1104.99 161.576 1101.2 160.915 1098.45 162.843Z" fill="#F0F3FA"/>
<path d="M1099.48 135.625C1096.73 137.553 1096.07 141.34 1098 144.084C1099.93 146.828 1103.71 147.489 1106.46 145.561C1109.2 143.633 1109.87 139.845 1107.94 137.102C1106.01 134.358 1102.22 133.697 1099.48 135.625Z" fill="#F0F3FA"/>
<path d="M1055.12 -16.5764C1053.62 -18.7055 1051.81 -19.0219 1049.68 -17.5257C1047.55 -16.0295 1047.23 -14.2169 1048.73 -12.0878C1050.23 -9.95874 1052.04 -9.64231 1054.17 -11.1385C1056.3 -12.6347 1056.62 -14.4474 1055.12 -16.5764Z" fill="#F0F3FA"/>
<path d="M973.687 89.3834C972.192 87.2543 970.379 86.9379 968.249 88.4341C966.119 89.9303 965.802 91.7429 967.298 93.872C968.793 96.0011 970.606 96.3175 972.736 94.8213C974.866 93.3251 975.183 91.5125 973.687 89.3834Z" fill="#F0F3FA"/>
<path d="M614.594 9.88897C613.098 7.7599 611.286 7.44348 609.156 8.93968C607.026 10.4359 606.709 12.2485 608.204 14.3776C609.7 16.5067 611.513 16.8231 613.643 15.3269C615.772 13.8307 616.09 12.018 614.594 9.88897Z" fill="#F0F3FA"/>
<path d="M547.999 205.346C545.255 207.274 544.592 211.061 546.519 213.805C548.447 216.549 552.234 217.21 554.979 215.282C557.724 213.353 558.386 209.566 556.459 206.823C554.532 204.079 550.744 203.418 547.999 205.346Z" fill="#F0F3FA"/>
<path d="M644.453 212.843C641.708 214.771 641.046 218.558 642.973 221.302C644.9 224.045 648.688 224.706 651.432 222.778C654.177 220.85 654.84 217.063 652.912 214.319C650.985 211.576 647.198 210.914 644.453 212.843Z" fill="#F0F3FA"/>
<path d="M625.479 135.624C622.734 137.553 622.071 141.34 623.999 144.083C625.926 146.827 629.713 147.488 632.458 145.56C635.203 143.632 635.866 139.845 633.938 137.101C632.011 134.357 628.223 133.696 625.479 135.624Z" fill="#F0F3FA"/>
<path d="M1231.63 22.4229C1234.37 20.4947 1238.16 21.1559 1240.09 23.8995C1242.01 26.6432 1241.35 30.4304 1238.61 32.3585C1235.86 34.2866 1232.08 33.6255 1230.15 30.8818C1228.22 28.1382 1228.88 24.351 1231.63 22.4229Z" fill="#F0F3FA"/>
<path d="M1260.7 173.399C1263.45 171.471 1267.23 172.132 1269.16 174.876C1271.09 177.62 1270.43 181.407 1267.68 183.335C1264.94 185.263 1261.15 184.602 1259.22 181.858C1257.3 179.115 1257.96 175.327 1260.7 173.399Z" fill="#F0F3FA"/>
<path d="M1155.69 -2.66369C1158.43 -4.5918 1162.22 -3.93066 1164.15 -1.187C1166.07 1.55665 1165.41 5.34386 1162.67 7.27197C1159.92 9.20007 1156.13 8.53894 1154.21 5.79529C1152.28 3.05164 1152.94 -0.735581 1155.69 -2.66369Z" fill="#F0F3FA"/>
<path d="M1207.55 31.9184C1210.29 29.9902 1214.08 30.6514 1216.01 33.395C1217.94 36.1387 1217.27 39.9259 1214.53 41.854C1211.78 43.7821 1208 43.121 1206.07 40.3773C1204.14 37.6337 1204.8 33.8465 1207.55 31.9184Z" fill="#F0F3FA"/>
<path d="M131.586 109.759L93.6024 83.0768L61.8262 88.3122M-30.3042 310.299L35.5033 216.62L79.3644 209.275M-81.6671 200.025L-59.0983 197.33L-4.00952 118.91L-8.94016 88.9485L26.4563 38.5606M136.386 145.461L164.575 139.295L203.212 84.2945L199.444 60.9796L148.681 25.32L103.219 34.1898M16.7284 321.081L63.5913 254.37L91.1755 248.309M143.295 183.172L72.2987 133.298L28.4375 140.643L-41.109 239.645L-71.7145 246.232L-115.586 308.685M67.5534 170.241L38.4057 176.263L-19.6743 258.942L-62.0778 265.721L-99.9669 319.657M171.997 190.615L124.386 258.39M420.054 223.903C415.348 220.597 414.213 214.105 417.517 209.402C420.821 204.698 427.314 203.565 432.019 206.87C436.724 210.175 437.86 216.668 434.556 221.371C431.252 226.075 424.759 227.208 420.054 223.903ZM420.054 223.903L394.628 260.097L369.854 264.421L349.164 293.873L311.701 300.413M402.404 48.2787L363.915 103.069L367.391 127.554L293.358 232.942L252.268 240.115L189.563 329.378M261.853 254.395L306.378 246.859L372.186 153.18M334.946 -88.1404L339.945 -56.0117L314.021 -19.1078M491.397 -8.97431L497.853 22.5886L464.202 70.4926L449.201 73.7338L430.387 60.5173L427.359 41.4318L456.026 0.624733L449.539 -34.6689L391.216 -76.1695L386.429 -107.09M556.915 -50.9215L511.049 14.3699L516.161 41.8088L464.811 114.907L413.201 124.227L314.49 264.746L289.005 268.571M422.392 -11.873L402.7 16.1598L371.029 21.9994M461.754 92.0906L427.56 97.7479L402.357 80.0428M293.776 21.7859L257.134 73.948L262.246 101.387L219.87 161.71L224.038 178.417L188.181 227.952L192.9 256.705M192.9 256.705L228.297 206.317L244.957 204.109M192.9 256.705L161.741 301.06L142.579 304.189L168.186 268.491L161.873 235.969L195.525 188.065L188.057 143.602L227.192 87.8918L221.416 53.0968L287.329 -39.9779M306.519 151.566L272.724 200.43L244.957 204.109M244.957 204.109L303.972 120.1L297.42 92.0689L318.057 62.6906M375.49 -62.839L354.551 -33.0321L357.474 -14.5509L314.599 46.4824L318.057 62.6906M318.057 62.6906L379.627 -24.956M364.426 66.116L345.714 92.7529L350.525 118.356L279.982 218.777L242.057 224.463L177.496 316.367M586.473 50.3947L543.004 56.4258L483.428 141.234M483.428 141.234L421.545 152.347L331.559 280.446L298.219 285.643M483.428 141.234L586.473 124.227M-33.3974 95.0857L-13.9543 67.4079L-17.9335 42.8845L29.6772 -24.8908M53.2574 -14.6856L73.6976 -43.7828L105.617 -49.9773M110.785 -84.5034L76.5922 -78.846L56.6506 -50.4585L18.9376 -43.5641L-55.0957 61.8248L-46.6388 110.162L-162.799 275.519M-131.915 297.214L-84.3047 229.439L-49.0087 222.966L26.0217 116.158L20.0183 90.7429L99.0371 -21.7428L134.832 -28.9249L195.534 13.7169M537.848 10.9373L568.272 6.87192L588.712 -22.2253M1075.07 111.438L1102.97 140.593M1075.07 111.438C1072.32 113.367 1068.53 112.705 1066.61 109.962C1064.68 107.218 1065.34 103.431 1068.09 101.503C1070.83 99.5747 1074.62 100.236 1076.55 102.979C1078.47 105.723 1077.81 109.51 1075.07 111.438ZM1005.49 160.314L1052.16 139.689L1060.77 196.738L1101.94 167.811M893.433 30.2311C891.505 27.4874 887.718 26.8263 884.973 28.7544C882.228 30.6825 881.566 34.4697 883.493 37.2134C885.421 39.957 889.208 40.6182 891.953 38.69M893.433 30.2311C895.36 32.9747 894.697 36.7619 891.953 38.69M893.433 30.2311L891.953 38.69M893.433 30.2311L945.204 -6.56521M891.953 38.69L953.379 125.378L947.603 160.173L986.738 215.883L979.271 260.345M591.812 127.643C594.557 125.715 595.219 121.928 593.292 119.184C591.365 116.441 587.577 115.78 584.833 117.708C582.088 119.636 581.425 123.423 583.353 126.167C585.28 128.91 589.067 129.572 591.812 127.643ZM591.812 127.643L588.5 122.499L628.968 140.592M1233.89 269.611L1178.8 191.191L1183.74 161.229L1148.34 110.841M1038.41 217.742L1010.22 211.576L971.584 156.575L975.351 133.26L1026.11 97.6008L1071.58 106.471M1031.5 255.452L1102.5 205.579L1146.36 212.924L1215.9 311.926M1107.24 242.522V267.864M772.391 120.559L810.88 175.35L807.404 199.834L881.438 305.223L922.527 312.396M839.849 -15.8596L834.85 16.2691L860.774 53.1729M683.398 63.3064L676.942 94.8694L710.593 142.773L725.594 146.014L744.408 132.798L747.436 113.713L718.77 72.9055L725.256 37.6118L783.579 -3.88873M617.88 21.3592L663.746 86.6506L658.634 114.09L709.984 187.188L761.594 196.508L860.306 337.026L885.79 340.852M752.403 60.4078L772.095 88.4405L803.766 94.2801M713.042 164.371L747.235 170.029L772.438 152.324M881.019 94.0666L917.661 146.229L912.549 173.668L945.204 220.152M945.204 220.152L954.925 233.991L950.757 250.698L986.614 300.233M945.204 220.152L926.366 217.487L887.979 162.841L892.359 144.925L879.646 126.828M946.499 278.597L929.838 276.39L870.823 192.38L877.375 164.35L795.168 47.3248M810.369 138.397L829.081 165.034L824.27 190.636L894.813 291.057L932.738 296.743M1208.19 167.366L1188.75 139.689L1192.73 115.165L1145.12 47.39M1121.54 57.5952L1101.1 28.4979L1069.18 22.3035M1064.01 -12.2226L1098.2 -6.56523L1118.14 21.8223L1155.86 28.7167L1229.89 134.106L1221.43 182.443L1279.5 266.999M1223.8 295.247L1148.77 188.439L1154.78 163.024L1075.76 50.538L1039.96 43.3559L979.261 85.9977M636.947 83.2181L606.523 79.1528L586.083 50.0555M551.489 210.314L598.16 189.688L610 248.468L647.943 217.81M554 266.999L517.583 206.575L521.351 183.26M532.738 265.882L489.5 196.508M1260.7 173.399C1263.45 171.471 1267.23 172.132 1269.16 174.876C1271.09 177.62 1270.43 181.407 1267.68 183.335C1264.94 185.263 1261.15 184.602 1259.22 181.858C1257.3 179.115 1257.96 175.327 1260.7 173.399ZM1260.7 173.399L1244.75 120.689L1257 83.1114L1235 27.4991M1211.54 37.5959L1191.1 8.49861L1159.18 2.30414M375.676 148.212C372.931 146.284 369.143 146.945 367.216 149.689C365.289 152.432 365.951 156.22 368.696 158.148C371.441 160.076 375.228 159.415 377.156 156.671C379.083 153.927 378.42 150.14 375.676 148.212ZM310.009 146.599C307.264 144.671 303.477 145.332 301.55 148.075C299.622 150.819 300.285 154.606 303.03 156.534C305.774 158.462 309.562 157.801 311.489 155.058C313.416 152.314 312.754 148.527 310.009 146.599ZM297.266 16.818C294.521 14.8899 290.734 15.5511 288.807 18.2947C286.879 21.0384 287.542 24.8256 290.287 26.7537C293.031 28.6818 296.819 28.0207 298.746 25.277C300.673 22.5334 300.011 18.7461 297.266 16.818ZM317.511 -24.0757C314.766 -26.0038 310.978 -25.3426 309.051 -22.599C307.124 -19.8553 307.786 -16.0681 310.531 -14.14C313.276 -12.2119 317.063 -12.873 318.991 -15.6167C320.918 -18.3604 320.255 -22.1476 317.511 -24.0757ZM289.822 -43.5264C287.077 -45.4545 283.29 -44.7933 281.362 -42.0497C279.435 -39.306 280.098 -35.5188 282.842 -33.5907C285.587 -31.6626 289.375 -32.3237 291.302 -35.0674C293.229 -37.811 292.567 -41.5982 289.822 -43.5264ZM374.519 17.0316C371.775 15.1035 367.987 15.7646 366.06 18.5083C364.132 21.2519 364.795 25.0391 367.54 26.9672C370.284 28.8953 374.072 28.2342 375.999 25.4906C377.927 22.7469 377.264 18.9597 374.519 17.0316ZM382.619 -29.2141C379.874 -31.1422 376.086 -30.4811 374.159 -27.7374C372.232 -24.9938 372.894 -21.2066 375.639 -19.2785C378.384 -17.3504 382.171 -18.0115 384.099 -20.7551C386.026 -23.4988 385.363 -27.286 382.619 -29.2141ZM425.882 -16.8408C423.137 -18.7689 419.35 -18.1078 417.422 -15.3641C415.495 -12.6205 416.158 -8.83324 418.902 -6.90514C421.647 -4.97703 425.435 -5.63814 427.362 -8.3818C429.289 -11.1255 428.627 -14.9127 425.882 -16.8408ZM378.98 -67.8068C376.235 -69.735 372.448 -69.0738 370.52 -66.3302C368.593 -63.5865 369.256 -59.7993 372 -57.8712C374.745 -55.9431 378.533 -56.6042 380.46 -59.3479C382.387 -62.0915 381.725 -65.8787 378.98 -67.8068ZM338.436 -93.1082C335.691 -95.0363 331.904 -94.3752 329.977 -91.6315C328.049 -88.8879 328.712 -85.1007 331.457 -83.1726C334.201 -81.2445 337.989 -81.9056 339.916 -84.6493C341.844 -87.3929 341.181 -91.1801 338.436 -93.1082ZM389.919 -112.058C387.174 -113.986 383.387 -113.325 381.46 -110.581C379.532 -107.837 380.195 -104.05 382.94 -102.122C385.684 -100.194 389.472 -100.855 391.399 -103.599C393.326 -106.342 392.664 -110.129 389.919 -112.058ZM367.916 61.1482C365.171 59.2201 361.383 59.8812 359.456 62.6249C357.529 65.3685 358.191 69.1557 360.936 71.0838C363.681 73.0119 367.468 72.3508 369.396 69.6072C371.323 66.8635 370.66 63.0763 367.916 61.1482ZM405.893 43.3109C403.149 41.3828 399.361 42.0439 397.434 44.7876C395.507 47.5312 396.169 51.3184 398.914 53.2465C401.659 55.1746 405.446 54.5135 407.373 51.7699C409.301 49.0262 408.638 45.239 405.893 43.3109ZM405.846 75.075C403.102 73.1469 399.314 73.808 397.387 76.5517C395.46 79.2953 396.122 83.0825 398.867 85.0107C401.612 86.9388 405.399 86.2776 407.326 83.534C409.254 80.7903 408.591 77.0031 405.846 75.075ZM465.243 87.1228C462.499 85.1947 458.711 85.8558 456.784 88.5994C454.857 91.3431 455.519 95.1303 458.264 97.0584C461.009 98.9865 464.796 98.3254 466.723 95.5817C468.651 92.8381 467.988 89.0509 465.243 87.1228ZM541.338 5.96951C538.593 4.04141 534.805 4.70254 532.878 7.44619C530.951 10.1898 531.613 13.977 534.358 15.9052C537.103 17.8333 540.89 17.1722 542.818 14.4285C544.745 11.6848 544.082 7.89762 541.338 5.96951ZM494.887 -13.9421C492.142 -15.8702 488.355 -15.2091 486.427 -12.4655C484.5 -9.7218 485.163 -5.9346 487.907 -4.00649C490.652 -2.07839 494.44 -2.7395 496.367 -5.48315C498.294 -8.22681 497.632 -12.014 494.887 -13.9421ZM592.202 -27.1932C589.457 -29.1213 585.67 -28.4601 583.742 -25.7165C581.815 -22.9728 582.478 -19.1856 585.222 -17.2575C587.967 -15.3294 591.754 -15.9905 593.682 -18.7342C595.609 -21.4778 594.947 -25.265 592.202 -27.1932ZM589.962 45.4269C587.218 43.4988 583.43 44.1599 581.503 46.9036C579.575 49.6472 580.238 53.4345 582.983 55.3626C585.728 57.2907 589.515 56.6295 591.442 53.8859C593.37 51.1422 592.707 47.355 589.962 45.4269ZM94.6653 243.342C91.9206 241.414 88.1331 242.075 86.2057 244.818C84.2784 247.562 84.941 251.349 87.6857 253.277C90.4304 255.205 94.2179 254.544 96.1452 251.801C98.0726 249.057 97.41 245.27 94.6653 243.342ZM146.785 178.204C144.04 176.276 140.253 176.937 138.325 179.681C136.398 182.424 137.061 186.211 139.805 188.14C142.55 190.068 146.338 189.407 148.265 186.663C150.192 183.919 149.53 180.132 146.785 178.204ZM175.486 185.647C172.742 183.719 168.954 184.38 167.027 187.124C165.099 189.868 165.762 193.655 168.507 195.583C171.252 197.511 175.039 196.85 176.966 194.106C178.894 191.362 178.231 187.575 175.486 185.647ZM71.0432 165.273C68.2985 163.345 64.511 164.006 62.5837 166.75C60.6563 169.494 61.3189 173.281 64.0636 175.209C66.8084 177.137 70.5958 176.476 72.5232 173.732C74.4505 170.989 73.7879 167.201 71.0432 165.273ZM-78.1773 195.057C-80.922 193.129 -84.7095 193.79 -86.6369 196.533C-88.5642 199.277 -87.9016 203.064 -85.1569 204.992C-82.4122 206.921 -78.6247 206.259 -76.6974 203.516C-74.77 200.772 -75.4326 196.985 -78.1773 195.057ZM29.946 33.5928C27.2013 31.6647 23.4139 32.3258 21.4865 35.0695C19.5592 37.8131 20.2218 41.6003 22.9665 43.5284C25.7112 45.4565 29.4987 44.7954 31.426 42.0517C33.3534 39.3081 32.6908 35.5209 29.946 33.5928ZM33.1669 -29.8586C30.4222 -31.7867 26.6348 -31.1256 24.7074 -28.3819C22.78 -25.6383 23.4426 -21.8511 26.1874 -19.923C28.9321 -17.9948 32.7196 -18.656 34.6469 -21.3996C36.5743 -24.1433 35.9117 -27.9305 33.1669 -29.8586ZM-29.9076 90.1179C-32.6523 88.1898 -36.4398 88.8509 -38.3672 91.5946C-40.2945 94.3382 -39.6319 98.1254 -36.8872 100.054C-34.1425 101.982 -30.355 101.321 -28.4276 98.5769C-26.5003 95.8332 -27.1629 92.046 -29.9076 90.1179ZM109.107 -54.9451C106.362 -56.8733 102.575 -56.2121 100.648 -53.4685C98.7202 -50.7248 99.3828 -46.9376 102.128 -45.0095C104.872 -43.0814 108.66 -43.7425 110.587 -46.4862C112.514 -49.2298 111.852 -53.017 109.107 -54.9451ZM57.2457 -20.3631C54.501 -22.2912 50.7136 -21.6301 48.7862 -18.8864C46.8588 -16.1428 47.5214 -12.3556 50.2662 -10.4275C53.0109 -8.49934 56.7984 -9.16048 58.7257 -11.9041C60.6531 -14.6478 59.9905 -18.435 57.2457 -20.3631ZM135.075 104.791C137.82 106.719 138.483 110.507 136.555 113.25C134.628 115.994 130.84 116.655 128.096 114.727C125.351 112.799 124.688 109.012 126.616 106.268C128.543 103.524 132.331 102.863 135.075 104.791ZM106.708 29.222C109.453 31.1501 110.116 34.9373 108.188 37.681C106.261 40.4246 102.474 41.0857 99.7289 39.1576C96.9841 37.2295 96.3215 33.4423 98.2489 30.6987C100.176 27.955 103.964 27.2939 106.708 29.222ZM139.876 140.493C142.621 142.422 143.283 146.209 141.356 148.952C139.428 151.696 135.641 152.357 132.896 150.429C130.152 148.501 129.489 144.714 131.416 141.97C133.344 139.226 137.131 138.565 139.876 140.493ZM65.316 83.3444C68.0607 85.2725 68.7233 89.0597 66.796 91.8033C64.8686 94.547 61.0811 95.2081 58.3364 93.28C55.5917 91.3519 54.9291 87.5647 56.8564 84.821C58.7838 82.0774 62.5713 81.4163 65.316 83.3444ZM82.8542 204.307C80.1095 202.379 76.3221 203.04 74.3947 205.784C72.4673 208.528 73.1299 212.315 75.8746 214.243C78.6194 216.171 82.4069 215.51 84.3342 212.766C86.2616 210.023 85.599 206.236 82.8542 204.307ZM120.627 -83.4193C118.497 -84.9155 118.18 -86.7281 119.676 -88.8572C121.171 -90.9863 122.984 -91.3027 125.114 -89.8065C127.244 -88.3103 127.561 -86.4976 126.065 -84.3686C124.57 -82.2395 122.757 -81.9231 120.627 -83.4193ZM116.888 -78.0966C112.183 -81.402 111.047 -87.8943 114.351 -92.5977C117.655 -97.3011 124.148 -98.4345 128.853 -95.1292C133.558 -91.8238 134.694 -85.3315 131.39 -80.6281C128.086 -75.9247 121.593 -74.7913 116.888 -78.0966ZM202.059 22.5405C199.929 21.0443 199.612 19.2317 201.108 17.1026C202.603 14.9735 204.416 14.6571 206.546 16.1533C208.676 17.6495 208.993 19.4621 207.497 21.5912C206.002 23.7203 204.189 24.0367 202.059 22.5405ZM198.32 27.8632C193.615 24.5578 192.479 18.0655 195.783 13.3621C199.087 8.65866 205.58 7.52529 210.285 10.8306C214.99 14.1359 216.126 20.6283 212.822 25.3317C209.518 30.0351 203.025 31.1685 198.32 27.8632ZM561.153 -56.9538C559.023 -58.4501 558.705 -60.2627 560.201 -62.3918C561.697 -64.5208 563.51 -64.8373 565.639 -63.341C567.769 -61.8448 568.086 -60.0322 566.591 -57.9031C565.095 -55.7741 563.282 -55.4576 561.153 -56.9538ZM557.413 -51.6312C552.708 -54.9365 551.572 -61.4289 554.876 -66.1323C558.18 -70.8357 564.673 -71.969 569.378 -68.6637C574.084 -65.3584 575.22 -58.866 571.916 -54.1626C568.612 -49.4592 562.119 -48.3259 557.413 -51.6312ZM423.793 218.58C421.663 217.084 421.346 215.271 422.841 213.142C424.337 211.013 426.15 210.697 428.28 212.193C430.41 213.689 430.727 215.502 429.231 217.631C427.735 219.76 425.923 220.076 423.793 218.58ZM876.156 121.86C878.901 119.932 882.688 120.593 884.616 123.337C886.543 126.081 885.88 129.868 883.135 131.796C880.391 133.724 876.603 133.063 874.676 130.319C872.749 127.576 873.411 123.788 876.156 121.86ZM877.529 89.0988C880.274 87.1707 884.061 87.8318 885.989 90.5754C887.916 93.3191 887.253 97.1063 884.509 99.0344C881.764 100.963 877.976 100.301 876.049 97.5577C874.122 94.8141 874.784 91.0269 877.529 89.0988ZM857.285 48.2051C860.029 46.277 863.817 46.9381 865.744 49.6817C867.671 52.4254 867.009 56.2126 864.264 58.1407C861.519 60.0688 857.732 59.4077 855.805 56.664C853.877 53.9204 854.54 50.1332 857.285 48.2051ZM800.276 89.3123C803.021 87.3842 806.808 88.0453 808.735 90.789C810.663 93.5326 810 97.3198 807.255 99.2479C804.511 101.176 800.723 100.515 798.796 97.7713C796.869 95.0276 797.531 91.2404 800.276 89.3123ZM792.177 43.0666C794.921 41.1385 798.709 41.7997 800.636 44.5433C802.563 47.287 801.901 51.0742 799.156 53.0023C796.411 54.9304 792.624 54.2693 790.697 51.5256C788.769 48.782 789.432 44.9947 792.177 43.0666ZM748.913 55.44C751.658 53.5118 755.445 54.173 757.373 56.9166C759.3 59.6603 758.637 63.4475 755.893 65.3756C753.148 67.3037 749.36 66.6426 747.433 63.8989C745.506 61.1553 746.168 57.3681 748.913 55.44ZM836.359 -20.8275C839.104 -22.7556 842.891 -22.0944 844.818 -19.3508C846.746 -16.6071 846.083 -12.8199 843.338 -10.8918C840.594 -8.96371 836.806 -9.62485 834.879 -12.3685C832.952 -15.1122 833.614 -18.8994 836.359 -20.8275ZM806.88 133.429C809.624 131.501 813.412 132.162 815.339 134.906C817.266 137.649 816.604 141.436 813.859 143.365C811.114 145.293 807.327 144.632 805.4 141.888C803.472 139.144 804.135 135.357 806.88 133.429ZM768.902 115.592C771.646 113.664 775.434 114.325 777.361 117.068C779.289 119.812 778.626 123.599 775.881 125.527C773.137 127.455 769.349 126.794 767.422 124.051C765.494 121.307 766.157 117.52 768.902 115.592ZM768.949 147.356C771.693 145.428 775.481 146.089 777.408 148.832C779.336 151.576 778.673 155.363 775.928 157.291C773.184 159.219 769.396 158.558 767.469 155.815C765.541 153.071 766.204 149.284 768.949 147.356ZM709.552 159.404C712.296 157.475 716.084 158.137 718.011 160.88C719.939 163.624 719.276 167.411 716.531 169.339C713.787 171.267 709.999 170.606 708.072 167.862C706.144 165.119 706.807 161.332 709.552 159.404ZM633.458 78.2503C636.202 76.3222 639.99 76.9833 641.917 79.727C643.844 82.4706 643.182 86.2579 640.437 88.186C637.692 90.1141 633.905 89.453 631.977 86.7093C630.05 83.9657 630.713 80.1784 633.458 78.2503ZM679.908 58.3386C682.653 56.4105 686.44 57.0716 688.368 59.8153C690.295 62.5589 689.632 66.3461 686.888 68.2742C684.143 70.2024 680.356 69.5412 678.428 66.7976C676.501 64.0539 677.163 60.2667 679.908 58.3386ZM582.593 45.0877C585.338 43.1596 589.125 43.8207 591.053 46.5644C592.98 49.308 592.317 53.0952 589.573 55.0233C586.828 56.9514 583.041 56.2903 581.113 53.5467C579.186 50.803 579.848 47.0158 582.593 45.0877ZM1028.01 250.485C1030.75 248.557 1034.54 249.218 1036.47 251.961C1038.4 254.705 1037.73 258.492 1034.99 260.42C1032.24 262.348 1028.46 261.687 1026.53 258.944C1024.6 256.2 1025.27 252.413 1028.01 250.485ZM999.309 257.928C1002.05 256 1005.84 256.661 1007.77 259.405C1009.7 262.148 1009.03 265.935 1006.29 267.864C1003.54 269.792 999.756 269.131 997.829 266.387C995.901 263.643 996.564 259.856 999.309 257.928ZM1103.75 237.554C1106.5 235.626 1110.28 236.287 1112.21 239.031C1114.14 241.774 1113.48 245.562 1110.73 247.49C1107.99 249.418 1104.2 248.757 1102.27 246.013C1100.34 243.269 1101.01 239.482 1103.75 237.554ZM1144.85 105.874C1147.59 103.945 1151.38 104.607 1153.31 107.35C1155.24 110.094 1154.57 113.881 1151.83 115.809C1149.08 117.737 1145.3 117.076 1143.37 114.333C1141.44 111.589 1142.1 107.802 1144.85 105.874ZM1141.63 42.4222C1144.37 40.4941 1148.16 41.1552 1150.09 43.8989C1152.02 46.6425 1151.35 50.4297 1148.61 52.3578C1145.86 54.2859 1142.08 53.6248 1140.15 50.8811C1138.22 48.1375 1138.88 44.3503 1141.63 42.4222ZM1204.7 162.399C1207.45 160.471 1211.23 161.132 1213.16 163.875C1215.09 166.619 1214.43 170.406 1211.68 172.334C1208.94 174.262 1205.15 173.601 1203.22 170.858C1201.3 168.114 1201.96 164.327 1204.7 162.399ZM1065.69 17.3356C1068.43 15.4075 1072.22 16.0686 1074.15 18.8123C1076.07 21.556 1075.41 25.3432 1072.67 27.2713C1069.92 29.1994 1066.14 28.5383 1064.21 25.7946C1062.28 23.051 1062.94 19.2637 1065.69 17.3356ZM1117.55 51.9177C1120.29 49.9896 1124.08 50.6507 1126.01 53.3943C1127.94 56.138 1127.27 59.9252 1124.53 61.8533C1121.78 63.7814 1118 63.1203 1116.07 60.3766C1114.14 57.633 1114.8 53.8458 1117.55 51.9177ZM1002 155.347C999.255 157.275 998.593 161.062 1000.52 163.806C1002.45 166.549 1006.23 167.21 1008.98 165.282C1011.72 163.354 1012.39 159.567 1010.46 156.823C1008.53 154.08 1004.74 153.419 1002 155.347ZM1034.92 212.774C1032.17 214.702 1031.51 218.49 1033.44 221.233C1035.37 223.977 1039.15 224.638 1041.9 222.71C1044.64 220.782 1045.31 216.995 1043.38 214.251C1041.45 211.507 1037.66 210.846 1034.92 212.774ZM1098.45 162.843C1095.71 164.771 1095.05 168.559 1096.97 171.302C1098.9 174.046 1102.69 174.707 1105.43 172.779C1108.18 170.851 1108.84 167.064 1106.91 164.32C1104.99 161.576 1101.2 160.915 1098.45 162.843ZM1099.48 135.625C1096.73 137.553 1096.07 141.34 1098 144.084C1099.93 146.828 1103.71 147.489 1106.46 145.561C1109.2 143.633 1109.87 139.845 1107.94 137.102C1106.01 134.358 1102.22 133.697 1099.48 135.625ZM1054.17 -11.1385C1056.3 -12.6347 1056.62 -14.4474 1055.12 -16.5764C1053.62 -18.7055 1051.81 -19.0219 1049.68 -17.5257C1047.55 -16.0295 1047.23 -14.2169 1048.73 -12.0878C1050.23 -9.95874 1052.04 -9.64231 1054.17 -11.1385ZM1057.91 -5.81585C1062.61 -9.12118 1063.75 -15.6135 1060.44 -20.3169C1057.14 -25.0204 1050.65 -26.1537 1045.94 -22.8484C1041.24 -19.5431 1040.1 -13.0507 1043.41 -8.34729C1046.71 -3.64389 1053.2 -2.51052 1057.91 -5.81585ZM972.736 94.8213C974.866 93.3251 975.183 91.5125 973.687 89.3834C972.192 87.2543 970.379 86.9379 968.249 88.4341C966.119 89.9303 965.802 91.7429 967.298 93.872C968.793 96.0011 970.606 96.3175 972.736 94.8213ZM976.475 100.144C981.18 96.8386 982.316 90.3463 979.012 85.6429C975.708 80.9395 969.215 79.8061 964.51 83.1114C959.805 86.4167 958.669 92.9091 961.973 97.6125C965.277 102.316 971.77 103.449 976.475 100.144ZM613.643 15.3269C615.772 13.8307 616.09 12.018 614.594 9.88897C613.098 7.7599 611.286 7.44348 609.156 8.93968C607.026 10.4359 606.709 12.2485 608.204 14.3776C609.7 16.5067 611.513 16.8231 613.643 15.3269ZM617.382 20.6496C622.087 17.3442 623.223 10.8519 619.919 6.14847C616.615 1.44506 610.122 0.311685 605.417 3.61701C600.711 6.92234 599.575 13.4147 602.88 18.1181C606.184 22.8215 612.676 23.9549 617.382 20.6496ZM547.999 205.346C545.255 207.274 544.592 211.061 546.519 213.805C548.447 216.549 552.234 217.21 554.979 215.282C557.724 213.353 558.386 209.566 556.459 206.823C554.532 204.079 550.744 203.418 547.999 205.346ZM644.453 212.843C641.708 214.771 641.046 218.558 642.973 221.302C644.9 224.045 648.688 224.706 651.432 222.778C654.177 220.85 654.84 217.063 652.912 214.319C650.985 211.576 647.198 210.914 644.453 212.843ZM625.479 135.624C622.734 137.553 622.071 141.34 623.999 144.083C625.926 146.827 629.713 147.488 632.458 145.56C635.203 143.632 635.866 139.845 633.938 137.101C632.011 134.357 628.223 133.696 625.479 135.624ZM1231.63 22.4229C1234.37 20.4947 1238.16 21.1559 1240.09 23.8995C1242.01 26.6432 1241.35 30.4304 1238.61 32.3585C1235.86 34.2866 1232.08 33.6255 1230.15 30.8818C1228.22 28.1382 1228.88 24.351 1231.63 22.4229ZM1155.69 -2.66369C1158.43 -4.5918 1162.22 -3.93066 1164.15 -1.187C1166.07 1.55665 1165.41 5.34386 1162.67 7.27197C1159.92 9.20007 1156.13 8.53894 1154.21 5.79529C1152.28 3.05164 1152.94 -0.735581 1155.69 -2.66369ZM1207.55 31.9184C1210.29 29.9902 1214.08 30.6514 1216.01 33.395C1217.94 36.1387 1217.27 39.9259 1214.53 41.854C1211.78 43.7821 1208 43.121 1206.07 40.3773C1204.14 37.6337 1204.8 33.8465 1207.55 31.9184Z" stroke="#F0F3FA" stroke-width="4"/>
</g>
</svg>
