<svg width="64" height="64" viewBox="0 0 64 64" fill="none" xmlns="http://www.w3.org/2000/svg">
<path d="M3 43V39.5254V17.2876C3 16.8701 3.2594 16.4965 3.65062 16.3506L17.831 11.063C17.9428 11.0213 18.0611 11 18.1804 11H45.8196C45.9389 11 46.0572 11.0213 46.169 11.063L60.3494 16.3506C60.7406 16.4965 61 16.8701 61 17.2876V43C61 43.5523 60.5523 44 60 44H38H36.5H10H4C3.44772 44 3 43.5523 3 43Z" stroke="white" stroke-width="1.5"/>
<path d="M6 40.8V37.339V18.7107C6 18.6294 6.04919 18.5562 6.12444 18.5255L17.1794 14.0148C17.2033 14.005 17.229 14 17.2549 14H45.7285C45.7525 14 45.7762 14.0043 45.7986 14.0127L57.8701 18.5277C57.9482 18.5569 58 18.6316 58 18.715V40.8C58 40.9105 57.9105 41 57.8 41H37.3793H36.0345H12.2759H6.2C6.08954 41 6 40.9105 6 40.8Z" stroke="white" stroke-width="1.5"/>
<path d="M11 44V48.5V53" stroke="white" stroke-width="1.5" stroke-linecap="square"/>
<path d="M22 44V48.5V53" stroke="white" stroke-width="1.5" stroke-linecap="square"/>
<path d="M34 44V48.5V53" stroke="white" stroke-width="1.5" stroke-linecap="square"/>
<path d="M46 44V48.5V53" stroke="white" stroke-width="1.5" stroke-linecap="square"/>
<path d="M58 44V48.5V53" stroke="white" stroke-width="1.5" stroke-linecap="square"/>
<path d="M6 44V48.5V53" stroke="white" stroke-width="1.5" stroke-linecap="square"/>
<path d="M16 44V48.5V53" stroke="white" stroke-width="1.5" stroke-linecap="square"/>
<path d="M28 44V48.5V53" stroke="white" stroke-width="1.5" stroke-linecap="square"/>
<path d="M40 44V48.5V53" stroke="white" stroke-width="1.5" stroke-linecap="square"/>
<path d="M52 44V48.5V53" stroke="white" stroke-width="1.5" stroke-linecap="square"/>
<path d="M16.2695 25.0029C16.903 25.0029 17.377 25.1408 17.6914 25.4165C18.0081 25.6922 18.1665 26.0841 18.1665 26.5923C18.1665 26.8201 18.1335 27.0389 18.0674 27.2485C18.0036 27.4582 17.8976 27.645 17.7495 27.8091C17.6037 27.9731 17.4089 28.103 17.165 28.1987C16.9235 28.2944 16.625 28.3423 16.2695 28.3423H15.8901V30H14.54V25.0029H16.2695ZM16.2388 26.0933H15.8901V27.2417H16.1567C16.2729 27.2417 16.3812 27.2223 16.4814 27.1836C16.5817 27.1426 16.6615 27.0776 16.7207 26.9888C16.7822 26.8976 16.813 26.7769 16.813 26.6265C16.813 26.4692 16.7663 26.3416 16.6729 26.2437C16.5794 26.1434 16.4347 26.0933 16.2388 26.0933ZM20.9501 25.0029C21.4035 25.0029 21.7807 25.0588 22.0814 25.1704C22.3822 25.2798 22.6078 25.4438 22.7582 25.6626C22.9109 25.8813 22.9872 26.1536 22.9872 26.4795C22.9872 26.6823 22.953 26.8669 22.8847 27.0332C22.8163 27.1995 22.7183 27.3488 22.5907 27.481C22.4654 27.6108 22.315 27.7248 22.1396 27.8228L23.5956 30H22.0644L21.0048 28.1816H20.663V30H19.3129V25.0029H20.9501ZM20.9296 26.0249H20.663V27.1665H20.9159C21.1233 27.1665 21.293 27.1209 21.4252 27.0298C21.5574 26.9386 21.6234 26.7757 21.6234 26.541C21.6234 26.3792 21.5687 26.2528 21.4594 26.1616C21.35 26.0705 21.1734 26.0249 20.9296 26.0249ZM27.367 30H24.4002V25.0029H27.367V26.0864H25.7503V26.8726H27.2474V27.9561H25.7503V28.8994H27.367V30ZM31.8596 28.4824C31.8596 28.7536 31.7912 29.0111 31.6545 29.2549C31.5178 29.4964 31.3047 29.6924 31.0153 29.8428C30.7282 29.9932 30.3568 30.0684 29.9011 30.0684C29.6732 30.0684 29.4727 30.0581 29.2995 30.0376C29.1286 30.0171 28.9691 29.984 28.821 29.9385C28.6729 29.8906 28.5191 29.8291 28.3596 29.7539V28.5508C28.6307 28.6875 28.9042 28.7923 29.1799 28.8652C29.4556 28.9359 29.7051 28.9712 29.9284 28.9712C30.0629 28.9712 30.1722 28.9552 30.2565 28.9233C30.3431 28.8914 30.4069 28.8481 30.4479 28.7935C30.489 28.7365 30.5095 28.6715 30.5095 28.5986C30.5095 28.512 30.4787 28.4391 30.4172 28.3799C30.3579 28.3184 30.2622 28.2546 30.1301 28.1885C29.9979 28.1224 29.8236 28.0404 29.6071 27.9424C29.4226 27.8558 29.2551 27.7669 29.1047 27.6758C28.9566 27.5846 28.829 27.481 28.7219 27.3647C28.6171 27.2463 28.5362 27.1084 28.4792 26.9512C28.4222 26.7939 28.3938 26.6082 28.3938 26.394C28.3938 26.0728 28.4724 25.8039 28.6296 25.5874C28.7891 25.3687 29.0101 25.2046 29.2927 25.0952C29.5775 24.9858 29.9056 24.9312 30.2771 24.9312C30.6029 24.9312 30.8957 24.9676 31.1555 25.0405C31.4175 25.1134 31.6522 25.1966 31.8596 25.29L31.446 26.3325C31.2318 26.2345 31.021 26.1571 30.8137 26.1001C30.6063 26.0409 30.4138 26.0112 30.236 26.0112C30.1198 26.0112 30.0241 26.026 29.9489 26.0557C29.876 26.083 29.8213 26.1206 29.7849 26.1685C29.7507 26.2163 29.7336 26.271 29.7336 26.3325C29.7336 26.41 29.7632 26.4795 29.8225 26.541C29.884 26.6025 29.9854 26.6698 30.1267 26.7427C30.2702 26.8133 30.465 26.9056 30.7111 27.0195C30.9549 27.1289 31.1623 27.2474 31.3332 27.375C31.5041 27.5003 31.634 27.6519 31.7229 27.8296C31.814 28.005 31.8596 28.2227 31.8596 28.4824ZM36.2496 28.4824C36.2496 28.7536 36.1812 29.0111 36.0445 29.2549C35.9078 29.4964 35.6948 29.6924 35.4054 29.8428C35.1183 29.9932 34.7468 30.0684 34.2911 30.0684C34.0632 30.0684 33.8627 30.0581 33.6896 30.0376C33.5187 30.0171 33.3591 29.984 33.211 29.9385C33.0629 29.8906 32.9091 29.8291 32.7496 29.7539V28.5508C33.0208 28.6875 33.2942 28.7923 33.5699 28.8652C33.8456 28.9359 34.0951 28.9712 34.3185 28.9712C34.4529 28.9712 34.5623 28.9552 34.6466 28.9233C34.7332 28.8914 34.797 28.8481 34.838 28.7935C34.879 28.7365 34.8995 28.6715 34.8995 28.5986C34.8995 28.512 34.8687 28.4391 34.8072 28.3799C34.748 28.3184 34.6523 28.2546 34.5201 28.1885C34.388 28.1224 34.2136 28.0404 33.9972 27.9424C33.8126 27.8558 33.6451 27.7669 33.4947 27.6758C33.3466 27.5846 33.219 27.481 33.1119 27.3647C33.0071 27.2463 32.9262 27.1084 32.8692 26.9512C32.8123 26.7939 32.7838 26.6082 32.7838 26.394C32.7838 26.0728 32.8624 25.8039 33.0196 25.5874C33.1791 25.3687 33.4002 25.2046 33.6827 25.0952C33.9675 24.9858 34.2957 24.9312 34.6671 24.9312C34.9929 24.9312 35.2857 24.9676 35.5455 25.0405C35.8076 25.1134 36.0423 25.1966 36.2496 25.29L35.836 26.3325C35.6218 26.2345 35.4111 26.1571 35.2037 26.1001C34.9964 26.0409 34.8038 26.0112 34.6261 26.0112C34.5099 26.0112 34.4142 26.026 34.339 26.0557C34.266 26.083 34.2114 26.1206 34.1749 26.1685C34.1407 26.2163 34.1236 26.271 34.1236 26.3325C34.1236 26.41 34.1533 26.4795 34.2125 26.541C34.274 26.6025 34.3754 26.6698 34.5167 26.7427C34.6603 26.8133 34.8551 26.9056 35.1012 27.0195C35.345 27.1289 35.5523 27.2474 35.7232 27.375C35.8941 27.5003 36.024 27.6519 36.1129 27.8296C36.204 28.005 36.2496 28.2227 36.2496 28.4824ZM36.979 28.6567V27.5903H38.9102V28.6567H36.979ZM41.2802 30H39.9506V25.0029H42.9037V26.0864H41.2802V27.04H42.7772V28.1235H41.2802V30ZM44.074 30V25.0029H45.431V30H44.074ZM49.069 30H47.7189V26.1069H46.4987V25.0029H50.2858V26.1069H49.069V30Z" fill="white"/>
<circle cx="1" cy="1" r="1" transform="matrix(0 -1 -1 0 28 19)" fill="white"/>
<path d="M27 14V18" stroke="white"/>
<circle cx="1" cy="1" r="0.5" transform="matrix(0 -1 -1 0 52 21)" fill="white" stroke="white"/>
<path d="M48 15.5V16.9686C48 17.2606 48.1276 17.5379 48.3492 17.7279L51 20" stroke="white"/>
<circle cx="1" cy="1" r="1" transform="matrix(0 -1 -1 0 36 39)" fill="white"/>
<path d="M32 41V39.9451C32 39.5451 32.2384 39.1835 32.6061 39.026L35 38" stroke="white"/>
<circle cx="1" cy="1" r="1" transform="matrix(0 -1 -1 0 10 32)" fill="white"/>
<path d="M6 35H8C8.55228 35 9 34.5523 9 34V33V31" stroke="white"/>
<circle cx="1" cy="1" r="1" transform="matrix(0 -1 -1 0 24 37)" fill="white"/>
<path d="M19 41L22.4997 38.9809C22.8093 38.8023 23 38.4721 23 38.1147V37.5385V36" stroke="white"/>
</svg>
